<svg width="1131" height="954" viewBox="0 0 1131 954" fill="none" xmlns="http://www.w3.org/2000/svg">
<g clip-path="url(#clip0_151535_665)">
<path d="M520 407L521.71 405.763C521.448 405.402 521.079 405.132 520.655 404.994C520.231 404.856 519.774 404.855 519.35 404.992C518.925 405.13 518.555 405.398 518.293 405.759C518.031 406.119 517.889 406.554 517.889 407H520ZM532.667 447.111C525.388 447.111 518.407 444.22 513.261 439.073C508.114 433.926 505.222 426.945 505.222 419.667H501C501 428.065 504.336 436.12 510.275 442.058C516.214 447.997 524.268 451.333 532.667 451.333V447.111ZM560.111 419.667C560.111 423.271 559.401 426.839 558.022 430.169C556.643 433.499 554.621 436.524 552.073 439.073C549.524 441.621 546.499 443.643 543.169 445.022C539.839 446.401 536.271 447.111 532.667 447.111V451.333C541.065 451.333 549.12 447.997 555.058 442.058C560.997 436.12 564.333 428.065 564.333 419.667H560.111ZM532.667 392.222C536.271 392.222 539.839 392.932 543.169 394.311C546.499 395.691 549.524 397.712 552.073 400.261C554.621 402.809 556.643 405.834 558.022 409.164C559.401 412.494 560.111 416.063 560.111 419.667H564.333C564.333 411.268 560.997 403.214 555.058 397.275C549.12 391.336 541.065 388 532.667 388V392.222ZM532.667 388C524.268 388 516.214 391.336 510.275 397.275C504.336 403.214 501 411.268 501 419.667H505.222C505.222 412.388 508.114 405.407 513.261 400.261C518.407 395.114 525.388 392.222 532.667 392.222V388ZM522.111 438.667V407H517.889V438.667H522.111ZM518.29 408.237L545.734 446.237L549.154 443.763L521.71 405.763L518.29 408.237ZM543.222 404.889V430.222H547.444V404.889H543.222Z" fill="currentColor"/>
</g>
<path d="M918.797 482.635C920.539 484.796 921.427 487.712 923.196 493.538L961.964 620.885C947.404 613.326 931.774 608.035 915.616 605.194L890.378 519.898C890.178 519.217 889.763 518.618 889.195 518.192C888.626 517.766 887.935 517.537 887.224 517.537C886.514 517.538 885.823 517.77 885.255 518.197C884.688 518.624 884.274 519.223 884.076 519.906L859.14 605.151C842.912 607.982 827.213 613.281 812.59 620.866L851.541 493.511C853.324 487.693 854.212 484.782 855.952 482.621C857.489 480.718 859.488 479.24 861.758 478.328C864.323 477.299 867.372 477.299 873.457 477.299H901.282C907.372 477.299 910.421 477.299 912.995 478.335C915.265 479.249 917.262 480.73 918.797 482.635ZM923.434 626.944C917.043 632.411 904.286 636.138 889.594 636.138C871.566 636.138 856.448 630.522 852.44 622.969C851.008 627.298 850.685 632.25 850.685 635.418C850.685 635.418 849.742 650.948 860.546 661.752C860.546 660.419 860.808 659.098 861.318 657.866C861.828 656.634 862.576 655.515 863.519 654.572C864.462 653.63 865.582 652.882 866.814 652.372C868.046 651.862 869.366 651.599 870.7 651.6C880.313 651.6 880.308 659.983 880.301 666.795V667.397C880.301 677.732 886.615 686.586 895.594 690.32C894.209 687.477 893.492 684.356 893.496 681.194C893.496 671.333 899.279 667.669 906.006 663.403C911.357 660.012 917.301 656.242 921.391 648.684C923.6 644.611 924.754 640.051 924.748 635.418C924.749 632.542 924.306 629.685 923.434 626.944Z" fill="currentColor"/>
<path d="M533.375 604.923C531.629 602.183 529.361 599.813 526.699 597.949C524.038 596.086 521.035 594.765 517.863 594.061C514.691 593.358 511.411 593.287 508.211 593.851C505.012 594.416 501.954 595.605 499.214 597.351L479.185 610.112C473.718 613.596 469.837 619.086 468.376 625.402C466.916 631.718 467.993 638.355 471.375 643.885C468.457 648.657 467.242 654.276 467.929 659.827C468.615 665.378 471.162 670.532 475.154 674.45C479.146 678.367 484.348 680.816 489.911 681.397C495.474 681.978 501.069 680.657 505.785 677.65L525.814 664.888C531.282 661.405 535.164 655.915 536.625 649.599C538.086 643.283 537.01 636.646 533.628 631.115C536.041 627.163 537.297 622.613 537.252 617.983C537.207 613.353 535.864 608.828 533.375 604.923ZM528.023 624.731C524.808 622.155 521.001 620.422 516.947 619.688C517.07 618.934 516.971 618.161 516.664 617.461C516.356 616.762 515.853 616.167 515.215 615.747C514.577 615.328 513.831 615.102 513.068 615.096C512.304 615.091 511.555 615.307 510.911 615.717L490.886 628.475C490.436 628.749 490.045 629.11 489.736 629.537C489.427 629.964 489.207 630.448 489.087 630.961C488.968 631.474 488.953 632.006 489.042 632.525C489.13 633.045 489.322 633.541 489.605 633.985C489.889 634.429 490.258 634.812 490.691 635.112C491.124 635.412 491.613 635.622 492.129 635.731C492.644 635.839 493.176 635.843 493.693 635.744C494.211 635.644 494.703 635.442 495.141 635.149L503.489 629.833C505.353 628.646 507.432 627.838 509.608 627.454C511.784 627.071 514.014 627.119 516.171 627.598C518.328 628.076 520.37 628.975 522.179 630.242C523.989 631.51 525.532 633.121 526.719 634.985C527.906 636.848 528.714 638.927 529.097 641.103C529.481 643.279 529.432 645.509 528.954 647.666C528.475 649.823 527.577 651.865 526.309 653.675C525.042 655.485 523.43 657.027 521.567 658.214L501.538 670.972C498.514 672.9 494.954 673.811 491.376 673.573C487.799 673.335 484.391 671.96 481.649 669.648C478.908 667.337 476.977 664.21 476.138 660.724C475.299 657.238 475.595 653.575 476.984 650.27C480.196 652.846 484 654.579 488.052 655.313C487.929 656.067 488.028 656.84 488.335 657.539C488.643 658.238 489.146 658.833 489.784 659.253C490.422 659.673 491.168 659.899 491.932 659.904C492.695 659.909 493.444 659.694 494.088 659.283L514.117 646.521C514.989 645.951 515.602 645.061 515.822 644.043C516.041 643.024 515.851 641.96 515.291 641.082C514.732 640.203 513.849 639.58 512.833 639.348C511.817 639.117 510.751 639.294 509.866 639.844L501.518 645.164C497.754 647.561 493.193 648.365 488.836 647.399C484.48 646.432 480.686 643.775 478.288 640.012C475.891 636.248 475.087 631.686 476.053 627.33C477.019 622.974 479.677 619.18 483.44 616.782L503.469 604.025C506.493 602.097 510.053 601.186 513.631 601.424C517.208 601.662 520.616 603.037 523.358 605.348C526.099 607.659 528.03 610.786 528.869 614.272C529.709 617.758 529.412 621.421 528.023 624.727" fill="currentColor"/>
<path d="M530.4 181.551H569.867C571.126 181.551 572.331 181.109 573.424 180.485C574.512 179.861 575.638 179.077 576.267 177.999C576.896 176.917 577.334 175.69 577.334 174.442C577.334 173.194 576.896 171.967 576.267 170.885L549.6 125.018C549.019 123.973 548.156 123.112 547.11 122.533C545.911 121.868 544.57 121.502 543.2 121.466C541.942 121.466 540.736 121.909 539.643 122.533C538.599 123.113 537.738 123.974 537.158 125.018L530.4 136.751L516.891 113.999C516.262 112.917 515.494 111.775 514.4 111.151C513.307 110.527 512.107 110.442 510.843 110.442C509.584 110.442 508.379 110.527 507.291 111.151C506.203 111.775 505.072 112.911 504.443 113.999L471.376 170.885C470.747 171.967 470.667 173.194 470.667 174.442C470.667 175.69 470.747 176.917 471.376 177.999C472.006 179.077 473.136 179.866 474.224 180.485C475.312 181.103 476.518 181.551 477.776 181.551H502.667C512.534 181.551 519.707 177.125 524.71 168.751L536.8 147.775L543.2 136.751L562.758 170.175H536.8L530.4 181.551ZM502.31 170.175H484.891L510.843 125.375L524 147.775L515.286 162.965C511.963 168.405 508.176 170.175 502.31 170.175Z" fill="currentColor"/>
<path d="M151.611 110.482C169.035 121.683 181.48 127.284 188.947 127.284C198.281 127.284 203.882 121.683 203.882 114.216C203.882 106.749 198.281 101.148 188.947 101.148C181.48 101.148 169.035 104.26 151.611 110.482Z" stroke="currentColor" stroke-width="7.46719" stroke-linecap="round" stroke-linejoin="round"/>
<path d="M202.123 120.881L212.887 106.6C214.321 104.539 215.082 102.037 215.082 99.2817C215.082 91.8146 209.482 86.2142 200.148 86.2142C192.681 86.2142 180.236 89.3255 162.812 95.5481L151.611 110.483M215.082 84.3474L226.283 69.413C211.349 58.2122 196.414 52.6118 188.947 52.6118C181.331 52.6118 179.173 54.3405 176.182 58.3802L165.157 72.2356" stroke="currentColor" stroke-width="7.46719" stroke-linecap="round" stroke-linejoin="round"/>
<path d="M171.833 92.4196C166.195 90.6424 162.812 86.8976 162.812 80.614C162.812 71.28 168.413 67.5464 177.747 67.5464C184.049 67.5464 196.74 71.5339 208.355 79.5088C210.613 81.1001 212.856 82.713 215.083 84.3476L206.488 87.2784" stroke="currentColor" stroke-width="7.46719" stroke-linecap="round" stroke-linejoin="round"/>
<g clip-path="url(#clip1_151535_665)">
<path d="M855.834 88.9092V113.554H908.207C922.052 113.554 928.975 119.495 928.975 129.3C928.975 140.45 922.052 144.662 908.207 144.662H855.834V169.848H906.671C917.631 169.848 923.59 172.923 924.552 186.766C925.279 196.222 925.189 200.902 925.102 205.392C925.073 206.837 925.045 208.262 925.045 209.818H957.367C957.367 202.67 957.367 196.122 956.281 182.151C954.935 168.117 947.628 161.005 935.129 158.506C949.934 156.582 960.895 145.047 960.895 127.359C960.895 103.712 945.319 88.9092 913.976 88.9092H855.834ZM855.834 191.044V209.818H896.957V197.803C896.957 195.277 895.718 191.044 890.009 191.044H855.834Z" fill="currentColor"/>
</g>
<g clip-path="url(#clip2_151535_665)">
<path d="M280.358 709.52L280.982 707.337C280.574 707.22 280.143 707.22 279.735 707.337L280.358 709.52ZM248.519 718.617L247.896 716.434C247.38 716.581 246.932 716.906 246.633 717.351C246.333 717.796 246.2 718.333 246.258 718.867L248.519 718.617ZM253.068 759.553L250.807 759.803C250.849 760.181 250.984 760.541 251.201 760.853C251.418 761.164 251.709 761.416 252.049 761.586L253.068 759.553ZM280.358 773.199L279.34 775.232C279.656 775.39 280.005 775.473 280.358 775.473C280.712 775.473 281.061 775.39 281.377 775.232L280.358 773.199ZM307.649 759.553L308.668 761.586C309.008 761.416 309.299 761.164 309.516 760.853C309.733 760.541 309.868 760.181 309.91 759.803L307.649 759.553ZM312.198 718.617L314.458 718.867C314.518 718.333 314.386 717.795 314.086 717.348C313.786 716.902 313.338 716.576 312.821 716.429L312.198 718.617ZM280.358 720.891L282.442 719.981L280.358 715.219L278.275 719.981L280.358 720.891ZM279.735 707.337L247.896 716.434L249.142 720.8L280.982 711.703L279.735 707.337ZM246.258 718.862L250.807 759.799L255.328 759.298L250.78 718.362L246.258 718.862ZM252.049 761.586L279.34 775.232L281.377 771.161L254.086 757.515L252.049 761.586ZM281.377 775.232L308.668 761.586L306.631 757.515L279.34 771.161L281.377 775.232ZM309.91 759.799L314.458 718.862L309.937 718.362L305.389 759.298L309.91 759.799ZM312.821 716.424L280.982 707.327L279.735 711.703L311.575 720.8L312.821 716.424ZM266.522 758.189L282.442 721.801L278.275 719.981L262.356 756.369L266.522 758.189ZM278.275 721.801L294.195 758.189L298.361 756.369L282.442 719.981L278.275 721.801ZM268.987 748.182H291.73V743.633H268.987V748.182Z" fill="currentColor"/>
</g>
<circle cx="533" cy="420" r="80" stroke="currentColor" stroke-width="4" stroke-linecap="round"/>
<ellipse cx="887.206" cy="580" rx="241.206" ry="240" stroke="currentColor" stroke-width="4" stroke-linecap="round"/>
<circle cx="502.5" cy="637.5" r="88.5" stroke="currentColor" stroke-width="4" stroke-linecap="round"/>
<ellipse cx="523.724" cy="146" rx="144.724" ry="144" stroke="currentColor" stroke-width="4" stroke-linecap="round"/>
<circle cx="280" cy="741" r="79" stroke="currentColor" stroke-width="4" stroke-linecap="round"/>
<circle cx="909" cy="150" r="140" stroke="currentColor" stroke-width="4" stroke-linecap="round"/>
<circle cx="189.5" cy="90.5" r="88.5" stroke="currentColor" stroke-width="4" stroke-linecap="round"/>
<g clip-path="url(#clip3_151535_665)">
<path d="M254.895 400.027C249.443 398.31 246.628 398.888 240.911 398.262C232.072 397.297 228.551 393.837 227.057 384.932C226.221 379.961 227.208 372.683 225.074 368.177C220.992 359.583 211.442 355.73 201.848 357.929C193.747 359.79 187.007 367.899 186.633 376.223C186.207 385.726 191.613 393.837 200.896 396.636C205.307 397.967 209.993 398.637 214.599 398.977C223.047 399.594 223.696 404.298 225.98 408.17C227.421 410.61 228.817 413.015 228.817 420.294C228.817 427.572 227.412 429.976 225.981 432.416C223.696 436.279 220.877 438.81 212.429 439.435C207.823 439.776 203.127 440.446 198.727 441.778C189.443 444.585 184.037 452.685 184.463 462.19C184.837 470.514 191.577 478.623 199.678 480.483C209.272 482.691 218.822 478.829 222.904 470.236C225.047 465.73 226.221 460.624 227.057 455.655C228.56 446.749 232.081 443.289 240.911 442.322C246.628 441.697 252.546 442.322 257.904 439.275C263.565 435.132 268.624 428.911 268.624 420.294C268.624 411.674 263.173 402.638 254.895 400.027ZM164.208 440.492C153.066 440.492 143.977 431.372 143.977 420.19C143.977 409.009 153.065 399.89 164.206 399.89C175.348 399.89 184.438 409.01 184.438 420.19C184.438 431.362 175.34 440.492 164.206 440.492H164.208ZM126.94 481.749C115.813 481.722 106.753 472.566 106.78 461.375C106.807 450.204 115.931 441.111 127.082 441.147C138.214 441.174 147.276 450.329 147.241 461.519C147.214 472.681 138.089 481.775 126.94 481.749ZM277.256 481.749C266.097 481.81 256.938 472.753 256.874 461.6C256.813 450.401 265.838 441.21 276.953 441.147C288.112 441.084 297.272 450.141 297.335 461.294C297.396 472.484 288.371 481.686 277.256 481.749Z" fill="currentColor"/>
</g>
<ellipse cx="203.5" cy="420.492" rx="201.5" ry="200.492" stroke="currentColor" stroke-width="4" stroke-linecap="round"/>
<path d="M295.352 934.131L290.84 933.006L291.543 930.744L295.891 932.619L295.527 927.615H297.895L297.484 932.689L301.797 930.85L302.512 933.146L297.93 934.225L301.012 938.021L299.078 939.439L296.594 935.115L294.121 939.311L292.176 937.963L295.352 934.131ZM327.557 940.283C327.557 939.885 327.475 939.533 327.311 939.229C327.147 938.924 326.916 938.65 326.619 938.408C326.307 938.182 325.936 937.979 325.506 937.799C325.084 937.611 324.611 937.443 324.088 937.295C323.283 937.068 322.541 936.791 321.861 936.463C321.19 936.127 320.615 935.752 320.139 935.338C319.662 934.916 319.287 934.439 319.014 933.908C318.748 933.369 318.615 932.764 318.615 932.092C318.615 931.365 318.772 930.713 319.084 930.135C319.397 929.549 319.818 929.049 320.35 928.635C320.881 928.229 321.498 927.92 322.201 927.709C322.912 927.49 323.658 927.381 324.44 927.381C325.268 927.381 326.037 927.51 326.748 927.768C327.467 928.018 328.092 928.369 328.623 928.822C329.154 929.283 329.572 929.834 329.877 930.475C330.19 931.107 330.346 931.811 330.346 932.584H327.557C327.518 932.154 327.424 931.764 327.275 931.412C327.135 931.053 326.936 930.744 326.678 930.486C326.412 930.236 326.088 930.041 325.705 929.9C325.33 929.752 324.897 929.678 324.404 929.678C323.975 929.678 323.576 929.736 323.209 929.854C322.85 929.963 322.537 930.119 322.272 930.322C322.006 930.533 321.799 930.787 321.65 931.084C321.502 931.381 321.428 931.713 321.428 932.08C321.436 932.471 321.537 932.814 321.733 933.111C321.928 933.4 322.19 933.654 322.518 933.873C322.854 934.092 323.236 934.283 323.666 934.447C324.104 934.611 324.561 934.764 325.037 934.904C325.639 935.076 326.225 935.291 326.795 935.549C327.373 935.799 327.904 936.104 328.389 936.463C328.99 936.916 329.471 937.459 329.83 938.092C330.197 938.717 330.381 939.439 330.381 940.26C330.381 941.018 330.221 941.686 329.9 942.264C329.588 942.842 329.166 943.322 328.635 943.705C328.096 944.104 327.471 944.404 326.76 944.607C326.049 944.803 325.299 944.9 324.51 944.9C323.674 944.9 322.85 944.771 322.037 944.514C321.225 944.248 320.518 943.865 319.916 943.365C319.361 942.896 318.92 942.346 318.592 941.713C318.272 941.08 318.108 940.354 318.1 939.533H320.912C320.951 940.057 321.061 940.514 321.24 940.904C321.428 941.287 321.682 941.604 322.002 941.854C322.315 942.111 322.682 942.303 323.104 942.428C323.533 942.553 324.002 942.615 324.51 942.615C324.94 942.615 325.338 942.564 325.705 942.463C326.08 942.361 326.404 942.209 326.678 942.006C326.943 941.811 327.154 941.568 327.311 941.279C327.475 940.99 327.557 940.658 327.557 940.283ZM338.21 942.662C338.562 942.662 338.898 942.611 339.218 942.51C339.546 942.4 339.835 942.248 340.085 942.053C340.327 941.857 340.519 941.627 340.659 941.361C340.808 941.096 340.882 940.803 340.882 940.482H343.519C343.527 941.1 343.386 941.682 343.097 942.229C342.816 942.768 342.433 943.232 341.948 943.623C341.456 944.029 340.89 944.35 340.249 944.584C339.616 944.811 338.948 944.924 338.245 944.924C337.269 944.924 336.413 944.756 335.679 944.42C334.952 944.076 334.347 943.615 333.862 943.037C333.37 942.459 332.999 941.787 332.749 941.021C332.499 940.248 332.374 939.424 332.374 938.549V938.139C332.374 937.271 332.495 936.451 332.737 935.678C332.987 934.904 333.359 934.229 333.851 933.65C334.343 933.072 334.952 932.615 335.679 932.279C336.413 931.936 337.265 931.764 338.234 931.764C338.999 931.764 339.706 931.881 340.355 932.115C341.011 932.35 341.573 932.678 342.042 933.1C342.511 933.521 342.874 934.025 343.132 934.611C343.398 935.197 343.527 935.842 343.519 936.545H340.882C340.882 936.201 340.816 935.877 340.683 935.572C340.558 935.268 340.378 935.002 340.144 934.775C339.902 934.549 339.612 934.369 339.277 934.236C338.948 934.104 338.593 934.037 338.21 934.037C337.624 934.037 337.136 934.158 336.745 934.4C336.362 934.635 336.058 934.943 335.831 935.326C335.589 935.709 335.417 936.146 335.316 936.639C335.222 937.131 335.175 937.631 335.175 938.139V938.549C335.175 939.064 335.222 939.572 335.316 940.072C335.417 940.564 335.585 940.998 335.819 941.373C336.046 941.764 336.355 942.076 336.745 942.311C337.136 942.545 337.624 942.662 338.21 942.662ZM354.746 944.678C354.66 944.521 354.59 944.334 354.535 944.115C354.488 943.889 354.446 943.654 354.406 943.412C354.211 943.615 353.988 943.811 353.738 943.998C353.496 944.178 353.223 944.334 352.918 944.467C352.613 944.607 352.285 944.717 351.934 944.795C351.582 944.873 351.203 944.912 350.797 944.912C350.141 944.912 349.539 944.818 348.992 944.631C348.453 944.436 347.992 944.17 347.61 943.834C347.219 943.506 346.914 943.111 346.696 942.65C346.485 942.182 346.379 941.678 346.379 941.139C346.379 940.443 346.516 939.83 346.789 939.299C347.071 938.76 347.477 938.314 348.008 937.963C348.5 937.635 349.106 937.385 349.824 937.213C350.551 937.041 351.371 936.955 352.285 936.955H354.324V936.1C354.324 935.771 354.266 935.475 354.149 935.209C354.039 934.943 353.879 934.713 353.668 934.518C353.442 934.322 353.164 934.174 352.836 934.072C352.516 933.963 352.145 933.908 351.723 933.908C351.34 933.908 351.004 933.955 350.715 934.049C350.434 934.143 350.199 934.271 350.012 934.436C349.824 934.584 349.684 934.768 349.59 934.986C349.504 935.197 349.461 935.424 349.461 935.666H346.649C346.656 935.158 346.778 934.67 347.012 934.201C347.246 933.732 347.59 933.318 348.043 932.959C348.481 932.592 349.02 932.303 349.66 932.092C350.309 931.873 351.047 931.764 351.875 931.764C352.617 931.764 353.309 931.857 353.949 932.045C354.598 932.225 355.156 932.494 355.625 932.854C356.094 933.213 356.461 933.67 356.727 934.225C356.992 934.771 357.125 935.404 357.125 936.123V941.76C357.125 942.33 357.164 942.846 357.242 943.307C357.328 943.76 357.449 944.15 357.606 944.479V944.678H354.746ZM351.336 942.662C351.703 942.662 352.043 942.615 352.356 942.521C352.676 942.428 352.965 942.307 353.223 942.158C353.481 942.01 353.703 941.842 353.891 941.654C354.078 941.467 354.223 941.271 354.324 941.068V938.725H352.52C351.91 938.725 351.383 938.783 350.938 938.9C350.492 939.01 350.137 939.17 349.871 939.381C349.637 939.561 349.461 939.775 349.344 940.025C349.235 940.275 349.18 940.557 349.18 940.869C349.18 941.127 349.227 941.369 349.321 941.596C349.414 941.814 349.551 942.002 349.731 942.158C349.91 942.314 350.133 942.439 350.399 942.533C350.664 942.619 350.977 942.662 351.336 942.662ZM361.146 926.678H367.978V942.357H371.822V944.678H361.146V942.357H365.154V929.01H361.146V926.678ZM380.483 944.912C379.545 944.912 378.686 944.756 377.905 944.443C377.131 944.131 376.467 943.697 375.912 943.143C375.358 942.596 374.928 941.951 374.623 941.209C374.326 940.459 374.178 939.65 374.178 938.783V938.303C374.178 937.311 374.334 936.412 374.647 935.607C374.959 934.803 375.389 934.115 375.936 933.545C376.483 932.975 377.116 932.537 377.834 932.232C378.561 931.92 379.334 931.764 380.155 931.764C381.069 931.764 381.877 931.92 382.58 932.232C383.284 932.537 383.873 932.963 384.35 933.51C384.826 934.064 385.186 934.725 385.428 935.49C385.67 936.256 385.791 937.092 385.791 937.998V939.205H377.002V939.264C377.088 939.818 377.221 940.283 377.401 940.658C377.58 941.033 377.826 941.369 378.139 941.666C378.451 941.979 378.819 942.221 379.241 942.393C379.67 942.564 380.139 942.65 380.647 942.65C381.342 942.65 381.991 942.518 382.592 942.252C383.194 941.979 383.69 941.592 384.08 941.092L385.58 942.545C385.159 943.154 384.51 943.701 383.635 944.186C382.768 944.67 381.717 944.912 380.483 944.912ZM380.143 934.037C379.744 934.037 379.373 934.111 379.03 934.26C378.694 934.4 378.393 934.604 378.127 934.869C377.862 935.143 377.639 935.471 377.459 935.854C377.28 936.236 377.147 936.67 377.061 937.154H383.026V936.967C383.026 936.6 382.959 936.236 382.826 935.877C382.694 935.51 382.506 935.189 382.264 934.916C382.03 934.65 381.733 934.439 381.373 934.283C381.022 934.119 380.612 934.037 380.143 934.037ZM404.075 931.998L404.157 933.393C404.399 932.885 404.731 932.486 405.153 932.197C405.582 931.908 406.098 931.764 406.7 931.764C407.012 931.764 407.293 931.799 407.543 931.869C407.793 931.939 408.008 932.049 408.188 932.197C408.329 932.307 408.454 932.439 408.563 932.596C408.672 932.744 408.766 932.916 408.844 933.111C408.954 932.932 409.079 932.764 409.219 932.607C409.36 932.451 409.512 932.318 409.676 932.209C409.887 932.068 410.122 931.959 410.379 931.881C410.645 931.803 410.934 931.764 411.247 931.764C411.653 931.764 412.024 931.834 412.36 931.975C412.704 932.107 413 932.314 413.25 932.596C413.5 932.893 413.692 933.279 413.825 933.756C413.965 934.225 414.036 934.791 414.036 935.455V944.678H411.457V935.432C411.457 935.182 411.43 934.971 411.375 934.799C411.321 934.619 411.243 934.475 411.141 934.365C411.039 934.264 410.914 934.189 410.766 934.143C410.625 934.096 410.469 934.072 410.297 934.072C410.118 934.072 409.961 934.096 409.829 934.143C409.696 934.189 409.579 934.256 409.477 934.342C409.383 934.42 409.305 934.514 409.243 934.623C409.18 934.725 409.133 934.842 409.102 934.975C409.102 935.006 409.102 935.045 409.102 935.092C409.102 935.131 409.102 935.189 409.102 935.268V944.678H406.571V935.42C406.571 935.17 406.543 934.959 406.489 934.787C406.442 934.607 406.368 934.467 406.266 934.365C406.164 934.264 406.043 934.189 405.903 934.143C405.77 934.096 405.618 934.072 405.446 934.072C405.258 934.072 405.09 934.1 404.942 934.154C404.801 934.201 404.68 934.275 404.579 934.377C404.5 934.447 404.43 934.529 404.368 934.623C404.313 934.717 404.262 934.822 404.215 934.939V944.678H401.637V931.998H404.075ZM417.084 931.998H423.81V942.357H427.537V944.678H417.084V942.357H420.986V934.33H417.084V931.998ZM420.728 928.717C420.728 928.49 420.767 928.283 420.845 928.096C420.923 927.9 421.037 927.732 421.185 927.592C421.326 927.459 421.494 927.357 421.689 927.287C421.892 927.209 422.119 927.17 422.369 927.17C422.791 927.17 423.13 927.279 423.388 927.498C423.654 927.709 423.806 927.982 423.845 928.318C423.9 928.662 423.841 928.963 423.669 929.221C423.498 929.471 423.248 929.639 422.919 929.725C422.755 929.873 422.56 929.971 422.334 930.018C422.107 930.064 421.857 930.045 421.584 929.959C421.302 929.873 421.087 929.721 420.939 929.502C420.798 929.275 420.728 929.014 420.728 928.717ZM430.034 938.244C430.034 937.283 430.151 936.408 430.385 935.619C430.62 934.822 430.96 934.139 431.405 933.568C431.85 932.998 432.385 932.557 433.01 932.244C433.643 931.924 434.354 931.764 435.143 931.764C435.612 931.764 436.038 931.814 436.42 931.916C436.803 932.01 437.151 932.15 437.463 932.338C437.667 932.455 437.858 932.596 438.038 932.76C438.217 932.916 438.385 933.088 438.542 933.275L438.659 931.998H441.202V944.326C441.202 945.178 441.061 945.932 440.78 946.588C440.506 947.252 440.12 947.814 439.62 948.275C439.112 948.729 438.503 949.072 437.792 949.307C437.088 949.549 436.311 949.67 435.46 949.67C435.1 949.67 434.706 949.631 434.276 949.553C433.846 949.475 433.417 949.354 432.987 949.189C432.557 949.025 432.147 948.811 431.756 948.545C431.366 948.279 431.03 947.959 430.749 947.584L432.073 945.885C432.299 946.158 432.542 946.393 432.799 946.588C433.065 946.791 433.335 946.955 433.608 947.08C433.881 947.205 434.159 947.295 434.44 947.35C434.721 947.412 435.006 947.443 435.295 947.443C435.795 947.443 436.237 947.373 436.62 947.232C437.01 947.092 437.342 946.889 437.616 946.623C437.866 946.365 438.057 946.049 438.19 945.674C438.331 945.299 438.401 944.873 438.401 944.396V943.518C438.237 943.689 438.065 943.85 437.885 943.998C437.713 944.146 437.526 944.275 437.323 944.385C437.018 944.557 436.682 944.686 436.315 944.771C435.948 944.865 435.549 944.912 435.12 944.912C434.338 944.912 433.635 944.752 433.01 944.432C432.385 944.104 431.85 943.65 431.405 943.072C430.967 942.502 430.628 941.826 430.385 941.045C430.151 940.256 430.034 939.404 430.034 938.49V938.244ZM432.846 938.49C432.846 939.053 432.901 939.584 433.01 940.084C433.128 940.584 433.311 941.018 433.561 941.385C433.803 941.768 434.112 942.068 434.487 942.287C434.862 942.498 435.307 942.604 435.823 942.604C436.143 942.604 436.432 942.568 436.69 942.498C436.956 942.428 437.194 942.33 437.405 942.205C437.616 942.072 437.803 941.912 437.967 941.725C438.131 941.537 438.276 941.33 438.401 941.104V935.549C438.276 935.314 438.124 935.104 437.944 934.916C437.772 934.729 437.573 934.568 437.346 934.436C437.143 934.326 436.917 934.24 436.667 934.178C436.417 934.107 436.143 934.072 435.846 934.072C435.323 934.072 434.874 934.182 434.499 934.4C434.124 934.619 433.815 934.92 433.573 935.303C433.323 935.686 433.139 936.131 433.022 936.639C432.905 937.139 432.846 937.674 432.846 938.244V938.49ZM447.156 933.803C447.32 933.553 447.504 933.322 447.707 933.111C447.91 932.9 448.125 932.717 448.351 932.561C448.703 932.303 449.089 932.107 449.511 931.975C449.941 931.834 450.394 931.764 450.871 931.764C451.535 931.764 452.14 931.861 452.687 932.057C453.242 932.252 453.714 932.557 454.105 932.971C454.496 933.385 454.796 933.916 455.007 934.564C455.226 935.205 455.336 935.975 455.336 936.873V944.678H452.535V936.85C452.535 936.381 452.476 935.971 452.359 935.619C452.25 935.268 452.086 934.982 451.867 934.764C451.64 934.529 451.363 934.357 451.035 934.248C450.714 934.131 450.343 934.072 449.921 934.072C449.593 934.072 449.281 934.111 448.984 934.189C448.695 934.268 448.429 934.381 448.187 934.529C447.984 934.646 447.793 934.787 447.613 934.951C447.441 935.115 447.289 935.299 447.156 935.502V944.678H444.355V926.678H447.156V933.803ZM463.938 928.904V931.998H468.708V934.096H463.938V940.154C463.938 940.623 463.993 941.018 464.102 941.338C464.219 941.65 464.38 941.896 464.583 942.076C464.786 942.264 465.028 942.396 465.309 942.475C465.59 942.553 465.899 942.592 466.235 942.592C466.477 942.592 466.727 942.58 466.985 942.557C467.243 942.533 467.493 942.502 467.735 942.463C467.969 942.432 468.188 942.396 468.391 942.357C468.602 942.311 468.778 942.271 468.919 942.24L469.223 944.174C469.02 944.299 468.774 944.408 468.485 944.502C468.204 944.588 467.899 944.662 467.571 944.725C467.243 944.787 466.899 944.834 466.54 944.865C466.188 944.904 465.837 944.924 465.485 944.924C464.844 944.924 464.255 944.838 463.715 944.666C463.184 944.486 462.727 944.209 462.344 943.834C461.962 943.467 461.661 942.994 461.442 942.416C461.231 941.838 461.126 941.143 461.126 940.33V934.096H458.055V931.998H461.126V928.904H463.938ZM485.714 938.221C485.714 937.299 485.846 936.447 486.112 935.666C486.378 934.877 486.764 934.193 487.272 933.615C487.772 933.037 488.386 932.584 489.112 932.256C489.839 931.928 490.667 931.764 491.596 931.764C492.526 931.764 493.354 931.928 494.081 932.256C494.815 932.584 495.436 933.037 495.944 933.615C496.444 934.193 496.827 934.877 497.093 935.666C497.358 936.447 497.491 937.299 497.491 938.221V938.467C497.491 939.396 497.358 940.252 497.093 941.033C496.827 941.814 496.444 942.494 495.944 943.072C495.444 943.65 494.827 944.104 494.093 944.432C493.366 944.76 492.542 944.924 491.62 944.924C490.69 944.924 489.858 944.76 489.124 944.432C488.389 944.104 487.772 943.65 487.272 943.072C486.764 942.494 486.378 941.814 486.112 941.033C485.846 940.252 485.714 939.396 485.714 938.467V938.221ZM488.514 938.467C488.514 939.037 488.573 939.576 488.69 940.084C488.815 940.592 489.007 941.037 489.264 941.42C489.514 941.803 489.835 942.107 490.225 942.334C490.616 942.553 491.081 942.662 491.62 942.662C492.143 942.662 492.6 942.553 492.991 942.334C493.382 942.107 493.702 941.803 493.952 941.42C494.202 941.037 494.386 940.592 494.503 940.084C494.628 939.576 494.69 939.037 494.69 938.467V938.221C494.69 937.666 494.628 937.135 494.503 936.627C494.378 936.119 494.194 935.674 493.952 935.291C493.694 934.908 493.37 934.604 492.979 934.377C492.596 934.15 492.136 934.037 491.596 934.037C491.065 934.037 490.604 934.15 490.214 934.377C489.831 934.604 489.514 934.908 489.264 935.291C489.007 935.674 488.815 936.119 488.69 936.627C488.573 937.135 488.514 937.666 488.514 938.221V938.467ZM508.953 931.764C509.406 931.764 509.844 931.795 510.265 931.857C510.695 931.92 511.031 931.994 511.273 932.08L510.875 934.846C510.445 934.752 510.019 934.682 509.598 934.635C509.183 934.588 508.769 934.564 508.355 934.564C507.887 934.564 507.465 934.611 507.09 934.705C506.715 934.799 506.383 934.943 506.094 935.139C505.781 935.326 505.515 935.564 505.297 935.854C505.078 936.143 504.894 936.475 504.746 936.85V944.678H501.945V931.998H504.57L504.687 933.756L504.699 934.049C505.215 933.338 505.832 932.779 506.551 932.373C507.277 931.967 508.078 931.764 508.953 931.764ZM529.697 931.998L529.779 933.393C530.021 932.885 530.353 932.486 530.775 932.197C531.205 931.908 531.721 931.764 532.322 931.764C532.635 931.764 532.916 931.799 533.166 931.869C533.416 931.939 533.631 932.049 533.811 932.197C533.951 932.307 534.076 932.439 534.186 932.596C534.295 932.744 534.389 932.916 534.467 933.111C534.576 932.932 534.701 932.764 534.842 932.607C534.982 932.451 535.135 932.318 535.299 932.209C535.51 932.068 535.744 931.959 536.002 931.881C536.268 931.803 536.557 931.764 536.869 931.764C537.275 931.764 537.646 931.834 537.982 931.975C538.326 932.107 538.623 932.314 538.873 932.596C539.123 932.893 539.314 933.279 539.447 933.756C539.588 934.225 539.658 934.791 539.658 935.455V944.678H537.08V935.432C537.08 935.182 537.053 934.971 536.998 934.799C536.943 934.619 536.865 934.475 536.764 934.365C536.662 934.264 536.537 934.189 536.389 934.143C536.248 934.096 536.092 934.072 535.92 934.072C535.74 934.072 535.584 934.096 535.451 934.143C535.318 934.189 535.201 934.256 535.1 934.342C535.006 934.42 534.928 934.514 534.865 934.623C534.803 934.725 534.756 934.842 534.725 934.975C534.725 935.006 534.725 935.045 534.725 935.092C534.725 935.131 534.725 935.189 534.725 935.268V944.678H532.193V935.42C532.193 935.17 532.166 934.959 532.111 934.787C532.064 934.607 531.99 934.467 531.889 934.365C531.787 934.264 531.666 934.189 531.525 934.143C531.393 934.096 531.24 934.072 531.068 934.072C530.881 934.072 530.713 934.1 530.564 934.154C530.424 934.201 530.303 934.275 530.201 934.377C530.123 934.447 530.053 934.529 529.99 934.623C529.936 934.717 529.885 934.822 529.838 934.939V944.678H527.26V931.998H529.697ZM542.706 931.998H549.433V942.357H553.159V944.678H542.706V942.357H546.608V934.33H542.706V931.998ZM546.351 928.717C546.351 928.49 546.39 928.283 546.468 928.096C546.546 927.9 546.659 927.732 546.808 927.592C546.948 927.459 547.116 927.357 547.312 927.287C547.515 927.209 547.741 927.17 547.991 927.17C548.413 927.17 548.753 927.279 549.011 927.498C549.276 927.709 549.429 927.982 549.468 928.318C549.522 928.662 549.464 928.963 549.292 929.221C549.12 929.471 548.87 929.639 548.542 929.725C548.378 929.873 548.183 929.971 547.956 930.018C547.73 930.064 547.48 930.045 547.206 929.959C546.925 929.873 546.71 929.721 546.562 929.502C546.421 929.275 546.351 929.014 546.351 928.717ZM555.656 938.244C555.656 937.283 555.773 936.408 556.008 935.619C556.242 934.822 556.582 934.139 557.027 933.568C557.473 932.998 558.008 932.557 558.633 932.244C559.266 931.924 559.977 931.764 560.766 931.764C561.234 931.764 561.66 931.814 562.043 931.916C562.426 932.01 562.773 932.15 563.086 932.338C563.289 932.455 563.481 932.596 563.66 932.76C563.84 932.916 564.008 933.088 564.164 933.275L564.281 931.998H566.824V944.326C566.824 945.178 566.684 945.932 566.402 946.588C566.129 947.252 565.742 947.814 565.242 948.275C564.734 948.729 564.125 949.072 563.414 949.307C562.711 949.549 561.934 949.67 561.082 949.67C560.723 949.67 560.328 949.631 559.898 949.553C559.469 949.475 559.039 949.354 558.609 949.189C558.18 949.025 557.77 948.811 557.379 948.545C556.988 948.279 556.652 947.959 556.371 947.584L557.695 945.885C557.922 946.158 558.164 946.393 558.422 946.588C558.688 946.791 558.957 946.955 559.231 947.08C559.504 947.205 559.781 947.295 560.063 947.35C560.344 947.412 560.629 947.443 560.918 947.443C561.418 947.443 561.859 947.373 562.242 947.232C562.633 947.092 562.965 946.889 563.238 946.623C563.488 946.365 563.68 946.049 563.813 945.674C563.953 945.299 564.023 944.873 564.023 944.396V943.518C563.859 943.689 563.688 943.85 563.508 943.998C563.336 944.146 563.148 944.275 562.945 944.385C562.641 944.557 562.305 944.686 561.938 944.771C561.57 944.865 561.172 944.912 560.742 944.912C559.961 944.912 559.258 944.752 558.633 944.432C558.008 944.104 557.473 943.65 557.027 943.072C556.59 942.502 556.25 941.826 556.008 941.045C555.773 940.256 555.656 939.404 555.656 938.49V938.244ZM558.469 938.49C558.469 939.053 558.523 939.584 558.633 940.084C558.75 940.584 558.934 941.018 559.184 941.385C559.426 941.768 559.734 942.068 560.109 942.287C560.484 942.498 560.93 942.604 561.445 942.604C561.766 942.604 562.055 942.568 562.313 942.498C562.578 942.428 562.816 942.33 563.027 942.205C563.238 942.072 563.426 941.912 563.59 941.725C563.754 941.537 563.898 941.33 564.023 941.104V935.549C563.898 935.314 563.746 935.104 563.566 934.916C563.395 934.729 563.195 934.568 562.969 934.436C562.766 934.326 562.539 934.24 562.289 934.178C562.039 934.107 561.766 934.072 561.469 934.072C560.945 934.072 560.496 934.182 560.121 934.4C559.746 934.619 559.438 934.92 559.195 935.303C558.945 935.686 558.762 936.131 558.645 936.639C558.527 937.139 558.469 937.674 558.469 938.244V938.49ZM572.778 933.803C572.943 933.553 573.126 933.322 573.329 933.111C573.532 932.9 573.747 932.717 573.974 932.561C574.325 932.303 574.712 932.107 575.134 931.975C575.564 931.834 576.017 931.764 576.493 931.764C577.157 931.764 577.763 931.861 578.31 932.057C578.864 932.252 579.337 932.557 579.728 932.971C580.118 933.385 580.419 933.916 580.63 934.564C580.849 935.205 580.958 935.975 580.958 936.873V944.678H578.157V936.85C578.157 936.381 578.099 935.971 577.982 935.619C577.872 935.268 577.708 934.982 577.489 934.764C577.263 934.529 576.985 934.357 576.657 934.248C576.337 934.131 575.966 934.072 575.544 934.072C575.216 934.072 574.903 934.111 574.607 934.189C574.318 934.268 574.052 934.381 573.81 934.529C573.607 934.646 573.415 934.787 573.235 934.951C573.064 935.115 572.911 935.299 572.778 935.502V944.678H569.978V926.678H572.778V933.803ZM589.561 928.904V931.998H594.33V934.096H589.561V940.154C589.561 940.623 589.615 941.018 589.725 941.338C589.842 941.65 590.002 941.896 590.205 942.076C590.408 942.264 590.651 942.396 590.932 942.475C591.213 942.553 591.522 942.592 591.858 942.592C592.1 942.592 592.35 942.58 592.608 942.557C592.865 942.533 593.115 942.502 593.358 942.463C593.592 942.432 593.811 942.396 594.014 942.357C594.225 942.311 594.401 942.271 594.541 942.24L594.846 944.174C594.643 944.299 594.397 944.408 594.108 944.502C593.826 944.588 593.522 944.662 593.194 944.725C592.865 944.787 592.522 944.834 592.162 944.865C591.811 944.904 591.459 944.924 591.108 944.924C590.467 944.924 589.877 944.838 589.338 944.666C588.807 944.486 588.35 944.209 587.967 943.834C587.584 943.467 587.283 942.994 587.065 942.416C586.854 941.838 586.748 941.143 586.748 940.33V934.096H583.678V931.998H586.748V928.904H589.561ZM611.852 944.678V931.998H614.383L614.559 933.803C614.731 933.561 614.918 933.338 615.121 933.135C615.332 932.924 615.555 932.736 615.789 932.572C616.164 932.314 616.574 932.115 617.02 931.975C617.465 931.834 617.934 931.764 618.426 931.764C619.074 931.764 619.668 931.857 620.207 932.045C620.746 932.232 621.207 932.529 621.59 932.936C621.973 933.342 622.27 933.861 622.481 934.494C622.692 935.119 622.797 935.877 622.797 936.768V944.678H619.996V936.814C619.996 936.291 619.938 935.854 619.821 935.502C619.703 935.15 619.532 934.869 619.305 934.658C619.078 934.447 618.805 934.299 618.485 934.213C618.164 934.119 617.797 934.072 617.383 934.072C617.039 934.072 616.719 934.119 616.422 934.213C616.125 934.299 615.856 934.424 615.614 934.588C615.426 934.713 615.25 934.865 615.086 935.045C614.922 935.225 614.778 935.42 614.653 935.631V944.678H611.852ZM625.294 938.221C625.294 937.299 625.427 936.447 625.693 935.666C625.958 934.877 626.345 934.193 626.853 933.615C627.353 933.037 627.966 932.584 628.693 932.256C629.419 931.928 630.247 931.764 631.177 931.764C632.107 931.764 632.935 931.928 633.661 932.256C634.396 932.584 635.017 933.037 635.525 933.615C636.025 934.193 636.408 934.877 636.673 935.666C636.939 936.447 637.072 937.299 637.072 938.221V938.467C637.072 939.396 636.939 940.252 636.673 941.033C636.408 941.814 636.025 942.494 635.525 943.072C635.025 943.65 634.408 944.104 633.673 944.432C632.947 944.76 632.122 944.924 631.201 944.924C630.271 944.924 629.439 944.76 628.704 944.432C627.97 944.104 627.353 943.65 626.853 943.072C626.345 942.494 625.958 941.814 625.693 941.033C625.427 940.252 625.294 939.396 625.294 938.467V938.221ZM628.095 938.467C628.095 939.037 628.154 939.576 628.271 940.084C628.396 940.592 628.587 941.037 628.845 941.42C629.095 941.803 629.415 942.107 629.806 942.334C630.197 942.553 630.661 942.662 631.201 942.662C631.724 942.662 632.181 942.553 632.572 942.334C632.962 942.107 633.283 941.803 633.533 941.42C633.783 941.037 633.966 940.592 634.083 940.084C634.208 939.576 634.271 939.037 634.271 938.467V938.221C634.271 937.666 634.208 937.135 634.083 936.627C633.958 936.119 633.775 935.674 633.533 935.291C633.275 934.908 632.951 934.604 632.56 934.377C632.177 934.15 631.716 934.037 631.177 934.037C630.646 934.037 630.185 934.15 629.794 934.377C629.411 934.604 629.095 934.908 628.845 935.291C628.587 935.674 628.396 936.119 628.271 936.627C628.154 937.135 628.095 937.666 628.095 938.221V938.467ZM645.393 928.904V931.998H650.163V934.096H645.393V940.154C645.393 940.623 645.448 941.018 645.557 941.338C645.674 941.65 645.834 941.896 646.038 942.076C646.241 942.264 646.483 942.396 646.764 942.475C647.045 942.553 647.354 942.592 647.69 942.592C647.932 942.592 648.182 942.58 648.44 942.557C648.698 942.533 648.948 942.502 649.19 942.463C649.424 942.432 649.643 942.396 649.846 942.357C650.057 942.311 650.233 942.271 650.373 942.24L650.678 944.174C650.475 944.299 650.229 944.408 649.94 944.502C649.659 944.588 649.354 944.662 649.026 944.725C648.698 944.787 648.354 944.834 647.995 944.865C647.643 944.904 647.291 944.924 646.94 944.924C646.299 944.924 645.709 944.838 645.17 944.666C644.639 944.486 644.182 944.209 643.799 943.834C643.416 943.467 643.116 942.994 642.897 942.416C642.686 941.838 642.58 941.143 642.58 940.33V934.096H639.51V931.998H642.58V928.904H645.393ZM676.45 931.764C676.903 931.764 677.34 931.795 677.762 931.857C678.192 931.92 678.528 931.994 678.77 932.08L678.372 934.846C677.942 934.752 677.516 934.682 677.094 934.635C676.68 934.588 676.266 934.564 675.852 934.564C675.383 934.564 674.961 934.611 674.586 934.705C674.211 934.799 673.879 934.943 673.59 935.139C673.278 935.326 673.012 935.564 672.793 935.854C672.575 936.143 672.391 936.475 672.243 936.85V944.678H669.442V931.998H672.067L672.184 933.756L672.196 934.049C672.711 933.338 673.329 932.779 674.047 932.373C674.774 931.967 675.575 931.764 676.45 931.764ZM687.56 944.912C686.623 944.912 685.763 944.756 684.982 944.443C684.209 944.131 683.544 943.697 682.99 943.143C682.435 942.596 682.005 941.951 681.701 941.209C681.404 940.459 681.255 939.65 681.255 938.783V938.303C681.255 937.311 681.412 936.412 681.724 935.607C682.037 934.803 682.466 934.115 683.013 933.545C683.56 932.975 684.193 932.537 684.912 932.232C685.638 931.92 686.412 931.764 687.232 931.764C688.146 931.764 688.955 931.92 689.658 932.232C690.361 932.537 690.951 932.963 691.427 933.51C691.904 934.064 692.263 934.725 692.505 935.49C692.748 936.256 692.869 937.092 692.869 937.998V939.205H684.08V939.264C684.166 939.818 684.298 940.283 684.478 940.658C684.658 941.033 684.904 941.369 685.216 941.666C685.529 941.979 685.896 942.221 686.318 942.393C686.748 942.564 687.216 942.65 687.724 942.65C688.419 942.65 689.068 942.518 689.669 942.252C690.271 941.979 690.767 941.592 691.158 941.092L692.658 942.545C692.236 943.154 691.587 943.701 690.712 944.186C689.845 944.67 688.794 944.912 687.56 944.912ZM687.22 934.037C686.822 934.037 686.451 934.111 686.107 934.26C685.771 934.4 685.47 934.604 685.205 934.869C684.939 935.143 684.716 935.471 684.537 935.854C684.357 936.236 684.224 936.67 684.138 937.154H690.103V936.967C690.103 936.6 690.037 936.236 689.904 935.877C689.771 935.51 689.584 935.189 689.341 934.916C689.107 934.65 688.81 934.439 688.451 934.283C688.099 934.119 687.689 934.037 687.22 934.037ZM698.788 944.678V934.096H695.389V931.998H698.788V931.225C698.788 930.396 698.913 929.67 699.163 929.045C699.421 928.412 699.784 927.881 700.253 927.451C700.721 927.029 701.284 926.709 701.94 926.49C702.604 926.271 703.346 926.162 704.167 926.162C704.456 926.162 704.737 926.178 705.01 926.209C705.292 926.232 705.565 926.264 705.831 926.303C706.049 926.334 706.272 926.373 706.499 926.42C706.725 926.459 706.956 926.502 707.19 926.549L706.967 928.787C706.655 928.701 706.299 928.627 705.901 928.564C705.51 928.502 705.065 928.471 704.565 928.471C704.042 928.471 703.589 928.533 703.206 928.658C702.831 928.783 702.522 928.967 702.28 929.209C702.053 929.436 701.881 929.717 701.764 930.053C701.655 930.389 701.6 930.779 701.6 931.225V931.998H706.299V934.096H701.6V944.678H698.788ZM710.097 926.678H716.929V942.357H720.773V944.678H710.097V942.357H714.105V929.01H710.097V926.678ZM729.434 944.912C728.497 944.912 727.637 944.756 726.856 944.443C726.083 944.131 725.419 943.697 724.864 943.143C724.309 942.596 723.88 941.951 723.575 941.209C723.278 940.459 723.13 939.65 723.13 938.783V938.303C723.13 937.311 723.286 936.412 723.598 935.607C723.911 934.803 724.341 934.115 724.887 933.545C725.434 932.975 726.067 932.537 726.786 932.232C727.512 931.92 728.286 931.764 729.106 931.764C730.02 931.764 730.829 931.92 731.532 932.232C732.235 932.537 732.825 932.963 733.302 933.51C733.778 934.064 734.137 934.725 734.38 935.49C734.622 936.256 734.743 937.092 734.743 937.998V939.205H725.954V939.264C726.04 939.818 726.173 940.283 726.352 940.658C726.532 941.033 726.778 941.369 727.091 941.666C727.403 941.979 727.77 942.221 728.192 942.393C728.622 942.564 729.091 942.65 729.598 942.65C730.294 942.65 730.942 942.518 731.544 942.252C732.145 941.979 732.641 941.592 733.032 941.092L734.532 942.545C734.11 943.154 733.462 943.701 732.587 944.186C731.719 944.67 730.669 944.912 729.434 944.912ZM729.094 934.037C728.696 934.037 728.325 934.111 727.981 934.26C727.645 934.4 727.344 934.604 727.079 934.869C726.813 935.143 726.591 935.471 726.411 935.854C726.231 936.236 726.098 936.67 726.012 937.154H731.977V936.967C731.977 936.6 731.911 936.236 731.778 935.877C731.645 935.51 731.458 935.189 731.216 934.916C730.981 934.65 730.684 934.439 730.325 934.283C729.973 934.119 729.563 934.037 729.094 934.037ZM742.994 942.662C743.345 942.662 743.681 942.611 744.002 942.51C744.33 942.4 744.619 942.248 744.869 942.053C745.111 941.857 745.303 941.627 745.443 941.361C745.592 941.096 745.666 940.803 745.666 940.482H748.303C748.31 941.1 748.17 941.682 747.881 942.229C747.599 942.768 747.217 943.232 746.732 943.623C746.24 944.029 745.674 944.35 745.033 944.584C744.4 944.811 743.732 944.924 743.029 944.924C742.053 944.924 741.197 944.756 740.463 944.42C739.736 944.076 739.131 943.615 738.646 943.037C738.154 942.459 737.783 941.787 737.533 941.021C737.283 940.248 737.158 939.424 737.158 938.549V938.139C737.158 937.271 737.279 936.451 737.521 935.678C737.771 934.904 738.142 934.229 738.635 933.65C739.127 933.072 739.736 932.615 740.463 932.279C741.197 931.936 742.049 931.764 743.017 931.764C743.783 931.764 744.49 931.881 745.138 932.115C745.795 932.35 746.357 932.678 746.826 933.1C747.295 933.521 747.658 934.025 747.916 934.611C748.181 935.197 748.31 935.842 748.303 936.545H745.666C745.666 936.201 745.599 935.877 745.467 935.572C745.342 935.268 745.162 935.002 744.928 934.775C744.685 934.549 744.396 934.369 744.06 934.236C743.732 934.104 743.377 934.037 742.994 934.037C742.408 934.037 741.92 934.158 741.529 934.4C741.146 934.635 740.842 934.943 740.615 935.326C740.373 935.709 740.201 936.146 740.099 936.639C740.006 937.131 739.959 937.631 739.959 938.139V938.549C739.959 939.064 740.006 939.572 740.099 940.072C740.201 940.564 740.369 940.998 740.603 941.373C740.83 941.764 741.138 942.076 741.529 942.311C741.92 942.545 742.408 942.662 742.994 942.662ZM757.057 928.904V931.998H761.827V934.096H757.057V940.154C757.057 940.623 757.112 941.018 757.222 941.338C757.339 941.65 757.499 941.896 757.702 942.076C757.905 942.264 758.147 942.396 758.429 942.475C758.71 942.553 759.018 942.592 759.354 942.592C759.597 942.592 759.847 942.58 760.104 942.557C760.362 942.533 760.612 942.502 760.854 942.463C761.089 942.432 761.307 942.396 761.511 942.357C761.722 942.311 761.897 942.271 762.038 942.24L762.343 944.174C762.139 944.299 761.893 944.408 761.604 944.502C761.323 944.588 761.018 944.662 760.69 944.725C760.362 944.787 760.018 944.834 759.659 944.865C759.307 944.904 758.956 944.924 758.604 944.924C757.964 944.924 757.374 944.838 756.835 944.666C756.304 944.486 755.847 944.209 755.464 943.834C755.081 943.467 754.78 942.994 754.561 942.416C754.35 941.838 754.245 941.143 754.245 940.33V934.096H751.175V931.998H754.245V928.904H757.057ZM787.657 944.678L787.493 942.908C787.063 943.541 786.54 944.037 785.923 944.396C785.306 944.748 784.614 944.924 783.849 944.924C783.192 944.924 782.591 944.822 782.044 944.619C781.505 944.408 781.04 944.084 780.649 943.646C780.267 943.209 779.97 942.65 779.759 941.971C779.548 941.283 779.442 940.463 779.442 939.51V931.998H782.243V939.533C782.243 940.119 782.286 940.611 782.372 941.01C782.458 941.4 782.595 941.713 782.782 941.947C782.97 942.189 783.208 942.361 783.497 942.463C783.786 942.564 784.126 942.615 784.517 942.615C784.923 942.615 785.286 942.572 785.606 942.486C785.927 942.393 786.208 942.268 786.45 942.111C786.653 941.971 786.833 941.807 786.989 941.619C787.145 941.424 787.278 941.209 787.388 940.975V931.998H790.2V944.678H787.657ZM801.592 941.244C801.592 941.025 801.541 940.83 801.439 940.658C801.346 940.486 801.186 940.322 800.959 940.166C800.717 940.025 800.4 939.893 800.01 939.768C799.619 939.643 799.131 939.525 798.545 939.416C797.811 939.268 797.139 939.084 796.529 938.865C795.928 938.646 795.408 938.381 794.971 938.068C794.541 937.771 794.205 937.42 793.963 937.014C793.721 936.607 793.6 936.135 793.6 935.596C793.6 935.08 793.721 934.592 793.963 934.131C794.213 933.662 794.568 933.252 795.029 932.9C795.482 932.549 796.029 932.271 796.67 932.068C797.318 931.865 798.037 931.764 798.826 931.764C799.67 931.764 800.428 931.869 801.1 932.08C801.772 932.283 802.342 932.564 802.811 932.924C803.272 933.283 803.627 933.709 803.877 934.201C804.127 934.693 804.252 935.225 804.252 935.795H801.451C801.451 935.561 801.4 935.338 801.299 935.127C801.205 934.908 801.064 934.713 800.877 934.541C800.658 934.338 800.377 934.178 800.033 934.061C799.689 933.936 799.287 933.873 798.826 933.873C798.404 933.873 798.033 933.92 797.713 934.014C797.4 934.1 797.143 934.221 796.939 934.377C796.736 934.518 796.584 934.686 796.482 934.881C796.381 935.068 796.33 935.268 796.33 935.479C796.33 935.697 796.373 935.896 796.459 936.076C796.545 936.248 796.697 936.4 796.916 936.533C797.119 936.674 797.4 936.803 797.76 936.92C798.127 937.037 798.588 937.143 799.143 937.236C799.916 937.377 800.623 937.549 801.264 937.752C801.904 937.955 802.451 938.205 802.904 938.502C803.357 938.814 803.709 939.182 803.959 939.604C804.209 940.025 804.334 940.525 804.334 941.104C804.334 941.666 804.201 942.182 803.936 942.65C803.678 943.119 803.311 943.521 802.834 943.857C802.35 944.193 801.772 944.455 801.1 944.643C800.428 944.83 799.682 944.924 798.861 944.924C797.947 944.924 797.135 944.803 796.424 944.561C795.721 944.318 795.131 943.998 794.654 943.6C794.17 943.209 793.803 942.76 793.553 942.252C793.303 941.744 793.178 941.229 793.178 940.705H795.897C795.92 941.096 796.022 941.428 796.201 941.701C796.389 941.967 796.623 942.182 796.904 942.346C797.178 942.518 797.49 942.643 797.842 942.721C798.193 942.791 798.549 942.826 798.908 942.826C799.393 942.826 799.814 942.775 800.174 942.674C800.541 942.572 800.834 942.436 801.053 942.264C801.232 942.123 801.365 941.971 801.451 941.807C801.545 941.635 801.592 941.447 801.592 941.244ZM815.362 944.678C815.276 944.521 815.206 944.334 815.151 944.115C815.105 943.889 815.062 943.654 815.023 943.412C814.827 943.615 814.605 943.811 814.355 943.998C814.112 944.178 813.839 944.334 813.534 944.467C813.23 944.607 812.901 944.717 812.55 944.795C812.198 944.873 811.819 944.912 811.413 944.912C810.757 944.912 810.155 944.818 809.608 944.631C809.069 944.436 808.608 944.17 808.226 943.834C807.835 943.506 807.53 943.111 807.312 942.65C807.101 942.182 806.995 941.678 806.995 941.139C806.995 940.443 807.132 939.83 807.405 939.299C807.687 938.76 808.093 938.314 808.624 937.963C809.116 937.635 809.722 937.385 810.44 937.213C811.167 937.041 811.987 936.955 812.901 936.955H814.94V936.1C814.94 935.771 814.882 935.475 814.765 935.209C814.655 934.943 814.495 934.713 814.284 934.518C814.058 934.322 813.78 934.174 813.452 934.072C813.132 933.963 812.761 933.908 812.339 933.908C811.956 933.908 811.62 933.955 811.331 934.049C811.05 934.143 810.815 934.271 810.628 934.436C810.44 934.584 810.3 934.768 810.206 934.986C810.12 935.197 810.077 935.424 810.077 935.666H807.265C807.273 935.158 807.394 934.67 807.628 934.201C807.862 933.732 808.206 933.318 808.659 932.959C809.097 932.592 809.636 932.303 810.276 932.092C810.925 931.873 811.663 931.764 812.491 931.764C813.233 931.764 813.925 931.857 814.565 932.045C815.214 932.225 815.773 932.494 816.241 932.854C816.71 933.213 817.077 933.67 817.343 934.225C817.608 934.771 817.741 935.404 817.741 936.123V941.76C817.741 942.33 817.78 942.846 817.858 943.307C817.944 943.76 818.065 944.15 818.222 944.479V944.678H815.362ZM811.952 942.662C812.319 942.662 812.659 942.615 812.972 942.521C813.292 942.428 813.581 942.307 813.839 942.158C814.097 942.01 814.319 941.842 814.507 941.654C814.694 941.467 814.839 941.271 814.94 941.068V938.725H813.136C812.526 938.725 811.999 938.783 811.554 938.9C811.108 939.01 810.753 939.17 810.487 939.381C810.253 939.561 810.077 939.775 809.96 940.025C809.851 940.275 809.796 940.557 809.796 940.869C809.796 941.127 809.843 941.369 809.937 941.596C810.03 941.814 810.167 942.002 810.347 942.158C810.526 942.314 810.749 942.439 811.015 942.533C811.28 942.619 811.593 942.662 811.952 942.662ZM820.859 938.244C820.859 937.283 820.977 936.408 821.211 935.619C821.445 934.822 821.785 934.139 822.231 933.568C822.676 932.998 823.211 932.557 823.836 932.244C824.469 931.924 825.18 931.764 825.969 931.764C826.438 931.764 826.863 931.814 827.246 931.916C827.629 932.01 827.977 932.15 828.289 932.338C828.492 932.455 828.684 932.596 828.863 932.76C829.043 932.916 829.211 933.088 829.367 933.275L829.484 931.998H832.027V944.326C832.027 945.178 831.887 945.932 831.606 946.588C831.332 947.252 830.945 947.814 830.445 948.275C829.938 948.729 829.328 949.072 828.617 949.307C827.914 949.549 827.137 949.67 826.285 949.67C825.926 949.67 825.531 949.631 825.102 949.553C824.672 949.475 824.242 949.354 823.813 949.189C823.383 949.025 822.973 948.811 822.582 948.545C822.192 948.279 821.856 947.959 821.574 947.584L822.899 945.885C823.125 946.158 823.367 946.393 823.625 946.588C823.891 946.791 824.16 946.955 824.434 947.08C824.707 947.205 824.984 947.295 825.266 947.35C825.547 947.412 825.832 947.443 826.121 947.443C826.621 947.443 827.063 947.373 827.445 947.232C827.836 947.092 828.168 946.889 828.442 946.623C828.692 946.365 828.883 946.049 829.016 945.674C829.156 945.299 829.227 944.873 829.227 944.396V943.518C829.063 943.689 828.891 943.85 828.711 943.998C828.539 944.146 828.352 944.275 828.149 944.385C827.844 944.557 827.508 944.686 827.141 944.771C826.774 944.865 826.375 944.912 825.945 944.912C825.164 944.912 824.461 944.752 823.836 944.432C823.211 944.104 822.676 943.65 822.231 943.072C821.793 942.502 821.453 941.826 821.211 941.045C820.977 940.256 820.859 939.404 820.859 938.49V938.244ZM823.672 938.49C823.672 939.053 823.727 939.584 823.836 940.084C823.953 940.584 824.137 941.018 824.387 941.385C824.629 941.768 824.938 942.068 825.313 942.287C825.688 942.498 826.133 942.604 826.649 942.604C826.969 942.604 827.258 942.568 827.516 942.498C827.781 942.428 828.02 942.33 828.231 942.205C828.442 942.072 828.629 941.912 828.793 941.725C828.957 941.537 829.102 941.33 829.227 941.104V935.549C829.102 935.314 828.949 935.104 828.77 934.916C828.598 934.729 828.399 934.568 828.172 934.436C827.969 934.326 827.742 934.24 827.492 934.178C827.242 934.107 826.969 934.072 826.672 934.072C826.149 934.072 825.699 934.182 825.324 934.4C824.949 934.619 824.641 934.92 824.399 935.303C824.149 935.686 823.965 936.131 823.848 936.639C823.731 937.139 823.672 937.674 823.672 938.244V938.49ZM841.099 944.912C840.161 944.912 839.302 944.756 838.521 944.443C837.747 944.131 837.083 943.697 836.529 943.143C835.974 942.596 835.544 941.951 835.239 941.209C834.943 940.459 834.794 939.65 834.794 938.783V938.303C834.794 937.311 834.95 936.412 835.263 935.607C835.575 934.803 836.005 934.115 836.552 933.545C837.099 932.975 837.732 932.537 838.45 932.232C839.177 931.92 839.95 931.764 840.771 931.764C841.685 931.764 842.493 931.92 843.196 932.232C843.9 932.537 844.489 932.963 844.966 933.51C845.443 934.064 845.802 934.725 846.044 935.49C846.286 936.256 846.407 937.092 846.407 937.998V939.205H837.618V939.264C837.704 939.818 837.837 940.283 838.017 940.658C838.196 941.033 838.443 941.369 838.755 941.666C839.068 941.979 839.435 942.221 839.857 942.393C840.286 942.564 840.755 942.65 841.263 942.65C841.958 942.65 842.607 942.518 843.208 942.252C843.81 941.979 844.306 941.592 844.696 941.092L846.196 942.545C845.775 943.154 845.126 943.701 844.251 944.186C843.384 944.67 842.333 944.912 841.099 944.912ZM840.759 934.037C840.361 934.037 839.989 934.111 839.646 934.26C839.31 934.4 839.009 934.604 838.743 934.869C838.478 935.143 838.255 935.471 838.075 935.854C837.896 936.236 837.763 936.67 837.677 937.154H843.642V936.967C843.642 936.6 843.575 936.236 843.443 935.877C843.31 935.51 843.122 935.189 842.88 934.916C842.646 934.65 842.349 934.439 841.989 934.283C841.638 934.119 841.228 934.037 840.759 934.037Z" fill="currentColor"/>
<defs>
<clipPath id="clip0_151535_665">
<rect width="63.3333" height="63.3333" fill="white" transform="translate(501 388)"/>
</clipPath>
<clipPath id="clip1_151535_665">
<rect width="120.909" height="120.909" fill="white" transform="translate(847.909 88.9092)"/>
</clipPath>
<clipPath id="clip2_151535_665">
<rect width="68.2273" height="68.2273" fill="white" transform="translate(246.245 707.245)"/>
</clipPath>
<clipPath id="clip3_151535_665">
<rect width="191.425" height="191.425" fill="white" transform="translate(106.78 324.78)"/>
</clipPath>
</defs>
</svg>
