<svg width="1115" height="957" viewBox="0 0 1115 957" fill="none" xmlns="http://www.w3.org/2000/svg">
<rect x="368" y="74.5371" width="224" height="880" rx="6" stroke="currentColor" stroke-width="4" stroke-linecap="round" stroke-dasharray="16 10"/>
<path d="M390.109 37.7129C389.979 39.0931 389.654 40.3496 389.133 41.4824C388.612 42.6022 387.928 43.5592 387.082 44.3535C386.223 45.1608 385.201 45.7858 384.016 46.2285C382.844 46.6582 381.542 46.873 380.109 46.873C378.938 46.873 377.857 46.7168 376.867 46.4043C375.891 46.0788 375.018 45.623 374.25 45.0371C373.508 44.4902 372.857 43.8327 372.297 43.0645C371.75 42.2832 371.288 41.4303 370.91 40.5059C370.533 39.5944 370.246 38.6048 370.051 37.5371C369.868 36.4694 369.777 35.3561 369.777 34.1973V30.3105C369.777 29.2038 369.868 28.1361 370.051 27.1074C370.233 26.0788 370.507 25.1087 370.871 24.1973C371.262 23.1816 371.763 22.2637 372.375 21.4434C373 20.61 373.716 19.9004 374.523 19.3145C375.292 18.7806 376.138 18.3639 377.062 18.0645C378 17.765 379.022 17.6152 380.129 17.6152C381.626 17.6152 382.961 17.8366 384.133 18.2793C385.318 18.722 386.327 19.347 387.16 20.1543C388.007 20.9746 388.671 21.9642 389.152 23.123C389.647 24.2819 389.966 25.571 390.109 26.9902H385.422C385.344 26.1439 385.181 25.3822 384.934 24.7051C384.699 24.015 384.374 23.429 383.957 22.9473C383.527 22.4655 383 22.1009 382.375 21.8535C381.75 21.5931 381.001 21.4629 380.129 21.4629C379.517 21.4629 378.964 21.5475 378.469 21.7168C377.987 21.8861 377.557 22.127 377.18 22.4395C376.659 22.8171 376.223 23.3118 375.871 23.9238C375.533 24.5228 375.253 25.1934 375.031 25.9355C374.862 26.5866 374.732 27.2832 374.641 28.0254C374.562 28.7546 374.523 29.5033 374.523 30.2715V34.1973C374.523 35.1478 374.576 36.0397 374.68 36.873C374.797 37.7064 374.973 38.4681 375.207 39.1582C375.389 39.7311 375.617 40.252 375.891 40.7207C376.177 41.1895 376.516 41.5931 376.906 41.9316C377.31 42.2962 377.772 42.5762 378.293 42.7715C378.827 42.9538 379.432 43.0449 380.109 43.0449C380.917 43.0449 381.633 42.9277 382.258 42.6934C382.883 42.459 383.417 42.1139 383.859 41.6582C384.289 41.2155 384.634 40.6621 384.895 39.998C385.155 39.334 385.324 38.5723 385.402 37.7129H390.109ZM393.839 46.4629V18.0254H400.87C402.094 18.0254 403.246 18.1686 404.327 18.4551C405.408 18.7285 406.391 19.1126 407.276 19.6074C408.24 20.1152 409.093 20.7533 409.835 21.5215C410.59 22.2897 411.222 23.1491 411.729 24.0996C412.25 25.0892 412.654 26.1764 412.94 27.3613C413.227 28.5462 413.37 29.8092 413.37 31.1504V33.377C413.37 34.666 413.233 35.89 412.96 37.0488C412.699 38.1947 412.322 39.2428 411.827 40.1934C411.345 41.1178 410.759 41.9577 410.069 42.7129C409.392 43.4681 408.637 44.1126 407.804 44.6465C406.866 45.2324 405.824 45.6816 404.679 45.9941C403.546 46.3066 402.328 46.4629 401.026 46.4629H393.839ZM398.585 21.8535V42.6543H401.026C401.86 42.6543 402.621 42.5566 403.311 42.3613C404.015 42.153 404.646 41.86 405.206 41.4824C405.779 41.0918 406.287 40.6035 406.729 40.0176C407.185 39.4186 407.556 38.735 407.843 37.9668C408.09 37.3158 408.279 36.6061 408.409 35.8379C408.539 35.0697 408.604 34.2493 408.604 33.377V31.1113C408.604 30.252 408.539 29.4382 408.409 28.6699C408.279 27.9017 408.09 27.1921 407.843 26.541C407.53 25.7467 407.113 25.0306 406.593 24.3926C406.072 23.7415 405.453 23.2142 404.737 22.8105C404.216 22.5111 403.63 22.2832 402.979 22.127C402.328 21.9577 401.625 21.8665 400.87 21.8535H398.585ZM435.556 46.4629H430.849L421.611 26.8926L421.592 46.4629H416.845V18.0254H421.611L430.791 37.5176L430.83 18.0254H435.556V46.4629Z" fill="currentColor"/>
<path fill-rule="evenodd" clip-rule="evenodd" d="M1007.5 514.643V477.643L981.071 451.215H954.643C951.839 451.215 949.15 452.329 947.168 454.311C945.185 456.294 944.071 458.983 944.071 461.786V514.643C944.071 517.447 945.185 520.136 947.168 522.119C949.15 524.101 951.839 525.215 954.643 525.215H996.928C999.732 525.215 1002.42 524.101 1004.4 522.119C1006.39 520.136 1007.5 517.447 1007.5 514.643Z" stroke="currentColor" stroke-width="5.28571" stroke-linecap="round" stroke-linejoin="round"/>
<path d="M981.071 451.215V467.072C981.071 469.876 982.185 472.565 984.168 474.547C986.15 476.53 988.839 477.643 991.643 477.643H1007.5M944.071 461.786C941.268 461.786 938.579 462.9 936.596 464.883C934.614 466.865 933.5 469.554 933.5 472.358V525.215C933.5 528.019 934.614 530.707 936.596 532.69C938.579 534.672 941.268 535.786 944.071 535.786H986.357C989.161 535.786 991.85 534.672 993.832 532.69C995.815 530.707 996.929 528.019 996.929 525.215" stroke="currentColor" stroke-width="5.28571" stroke-linecap="round" stroke-linejoin="round"/>
<rect x="830" y="382.537" width="282.308" height="262.143" rx="6" stroke="currentColor" stroke-width="4" stroke-linecap="round" stroke-dasharray="16 10"/>
<path d="M847.734 346.676C847.734 346.012 847.598 345.426 847.324 344.918C847.051 344.41 846.667 343.954 846.172 343.551C845.651 343.173 845.033 342.835 844.316 342.535C843.613 342.223 842.826 341.943 841.953 341.695C840.612 341.318 839.375 340.855 838.242 340.309C837.122 339.749 836.165 339.124 835.371 338.434C834.577 337.73 833.952 336.936 833.496 336.051C833.053 335.152 832.832 334.143 832.832 333.023C832.832 331.812 833.092 330.725 833.613 329.762C834.134 328.785 834.837 327.952 835.723 327.262C836.608 326.585 837.637 326.07 838.809 325.719C839.993 325.354 841.237 325.172 842.539 325.172C843.919 325.172 845.202 325.387 846.387 325.816C847.585 326.233 848.626 326.819 849.512 327.574C850.397 328.342 851.094 329.26 851.602 330.328C852.122 331.383 852.383 332.555 852.383 333.844H847.734C847.669 333.128 847.513 332.477 847.266 331.891C847.031 331.292 846.699 330.777 846.27 330.348C845.827 329.931 845.286 329.605 844.648 329.371C844.023 329.124 843.301 329 842.48 329C841.764 329 841.1 329.098 840.488 329.293C839.889 329.475 839.368 329.736 838.926 330.074C838.483 330.426 838.138 330.849 837.891 331.344C837.643 331.839 837.52 332.392 837.52 333.004C837.533 333.655 837.702 334.228 838.027 334.723C838.353 335.204 838.789 335.628 839.336 335.992C839.896 336.357 840.534 336.676 841.25 336.949C841.979 337.223 842.741 337.477 843.535 337.711C844.538 337.997 845.514 338.355 846.465 338.785C847.428 339.202 848.314 339.71 849.121 340.309C850.124 341.064 850.924 341.969 851.523 343.023C852.135 344.065 852.441 345.27 852.441 346.637C852.441 347.9 852.174 349.013 851.641 349.977C851.12 350.94 850.417 351.741 849.531 352.379C848.633 353.043 847.591 353.544 846.406 353.883C845.221 354.208 843.971 354.371 842.656 354.371C841.263 354.371 839.889 354.156 838.535 353.727C837.181 353.284 836.003 352.646 835 351.812C834.076 351.031 833.34 350.113 832.793 349.059C832.259 348.004 831.986 346.793 831.973 345.426H836.66C836.725 346.298 836.908 347.06 837.207 347.711C837.52 348.349 837.943 348.876 838.477 349.293C838.997 349.723 839.609 350.042 840.312 350.25C841.029 350.458 841.81 350.562 842.656 350.562C843.372 350.562 844.036 350.478 844.648 350.309C845.273 350.139 845.814 349.885 846.27 349.547C846.712 349.221 847.064 348.818 847.324 348.336C847.598 347.854 847.734 347.301 847.734 346.676ZM861.112 337.672H863.905C864.738 337.672 865.468 337.561 866.093 337.34C866.718 337.105 867.232 336.78 867.636 336.363C868.013 335.999 868.3 335.549 868.495 335.016C868.703 334.469 868.808 333.883 868.808 333.258C868.808 332.581 868.71 331.975 868.515 331.441C868.332 330.908 868.059 330.452 867.694 330.074C867.33 329.723 866.867 329.449 866.308 329.254C865.761 329.059 865.129 328.961 864.413 328.961C863.775 328.961 863.183 329.059 862.636 329.254C862.102 329.436 861.64 329.703 861.249 330.055C860.845 330.406 860.526 330.829 860.292 331.324C860.071 331.819 859.96 332.372 859.96 332.984H855.292C855.292 331.852 855.52 330.81 855.975 329.859C856.431 328.909 857.063 328.082 857.87 327.379C858.677 326.689 859.628 326.148 860.722 325.758C861.828 325.367 863.039 325.172 864.354 325.172C865.696 325.172 866.926 325.348 868.046 325.699C869.179 326.038 870.142 326.546 870.936 327.223C871.744 327.913 872.369 328.759 872.811 329.762C873.254 330.764 873.475 331.93 873.475 333.258C873.475 333.844 873.384 334.43 873.202 335.016C873.033 335.602 872.772 336.168 872.421 336.715C872.069 337.249 871.627 337.75 871.093 338.219C870.559 338.688 869.934 339.085 869.218 339.41C870.064 339.697 870.78 340.074 871.366 340.543C871.965 340.999 872.453 341.513 872.831 342.086C873.209 342.672 873.482 343.303 873.651 343.98C873.821 344.645 873.905 345.335 873.905 346.051C873.905 347.379 873.658 348.564 873.163 349.605C872.681 350.634 872.017 351.5 871.171 352.203C870.311 352.919 869.296 353.466 868.124 353.844C866.965 354.208 865.709 354.391 864.354 354.391C863.13 354.391 861.952 354.221 860.819 353.883C859.686 353.544 858.69 353.036 857.831 352.359C856.972 351.682 856.281 350.849 855.761 349.859C855.253 348.857 854.999 347.691 854.999 346.363H859.667C859.667 346.988 859.778 347.568 859.999 348.102C860.233 348.622 860.565 349.065 860.995 349.43C861.412 349.807 861.906 350.1 862.479 350.309C863.065 350.517 863.71 350.621 864.413 350.621C865.168 350.621 865.845 350.523 866.444 350.328C867.056 350.12 867.571 349.814 867.987 349.41C868.391 349.033 868.697 348.564 868.905 348.004C869.127 347.431 869.237 346.78 869.237 346.051C869.237 345.23 869.113 344.527 868.866 343.941C868.619 343.355 868.261 342.867 867.792 342.477C867.323 342.099 866.757 341.819 866.093 341.637C865.442 341.441 864.712 341.344 863.905 341.344H861.112V337.672Z" fill="currentColor"/>
<rect x="1.5" y="428.5" width="127" height="174" rx="6.5" stroke="currentColor" stroke-width="3"/>
<path d="M53.2223 516H76.7779M65.0001 504.222V516M41.4446 463H88.5557C91.808 463 94.4446 465.637 94.4446 468.889V498.333C94.4446 501.586 91.808 504.222 88.5557 504.222H41.4446C38.1922 504.222 35.5557 501.586 35.5557 498.333V468.889C35.5557 465.637 38.1922 463 41.4446 463Z" stroke="currentColor" stroke-width="3" stroke-linecap="round" stroke-linejoin="round"/>
<path d="M36.1634 555.75C36.0853 556.578 35.89 557.332 35.5775 558.012C35.265 558.684 34.8548 559.258 34.347 559.734C33.8314 560.219 33.2181 560.594 32.5072 560.859C31.8041 561.117 31.0228 561.246 30.1634 561.246C29.4603 561.246 28.8119 561.152 28.2181 560.965C27.6322 560.77 27.1087 560.496 26.6478 560.145C26.2025 559.816 25.8119 559.422 25.4759 558.961C25.1478 558.492 24.8705 557.98 24.6439 557.426C24.4173 556.879 24.2455 556.285 24.1283 555.645C24.0189 555.004 23.9642 554.336 23.9642 553.641V551.309C23.9642 550.645 24.0189 550.004 24.1283 549.387C24.2377 548.77 24.4017 548.188 24.6205 547.641C24.8548 547.031 25.1556 546.48 25.5228 545.988C25.8978 545.488 26.3275 545.062 26.8119 544.711C27.2728 544.391 27.7806 544.141 28.3353 543.961C28.8978 543.781 29.5111 543.691 30.1752 543.691C31.0736 543.691 31.8744 543.824 32.5775 544.09C33.2884 544.355 33.8939 544.73 34.3939 545.215C34.9017 545.707 35.3002 546.301 35.5892 546.996C35.8861 547.691 36.0775 548.465 36.1634 549.316H33.3509C33.3041 548.809 33.2064 548.352 33.058 547.945C32.9173 547.531 32.722 547.18 32.472 546.891C32.2142 546.602 31.8978 546.383 31.5228 546.234C31.1478 546.078 30.6986 546 30.1752 546C29.808 546 29.4759 546.051 29.1791 546.152C28.89 546.254 28.6322 546.398 28.4056 546.586C28.0931 546.812 27.8314 547.109 27.6205 547.477C27.4173 547.836 27.2494 548.238 27.1166 548.684C27.015 549.074 26.9369 549.492 26.8822 549.938C26.8353 550.375 26.8119 550.824 26.8119 551.285V553.641C26.8119 554.211 26.8431 554.746 26.9056 555.246C26.9759 555.746 27.0814 556.203 27.222 556.617C27.3314 556.961 27.4681 557.273 27.6322 557.555C27.8041 557.836 28.0072 558.078 28.2416 558.281C28.4837 558.5 28.7611 558.668 29.0736 558.785C29.3939 558.895 29.7572 558.949 30.1634 558.949C30.6478 558.949 31.0775 558.879 31.4525 558.738C31.8275 558.598 32.1478 558.391 32.4134 558.117C32.6712 557.852 32.8783 557.52 33.0345 557.121C33.1908 556.723 33.2923 556.266 33.3392 555.75H36.1634ZM41.6723 558.68H49.8168V561H38.8481V543.938H41.6723V558.68ZM52.9819 543.938H63.0366V546.27H59.3921V558.68H63.0366V561H52.9819V558.68H56.5444V546.27H52.9819V543.938ZM76.5493 553.348H69.4947V558.68H77.7329V561H66.6704V543.938H77.6743V546.27H69.4947V551.074H76.5493V553.348ZM91.4918 561H88.6676L83.1246 549.258L83.1129 561H80.2652V543.938H83.1246L88.6324 555.633L88.6558 543.938H91.4918V561ZM106.54 546.27H101.278V561H98.4772V546.27H93.2506V543.938H106.54V546.27Z" fill="currentColor"/>
<path fill-rule="evenodd" clip-rule="evenodd" d="M467.389 505.594C467.04 508.62 466.869 511.649 466.869 514.5C466.869 517.351 467.04 520.38 467.389 523.406H491.611C491.96 520.38 492.131 517.351 492.131 514.5C492.131 511.649 491.96 508.62 491.611 505.594H467.389ZM461.415 505.594C461.088 508.646 460.931 511.667 460.931 514.5C460.931 517.333 461.088 520.354 461.415 523.406H448.082C447.262 520.515 446.844 517.518 446.844 514.5C446.844 511.482 447.262 508.485 448.082 505.594H461.415ZM468.313 499.656H490.687C490.149 496.952 489.457 494.353 488.606 492.001C487.411 488.696 485.97 486.067 484.36 484.312C482.792 482.602 481.195 481.844 479.5 481.844C477.805 481.844 476.208 482.602 474.64 484.312C473.03 486.067 471.589 488.696 470.394 492.001C469.543 494.353 468.851 496.952 468.313 499.656ZM467.488 484.133C466.444 485.927 465.558 487.912 464.81 489.982C463.727 492.978 462.886 496.274 462.269 499.656H450.412C451.964 496.615 453.986 493.831 456.409 491.409C459.441 488.376 463.041 485.971 467.003 484.33C467.164 484.263 467.326 484.197 467.488 484.133ZM443.308 501.097C443.478 500.639 443.657 500.183 443.844 499.731C445.784 495.048 448.626 490.794 452.21 487.21C455.794 483.626 460.048 480.784 464.731 478.844C469.413 476.905 474.432 475.906 479.5 475.906C484.568 475.906 489.587 476.905 494.269 478.844C498.952 480.784 503.206 483.626 506.79 487.21C510.374 490.794 513.216 495.048 515.156 499.731C515.343 500.183 515.522 500.639 515.692 501.097C515.894 501.433 516.031 501.811 516.087 502.216C517.414 506.17 518.094 510.318 518.094 514.5C518.094 518.682 517.414 522.83 516.087 526.784C516.031 527.189 515.894 527.567 515.692 527.903C515.522 528.361 515.343 528.817 515.156 529.269C513.216 533.952 510.374 538.206 506.79 541.79C503.206 545.374 498.952 548.216 494.269 550.156C489.587 552.095 484.568 553.094 479.5 553.094C474.432 553.094 469.413 552.095 464.731 550.156C460.048 548.216 455.794 545.374 452.21 541.79C448.626 538.206 445.784 533.952 443.844 529.269C443.657 528.817 443.478 528.361 443.308 527.903C443.106 527.567 442.969 527.189 442.913 526.784C441.586 522.83 440.906 518.682 440.906 514.5C440.906 510.318 441.586 506.17 442.913 502.216C442.969 501.811 443.106 501.433 443.308 501.097ZM450.412 529.344C451.964 532.385 453.986 535.169 456.409 537.591C459.441 540.624 463.041 543.029 467.003 544.67C467.164 544.737 467.326 544.803 467.488 544.867C466.444 543.073 465.558 541.088 464.81 539.018C463.727 536.022 462.886 532.726 462.269 529.344H450.412ZM468.313 529.344C468.851 532.048 469.543 534.647 470.394 536.999C471.589 540.304 473.03 542.933 474.64 544.688C476.208 546.398 477.805 547.156 479.5 547.156C481.195 547.156 482.792 546.398 484.36 544.688C485.97 542.933 487.411 540.304 488.606 536.999C489.457 534.647 490.149 532.048 490.687 529.344H468.313ZM496.731 529.344C496.114 532.726 495.273 536.022 494.19 539.018C493.442 541.088 492.556 543.073 491.512 544.867C491.674 544.803 491.836 544.737 491.997 544.67C495.959 543.029 499.559 540.624 502.591 537.591C505.014 535.169 507.036 532.385 508.588 529.344H496.731ZM510.918 523.406C511.738 520.515 512.156 517.518 512.156 514.5C512.156 511.482 511.738 508.485 510.918 505.594H497.585C497.912 508.646 498.069 511.667 498.069 514.5C498.069 517.333 497.912 520.354 497.585 523.406H510.918ZM496.731 499.656H508.588C507.036 496.615 505.014 493.831 502.591 491.409C499.559 488.376 495.959 485.971 491.997 484.33C491.836 484.263 491.674 484.197 491.512 484.133C492.556 485.927 493.442 487.912 494.19 489.982C495.273 492.978 496.114 496.274 496.731 499.656Z" fill="currentColor"/>
<path d="M136 512.537C134.895 512.537 134 513.433 134 514.537C134 515.642 134.895 516.537 136 516.537V512.537ZM360.914 515.951C361.695 515.17 361.695 513.904 360.914 513.123L348.186 500.395C347.405 499.614 346.139 499.614 345.358 500.395C344.577 501.176 344.577 502.442 345.358 503.223L356.672 514.537L345.358 525.851C344.577 526.632 344.577 527.898 345.358 528.679C346.139 529.46 347.405 529.46 348.186 528.679L360.914 515.951ZM136 514.537V516.537H359.5V514.537V512.537H136V514.537Z" fill="currentColor"/>
<path d="M600 511.608C598.895 511.608 598 512.504 598 513.608C598 514.713 598.895 515.608 600 515.608V511.608ZM822.914 515.023C823.695 514.242 823.695 512.975 822.914 512.194L810.186 499.466C809.405 498.685 808.139 498.685 807.358 499.466C806.577 500.247 806.577 501.514 807.358 502.295L818.672 513.608L807.358 524.922C806.577 525.703 806.577 526.969 807.358 527.751C808.139 528.532 809.405 528.532 810.186 527.751L822.914 515.023ZM600 513.608V515.608H821.5V513.608V511.608H600V513.608Z" fill="currentColor"/>
<path d="M911.622 577.283C911.622 576.885 911.54 576.533 911.376 576.229C911.212 575.924 910.982 575.65 910.685 575.408C910.372 575.182 910.001 574.979 909.572 574.799C909.15 574.611 908.677 574.443 908.154 574.295C907.349 574.068 906.607 573.791 905.927 573.463C905.255 573.127 904.681 572.752 904.204 572.338C903.728 571.916 903.353 571.439 903.079 570.908C902.814 570.369 902.681 569.764 902.681 569.092C902.681 568.365 902.837 567.713 903.15 567.135C903.462 566.549 903.884 566.049 904.415 565.635C904.947 565.229 905.564 564.92 906.267 564.709C906.978 564.49 907.724 564.381 908.505 564.381C909.333 564.381 910.103 564.51 910.814 564.768C911.532 565.018 912.157 565.369 912.689 565.822C913.22 566.283 913.638 566.834 913.943 567.475C914.255 568.107 914.411 568.811 914.411 569.584H911.622C911.583 569.154 911.49 568.764 911.341 568.412C911.2 568.053 911.001 567.744 910.743 567.486C910.478 567.236 910.154 567.041 909.771 566.9C909.396 566.752 908.962 566.678 908.47 566.678C908.04 566.678 907.642 566.736 907.275 566.854C906.915 566.963 906.603 567.119 906.337 567.322C906.072 567.533 905.865 567.787 905.716 568.084C905.568 568.381 905.493 568.713 905.493 569.08C905.501 569.471 905.603 569.814 905.798 570.111C905.993 570.4 906.255 570.654 906.583 570.873C906.919 571.092 907.302 571.283 907.732 571.447C908.169 571.611 908.626 571.764 909.103 571.904C909.704 572.076 910.29 572.291 910.861 572.549C911.439 572.799 911.97 573.104 912.454 573.463C913.056 573.916 913.536 574.459 913.896 575.092C914.263 575.717 914.447 576.439 914.447 577.26C914.447 578.018 914.286 578.686 913.966 579.264C913.654 579.842 913.232 580.322 912.7 580.705C912.161 581.104 911.536 581.404 910.825 581.607C910.115 581.803 909.365 581.9 908.575 581.9C907.74 581.9 906.915 581.771 906.103 581.514C905.29 581.248 904.583 580.865 903.982 580.365C903.427 579.896 902.986 579.346 902.657 578.713C902.337 578.08 902.173 577.354 902.165 576.533H904.978C905.017 577.057 905.126 577.514 905.306 577.904C905.493 578.287 905.747 578.604 906.068 578.854C906.38 579.111 906.747 579.303 907.169 579.428C907.599 579.553 908.068 579.615 908.575 579.615C909.005 579.615 909.404 579.564 909.771 579.463C910.146 579.361 910.47 579.209 910.743 579.006C911.009 578.811 911.22 578.568 911.376 578.279C911.54 577.99 911.622 577.658 911.622 577.283ZM919.709 575.174V581.678H916.897V564.615H922.604C923.463 564.623 924.252 564.752 924.971 565.002C925.698 565.252 926.323 565.607 926.846 566.068C927.369 566.529 927.776 567.088 928.065 567.744C928.354 568.4 928.498 569.139 928.498 569.959C928.498 570.748 928.354 571.463 928.065 572.104C927.776 572.736 927.369 573.279 926.846 573.732C926.323 574.193 925.698 574.549 924.971 574.799C924.252 575.049 923.463 575.174 922.604 575.174H919.709ZM919.709 572.877H922.604C923.08 572.869 923.506 572.795 923.881 572.654C924.264 572.506 924.588 572.303 924.854 572.045C925.119 571.787 925.319 571.482 925.451 571.131C925.592 570.779 925.662 570.396 925.662 569.982C925.662 569.529 925.592 569.119 925.451 568.752C925.319 568.377 925.119 568.053 924.854 567.779C924.588 567.506 924.264 567.295 923.881 567.146C923.506 566.998 923.08 566.92 922.604 566.912H919.709V572.877ZM938.929 577.752H933.574L932.413 581.678H929.484L935.038 564.615H937.535L942.995 581.678H940.078L938.929 577.752ZM934.288 575.338H938.238L936.281 568.588L934.288 575.338ZM966.845 577.752H961.49L960.33 581.678H957.4L962.955 564.615H965.451L970.912 581.678H967.994L966.845 577.752ZM962.205 575.338H966.154L964.197 568.588L962.205 575.338ZM981.413 577.283C981.413 576.885 981.331 576.533 981.167 576.229C981.002 575.924 980.772 575.65 980.475 575.408C980.163 575.182 979.792 574.979 979.362 574.799C978.94 574.611 978.467 574.443 977.944 574.295C977.139 574.068 976.397 573.791 975.717 573.463C975.045 573.127 974.471 572.752 973.995 572.338C973.518 571.916 973.143 571.439 972.87 570.908C972.604 570.369 972.471 569.764 972.471 569.092C972.471 568.365 972.627 567.713 972.94 567.135C973.252 566.549 973.674 566.049 974.206 565.635C974.737 565.229 975.354 564.92 976.057 564.709C976.768 564.49 977.514 564.381 978.295 564.381C979.124 564.381 979.893 564.51 980.604 564.768C981.323 565.018 981.948 565.369 982.479 565.822C983.01 566.283 983.428 566.834 983.733 567.475C984.045 568.107 984.202 568.811 984.202 569.584H981.413C981.374 569.154 981.28 568.764 981.131 568.412C980.991 568.053 980.792 567.744 980.534 567.486C980.268 567.236 979.944 567.041 979.561 566.9C979.186 566.752 978.752 566.678 978.26 566.678C977.831 566.678 977.432 566.736 977.065 566.854C976.706 566.963 976.393 567.119 976.127 567.322C975.862 567.533 975.655 567.787 975.506 568.084C975.358 568.381 975.284 568.713 975.284 569.08C975.292 569.471 975.393 569.814 975.588 570.111C975.784 570.4 976.045 570.654 976.374 570.873C976.71 571.092 977.092 571.283 977.522 571.447C977.96 571.611 978.417 571.764 978.893 571.904C979.495 572.076 980.081 572.291 980.651 572.549C981.229 572.799 981.76 573.104 982.245 573.463C982.846 573.916 983.327 574.459 983.686 575.092C984.053 575.717 984.237 576.439 984.237 577.26C984.237 578.018 984.077 578.686 983.756 579.264C983.444 579.842 983.022 580.322 982.491 580.705C981.952 581.104 981.327 581.404 980.616 581.607C979.905 581.803 979.155 581.9 978.366 581.9C977.53 581.9 976.706 581.771 975.893 581.514C975.081 581.248 974.374 580.865 973.772 580.365C973.217 579.896 972.776 579.346 972.448 578.713C972.127 578.08 971.963 577.354 971.956 576.533H974.768C974.807 577.057 974.917 577.514 975.096 577.904C975.284 578.287 975.538 578.604 975.858 578.854C976.17 579.111 976.538 579.303 976.96 579.428C977.389 579.553 977.858 579.615 978.366 579.615C978.795 579.615 979.194 579.564 979.561 579.463C979.936 579.361 980.26 579.209 980.534 579.006C980.799 578.811 981.01 578.568 981.167 578.279C981.331 577.99 981.413 577.658 981.413 577.283ZM995.371 577.283C995.371 576.885 995.289 576.533 995.125 576.229C994.961 575.924 994.73 575.65 994.433 575.408C994.121 575.182 993.75 574.979 993.32 574.799C992.898 574.611 992.425 574.443 991.902 574.295C991.097 574.068 990.355 573.791 989.675 573.463C989.004 573.127 988.429 572.752 987.953 572.338C987.476 571.916 987.101 571.439 986.828 570.908C986.562 570.369 986.429 569.764 986.429 569.092C986.429 568.365 986.586 567.713 986.898 567.135C987.211 566.549 987.632 566.049 988.164 565.635C988.695 565.229 989.312 564.92 990.015 564.709C990.726 564.49 991.472 564.381 992.254 564.381C993.082 564.381 993.851 564.51 994.562 564.768C995.281 565.018 995.906 565.369 996.437 565.822C996.968 566.283 997.386 566.834 997.691 567.475C998.004 568.107 998.16 568.811 998.16 569.584H995.371C995.332 569.154 995.238 568.764 995.089 568.412C994.949 568.053 994.75 567.744 994.492 567.486C994.226 567.236 993.902 567.041 993.519 566.9C993.144 566.752 992.711 566.678 992.218 566.678C991.789 566.678 991.39 566.736 991.023 566.854C990.664 566.963 990.351 567.119 990.086 567.322C989.82 567.533 989.613 567.787 989.464 568.084C989.316 568.381 989.242 568.713 989.242 569.08C989.25 569.471 989.351 569.814 989.546 570.111C989.742 570.4 990.004 570.654 990.332 570.873C990.668 571.092 991.05 571.283 991.48 571.447C991.918 571.611 992.375 571.764 992.851 571.904C993.453 572.076 994.039 572.291 994.609 572.549C995.187 572.799 995.718 573.104 996.203 573.463C996.804 573.916 997.285 574.459 997.644 575.092C998.011 575.717 998.195 576.439 998.195 577.26C998.195 578.018 998.035 578.686 997.714 579.264C997.402 579.842 996.98 580.322 996.449 580.705C995.91 581.104 995.285 581.404 994.574 581.607C993.863 581.803 993.113 581.9 992.324 581.9C991.488 581.9 990.664 581.771 989.851 581.514C989.039 581.248 988.332 580.865 987.73 580.365C987.175 579.896 986.734 579.346 986.406 578.713C986.086 578.08 985.921 577.354 985.914 576.533H988.726C988.765 577.057 988.875 577.514 989.054 577.904C989.242 578.287 989.496 578.604 989.816 578.854C990.129 579.111 990.496 579.303 990.918 579.428C991.347 579.553 991.816 579.615 992.324 579.615C992.754 579.615 993.152 579.564 993.519 579.463C993.894 579.361 994.218 579.209 994.492 579.006C994.757 578.811 994.968 578.568 995.125 578.279C995.289 577.99 995.371 577.658 995.371 577.283ZM1010.47 574.025H1003.41V579.357H1011.65V581.678H1000.59V564.615H1011.59V566.947H1003.41V571.752H1010.47V574.025ZM1026.5 566.947H1021.24V581.678H1018.44V566.947H1013.21V564.615H1026.5V566.947ZM1037.24 577.283C1037.24 576.885 1037.16 576.533 1037 576.229C1036.83 575.924 1036.6 575.65 1036.31 575.408C1035.99 575.182 1035.62 574.979 1035.19 574.799C1034.77 574.611 1034.3 574.443 1033.78 574.295C1032.97 574.068 1032.23 573.791 1031.55 573.463C1030.88 573.127 1030.3 572.752 1029.83 572.338C1029.35 571.916 1028.98 571.439 1028.7 570.908C1028.44 570.369 1028.3 569.764 1028.3 569.092C1028.3 568.365 1028.46 567.713 1028.77 567.135C1029.08 566.549 1029.51 566.049 1030.04 565.635C1030.57 565.229 1031.19 564.92 1031.89 564.709C1032.6 564.49 1033.35 564.381 1034.13 564.381C1034.96 564.381 1035.73 564.51 1036.44 564.768C1037.16 565.018 1037.78 565.369 1038.31 565.822C1038.84 566.283 1039.26 566.834 1039.57 567.475C1039.88 568.107 1040.03 568.811 1040.03 569.584H1037.24C1037.21 569.154 1037.11 568.764 1036.96 568.412C1036.82 568.053 1036.62 567.744 1036.37 567.486C1036.1 567.236 1035.78 567.041 1035.39 566.9C1035.02 566.752 1034.58 566.678 1034.09 566.678C1033.66 566.678 1033.26 566.736 1032.9 566.854C1032.54 566.963 1032.23 567.119 1031.96 567.322C1031.69 567.533 1031.49 567.787 1031.34 568.084C1031.19 568.381 1031.12 568.713 1031.12 569.08C1031.12 569.471 1031.23 569.814 1031.42 570.111C1031.62 570.4 1031.88 570.654 1032.21 570.873C1032.54 571.092 1032.92 571.283 1033.35 571.447C1033.79 571.611 1034.25 571.764 1034.73 571.904C1035.33 572.076 1035.91 572.291 1036.48 572.549C1037.06 572.799 1037.59 573.104 1038.08 573.463C1038.68 573.916 1039.16 574.459 1039.52 575.092C1039.89 575.717 1040.07 576.439 1040.07 577.26C1040.07 578.018 1039.91 578.686 1039.59 579.264C1039.28 579.842 1038.85 580.322 1038.32 580.705C1037.78 581.104 1037.16 581.404 1036.45 581.607C1035.74 581.803 1034.99 581.9 1034.2 581.9C1033.36 581.9 1032.54 581.771 1031.73 581.514C1030.91 581.248 1030.21 580.865 1029.6 580.365C1029.05 579.896 1028.61 579.346 1028.28 578.713C1027.96 578.08 1027.8 577.354 1027.79 576.533H1030.6C1030.64 577.057 1030.75 577.514 1030.93 577.904C1031.12 578.287 1031.37 578.604 1031.69 578.854C1032 579.111 1032.37 579.303 1032.79 579.428C1033.22 579.553 1033.69 579.615 1034.2 579.615C1034.63 579.615 1035.03 579.564 1035.39 579.463C1035.77 579.361 1036.09 579.209 1036.37 579.006C1036.63 578.811 1036.84 578.568 1037 578.279C1037.16 577.99 1037.24 577.658 1037.24 577.283Z" fill="currentColor"/>
</svg>
