<svg width="1186" height="1252" viewBox="0 0 1186 1252" fill="none" xmlns="http://www.w3.org/2000/svg">
<rect x="368" y="222.074" width="224" height="880" rx="6" stroke="currentColor" stroke-width="4" stroke-linecap="round" stroke-dasharray="16 10"/>
<path d="M390.109 185.25C389.979 186.63 389.654 187.887 389.133 189.02C388.612 190.139 387.928 191.096 387.082 191.891C386.223 192.698 385.201 193.323 384.016 193.766C382.844 194.195 381.542 194.41 380.109 194.41C378.938 194.41 377.857 194.254 376.867 193.941C375.891 193.616 375.018 193.16 374.25 192.574C373.508 192.027 372.857 191.37 372.297 190.602C371.75 189.82 371.288 188.967 370.91 188.043C370.533 187.132 370.246 186.142 370.051 185.074C369.868 184.007 369.777 182.893 369.777 181.734V177.848C369.777 176.741 369.868 175.673 370.051 174.645C370.233 173.616 370.507 172.646 370.871 171.734C371.262 170.719 371.763 169.801 372.375 168.98C373 168.147 373.716 167.438 374.523 166.852C375.292 166.318 376.138 165.901 377.062 165.602C378 165.302 379.022 165.152 380.129 165.152C381.626 165.152 382.961 165.374 384.133 165.816C385.318 166.259 386.327 166.884 387.16 167.691C388.007 168.512 388.671 169.501 389.152 170.66C389.647 171.819 389.966 173.108 390.109 174.527H385.422C385.344 173.681 385.181 172.919 384.934 172.242C384.699 171.552 384.374 170.966 383.957 170.484C383.527 170.003 383 169.638 382.375 169.391C381.75 169.13 381.001 169 380.129 169C379.517 169 378.964 169.085 378.469 169.254C377.987 169.423 377.557 169.664 377.18 169.977C376.659 170.354 376.223 170.849 375.871 171.461C375.533 172.06 375.253 172.73 375.031 173.473C374.862 174.124 374.732 174.82 374.641 175.562C374.562 176.292 374.523 177.04 374.523 177.809V181.734C374.523 182.685 374.576 183.577 374.68 184.41C374.797 185.243 374.973 186.005 375.207 186.695C375.389 187.268 375.617 187.789 375.891 188.258C376.177 188.727 376.516 189.13 376.906 189.469C377.31 189.833 377.772 190.113 378.293 190.309C378.827 190.491 379.432 190.582 380.109 190.582C380.917 190.582 381.633 190.465 382.258 190.23C382.883 189.996 383.417 189.651 383.859 189.195C384.289 188.753 384.634 188.199 384.895 187.535C385.155 186.871 385.324 186.109 385.402 185.25H390.109ZM393.839 194V165.562H400.87C402.094 165.562 403.246 165.706 404.327 165.992C405.408 166.266 406.391 166.65 407.276 167.145C408.24 167.652 409.093 168.29 409.835 169.059C410.59 169.827 411.222 170.686 411.729 171.637C412.25 172.626 412.654 173.714 412.94 174.898C413.227 176.083 413.37 177.346 413.37 178.688V180.914C413.37 182.203 413.233 183.427 412.96 184.586C412.699 185.732 412.322 186.78 411.827 187.73C411.345 188.655 410.759 189.495 410.069 190.25C409.392 191.005 408.637 191.65 407.804 192.184C406.866 192.77 405.824 193.219 404.679 193.531C403.546 193.844 402.328 194 401.026 194H393.839ZM398.585 169.391V190.191H401.026C401.86 190.191 402.621 190.094 403.311 189.898C404.015 189.69 404.646 189.397 405.206 189.02C405.779 188.629 406.287 188.141 406.729 187.555C407.185 186.956 407.556 186.272 407.843 185.504C408.09 184.853 408.279 184.143 408.409 183.375C408.539 182.607 408.604 181.786 408.604 180.914V178.648C408.604 177.789 408.539 176.975 408.409 176.207C408.279 175.439 408.09 174.729 407.843 174.078C407.53 173.284 407.113 172.568 406.593 171.93C406.072 171.279 405.453 170.751 404.737 170.348C404.216 170.048 403.63 169.82 402.979 169.664C402.328 169.495 401.625 169.404 400.87 169.391H398.585ZM435.556 194H430.849L421.611 174.43L421.592 194H416.845V165.562H421.611L430.791 185.055L430.83 165.562H435.556V194Z" fill="currentColor"/>
<path fill-rule="evenodd" clip-rule="evenodd" d="M1036.17 209.99V180.323L1014.98 159.133H993.787C991.539 159.133 989.383 160.026 987.793 161.615C986.204 163.205 985.311 165.361 985.311 167.609V209.99C985.311 212.238 986.204 214.394 987.793 215.984C989.383 217.573 991.539 218.466 993.787 218.466H1027.69C1029.94 218.466 1032.1 217.573 1033.69 215.984C1035.27 214.394 1036.17 212.238 1036.17 209.99Z" stroke="currentColor" stroke-width="4.2381" stroke-linecap="round" stroke-linejoin="round"/>
<path d="M1014.98 159.133V171.847C1014.98 174.095 1015.87 176.251 1017.46 177.841C1019.05 179.43 1021.21 180.323 1023.45 180.323H1036.17M985.31 167.609C983.062 167.609 980.906 168.502 979.317 170.092C977.727 171.681 976.834 173.837 976.834 176.085V218.466C976.834 220.714 977.727 222.87 979.317 224.46C980.906 226.049 983.062 226.942 985.31 226.942H1019.21C1021.46 226.942 1023.62 226.049 1025.21 224.46C1026.8 222.87 1027.69 220.714 1027.69 218.466" stroke="currentColor" stroke-width="4.2381" stroke-linecap="round" stroke-linejoin="round"/>
<rect x="830" y="73.5371" width="354" height="1176" rx="6" stroke="currentColor" stroke-width="4" stroke-linecap="round" stroke-dasharray="16 10"/>
<path d="M833.613 17.5625H850.371V21.4492H844.297V42.1328H850.371V46H833.613V42.1328H839.551V21.4492H833.613V17.5625ZM874.413 46H869.706L860.468 26.4297L860.448 46H855.702V17.5625H860.468L869.647 37.0547L869.686 17.5625H874.413V46ZM896.306 33.8906H884.275V46H879.549V17.5625H898.025V21.4492H884.275V30.0234H896.306V33.8906ZM911.891 34.9648H907.087V46H902.399V17.5625H911.423C912.894 17.5755 914.248 17.7643 915.485 18.1289C916.722 18.4935 917.79 19.0273 918.688 19.7305C919.574 20.4466 920.264 21.3385 920.758 22.4062C921.253 23.4609 921.501 24.6979 921.501 26.1172C921.501 27.0938 921.37 27.9792 921.11 28.7734C920.863 29.5677 920.511 30.2839 920.055 30.9219C919.6 31.5599 919.053 32.1198 918.415 32.6016C917.777 33.0833 917.067 33.5 916.286 33.8516L922.36 45.7461V46H917.34L911.891 34.9648ZM907.087 31.1367H911.481C912.314 31.1237 913.063 31 913.727 30.7656C914.404 30.5182 914.977 30.1667 915.446 29.7109C915.863 29.3203 916.188 28.8385 916.423 28.2656C916.657 27.6927 916.774 27.0417 916.774 26.3125C916.774 25.4922 916.644 24.776 916.383 24.1641C916.136 23.5391 915.765 23.0182 915.27 22.6016C914.814 22.2109 914.261 21.918 913.61 21.7227C912.959 21.5143 912.23 21.4036 911.423 21.3906H907.087V31.1367ZM939.293 39.457H930.367L928.433 46H923.55L932.808 17.5625H936.968L946.07 46H941.207L939.293 39.457ZM931.558 35.4336H938.14L934.878 24.1836L931.558 35.4336ZM963.452 38.6758C963.452 38.0117 963.315 37.4258 963.041 36.918C962.768 36.4102 962.384 35.9544 961.889 35.5508C961.368 35.1732 960.75 34.8346 960.034 34.5352C959.33 34.2227 958.543 33.9427 957.67 33.6953C956.329 33.3177 955.092 32.8555 953.959 32.3086C952.84 31.7487 951.883 31.1237 951.088 30.4336C950.294 29.7305 949.669 28.9362 949.213 28.0508C948.771 27.1523 948.549 26.1432 948.549 25.0234C948.549 23.8125 948.81 22.7253 949.33 21.7617C949.851 20.7852 950.554 19.9518 951.44 19.2617C952.325 18.5846 953.354 18.0703 954.526 17.7188C955.711 17.3542 956.954 17.1719 958.256 17.1719C959.636 17.1719 960.919 17.3867 962.104 17.8164C963.302 18.2331 964.343 18.819 965.229 19.5742C966.114 20.3424 966.811 21.2604 967.319 22.3281C967.84 23.3828 968.1 24.5547 968.1 25.8438H963.452C963.386 25.1276 963.23 24.4766 962.983 23.8906C962.748 23.2917 962.416 22.7773 961.987 22.3477C961.544 21.931 961.004 21.6055 960.366 21.3711C959.741 21.1237 959.018 21 958.198 21C957.482 21 956.817 21.0977 956.205 21.293C955.607 21.4753 955.086 21.7357 954.643 22.0742C954.2 22.4258 953.855 22.849 953.608 23.3438C953.36 23.8385 953.237 24.3919 953.237 25.0039C953.25 25.6549 953.419 26.2279 953.745 26.7227C954.07 27.2044 954.506 27.6276 955.053 27.9922C955.613 28.3568 956.251 28.6758 956.967 28.9492C957.696 29.2227 958.458 29.4766 959.252 29.7109C960.255 29.9974 961.232 30.3555 962.182 30.7852C963.146 31.2018 964.031 31.7096 964.838 32.3086C965.841 33.0638 966.642 33.9688 967.241 35.0234C967.853 36.0651 968.159 37.2695 968.159 38.6367C968.159 39.8997 967.892 41.013 967.358 41.9766C966.837 42.9401 966.134 43.7409 965.248 44.3789C964.35 45.043 963.308 45.5443 962.123 45.8828C960.939 46.2083 959.689 46.3711 958.373 46.3711C956.98 46.3711 955.607 46.1562 954.252 45.7266C952.898 45.2839 951.72 44.6458 950.717 43.8125C949.793 43.0312 949.057 42.1133 948.51 41.0586C947.976 40.0039 947.703 38.793 947.69 37.4258H952.377C952.442 38.2982 952.625 39.0599 952.924 39.7109C953.237 40.349 953.66 40.8763 954.194 41.293C954.715 41.7227 955.327 42.0417 956.03 42.25C956.746 42.4583 957.527 42.5625 958.373 42.5625C959.09 42.5625 959.754 42.4779 960.366 42.3086C960.991 42.1393 961.531 41.8854 961.987 41.5469C962.429 41.2214 962.781 40.8177 963.041 40.3359C963.315 39.8542 963.452 39.3008 963.452 38.6758ZM991.947 21.4492H983.177V46H978.509V21.4492H969.798V17.5625H991.947V21.4492ZM1004.46 34.9648H999.66V46H994.973V17.5625H1004C1005.47 17.5755 1006.82 17.7643 1008.06 18.1289C1009.3 18.4935 1010.36 19.0273 1011.26 19.7305C1012.15 20.4466 1012.84 21.3385 1013.33 22.4062C1013.83 23.4609 1014.07 24.6979 1014.07 26.1172C1014.07 27.0938 1013.94 27.9792 1013.68 28.7734C1013.44 29.5677 1013.08 30.2839 1012.63 30.9219C1012.17 31.5599 1011.63 32.1198 1010.99 32.6016C1010.35 33.0833 1009.64 33.5 1008.86 33.8516L1014.93 45.7461V46H1009.91L1004.46 34.9648ZM999.66 31.1367H1004.05C1004.89 31.1237 1005.64 31 1006.3 30.7656C1006.98 30.5182 1007.55 30.1667 1008.02 29.7109C1008.44 29.3203 1008.76 28.8385 1009 28.2656C1009.23 27.6927 1009.35 27.0417 1009.35 26.3125C1009.35 25.4922 1009.22 24.776 1008.96 24.1641C1008.71 23.5391 1008.34 23.0182 1007.84 22.6016C1007.39 22.2109 1006.83 21.918 1006.18 21.7227C1005.53 21.5143 1004.8 21.4036 1004 21.3906H999.66V31.1367ZM1036.55 17.5625L1036.57 36.5859C1036.57 38.0573 1036.35 39.3984 1035.89 40.6094C1035.45 41.8073 1034.82 42.8359 1034 43.6953C1033.16 44.5547 1032.16 45.2188 1030.99 45.6875C1029.83 46.1562 1028.53 46.3906 1027.08 46.3906C1025.66 46.3906 1024.38 46.1628 1023.23 45.707C1022.09 45.2383 1021.11 44.5742 1020.3 43.7148C1019.48 42.8555 1018.85 41.8203 1018.39 40.6094C1017.95 39.3984 1017.72 38.0573 1017.71 36.5859L1017.75 17.5625H1022.37L1022.41 36.5859C1022.43 37.4844 1022.54 38.3112 1022.75 39.0664C1022.95 39.8086 1023.26 40.4401 1023.66 40.9609C1024.05 41.4557 1024.53 41.8464 1025.09 42.1328C1025.66 42.4062 1026.33 42.543 1027.08 42.543C1027.85 42.543 1028.53 42.4062 1029.11 42.1328C1029.71 41.8464 1030.21 41.4427 1030.62 40.9219C1031.02 40.388 1031.33 39.7565 1031.53 39.0273C1031.74 38.2852 1031.86 37.4714 1031.89 36.5859L1031.92 17.5625H1036.55ZM1060.4 37.25C1060.27 38.6302 1059.94 39.8867 1059.42 41.0195C1058.9 42.1393 1058.22 43.0964 1057.37 43.8906C1056.51 44.6979 1055.49 45.3229 1054.31 45.7656C1053.13 46.1953 1051.83 46.4102 1050.4 46.4102C1049.23 46.4102 1048.15 46.2539 1047.16 45.9414C1046.18 45.6159 1045.31 45.1602 1044.54 44.5742C1043.8 44.0273 1043.15 43.3698 1042.59 42.6016C1042.04 41.8203 1041.58 40.9674 1041.2 40.043C1040.82 39.1315 1040.54 38.1419 1040.34 37.0742C1040.16 36.0065 1040.07 34.8932 1040.07 33.7344V29.8477C1040.07 28.7409 1040.16 27.6732 1040.34 26.6445C1040.52 25.6159 1040.8 24.6458 1041.16 23.7344C1041.55 22.7188 1042.05 21.8008 1042.67 20.9805C1043.29 20.1471 1044.01 19.4375 1044.81 18.8516C1045.58 18.3177 1046.43 17.901 1047.35 17.6016C1048.29 17.3021 1049.31 17.1523 1050.42 17.1523C1051.92 17.1523 1053.25 17.3737 1054.42 17.8164C1055.61 18.2591 1056.62 18.8841 1057.45 19.6914C1058.3 20.5117 1058.96 21.5013 1059.44 22.6602C1059.94 23.819 1060.26 25.1081 1060.4 26.5273H1055.71C1055.63 25.681 1055.47 24.9193 1055.22 24.2422C1054.99 23.5521 1054.66 22.9661 1054.25 22.4844C1053.82 22.0026 1053.29 21.638 1052.67 21.3906C1052.04 21.1302 1051.29 21 1050.42 21C1049.81 21 1049.25 21.0846 1048.76 21.2539C1048.28 21.4232 1047.85 21.6641 1047.47 21.9766C1046.95 22.3542 1046.51 22.849 1046.16 23.4609C1045.82 24.0599 1045.54 24.7305 1045.32 25.4727C1045.15 26.1237 1045.02 26.8203 1044.93 27.5625C1044.85 28.2917 1044.81 29.0404 1044.81 29.8086V33.7344C1044.81 34.6849 1044.87 35.5768 1044.97 36.4102C1045.09 37.2435 1045.26 38.0052 1045.5 38.6953C1045.68 39.2682 1045.91 39.7891 1046.18 40.2578C1046.47 40.7266 1046.81 41.1302 1047.2 41.4688C1047.6 41.8333 1048.06 42.1133 1048.58 42.3086C1049.12 42.4909 1049.72 42.582 1050.4 42.582C1051.21 42.582 1051.92 42.4648 1052.55 42.2305C1053.17 41.9961 1053.71 41.651 1054.15 41.1953C1054.58 40.7526 1054.93 40.1992 1055.19 39.5352C1055.45 38.8711 1055.62 38.1094 1055.69 37.25H1060.4ZM1084.52 21.4492H1075.75V46H1071.08V21.4492H1062.37V17.5625H1084.52V21.4492ZM1105.98 17.5625L1106 36.5859C1106 38.0573 1105.78 39.3984 1105.32 40.6094C1104.88 41.8073 1104.25 42.8359 1103.43 43.6953C1102.59 44.5547 1101.59 45.2188 1100.42 45.6875C1099.26 46.1562 1097.96 46.3906 1096.51 46.3906C1095.09 46.3906 1093.81 46.1628 1092.66 45.707C1091.52 45.2383 1090.54 44.5742 1089.73 43.7148C1088.91 42.8555 1088.28 41.8203 1087.82 40.6094C1087.38 39.3984 1087.15 38.0573 1087.14 36.5859L1087.18 17.5625H1091.8L1091.84 36.5859C1091.86 37.4844 1091.97 38.3112 1092.18 39.0664C1092.38 39.8086 1092.69 40.4401 1093.09 40.9609C1093.48 41.4557 1093.96 41.8464 1094.52 42.1328C1095.09 42.4062 1095.76 42.543 1096.51 42.543C1097.28 42.543 1097.96 42.4062 1098.54 42.1328C1099.14 41.8464 1099.64 41.4427 1100.05 40.9219C1100.45 40.388 1100.76 39.7565 1100.96 39.0273C1101.17 38.2852 1101.29 37.4714 1101.32 36.5859L1101.36 17.5625H1105.98ZM1120.18 34.9648H1115.38V46H1110.69V17.5625H1119.71C1121.18 17.5755 1122.54 17.7643 1123.78 18.1289C1125.01 18.4935 1126.08 19.0273 1126.98 19.7305C1127.86 20.4466 1128.55 21.3385 1129.05 22.4062C1129.54 23.4609 1129.79 24.6979 1129.79 26.1172C1129.79 27.0938 1129.66 27.9792 1129.4 28.7734C1129.15 29.5677 1128.8 30.2839 1128.35 30.9219C1127.89 31.5599 1127.34 32.1198 1126.71 32.6016C1126.07 33.0833 1125.36 33.5 1124.58 33.8516L1130.65 45.7461V46H1125.63L1120.18 34.9648ZM1115.38 31.1367H1119.77C1120.61 31.1237 1121.35 31 1122.02 30.7656C1122.7 30.5182 1123.27 30.1667 1123.74 29.7109C1124.15 29.3203 1124.48 28.8385 1124.71 28.2656C1124.95 27.6927 1125.07 27.0417 1125.07 26.3125C1125.07 25.4922 1124.93 24.776 1124.67 24.1641C1124.43 23.5391 1124.06 23.0182 1123.56 22.6016C1123.11 22.2109 1122.55 21.918 1121.9 21.7227C1121.25 21.5143 1120.52 21.4036 1119.71 21.3906H1115.38V31.1367ZM1150.49 33.2461H1138.74V42.1328H1152.47V46H1134.03V17.5625H1152.37V21.4492H1138.74V29.457H1150.49V33.2461Z" fill="currentColor"/>
<rect x="1.5" y="576.037" width="127" height="174" rx="6.5" stroke="currentColor" stroke-width="3"/>
<path d="M53.2223 663.537H76.7779M65.0001 651.759V663.537M41.4446 610.537H88.5557C91.808 610.537 94.4446 613.174 94.4446 616.426V645.87C94.4446 649.123 91.808 651.759 88.5557 651.759H41.4446C38.1922 651.759 35.5557 649.123 35.5557 645.87V616.426C35.5557 613.174 38.1922 610.537 41.4446 610.537Z" stroke="currentColor" stroke-width="3" stroke-linecap="round" stroke-linejoin="round"/>
<path d="M36.1634 703.287C36.0853 704.115 35.89 704.869 35.5775 705.549C35.265 706.221 34.8548 706.795 34.347 707.271C33.8314 707.756 33.2181 708.131 32.5072 708.396C31.8041 708.654 31.0228 708.783 30.1634 708.783C29.4603 708.783 28.8119 708.689 28.2181 708.502C27.6322 708.307 27.1087 708.033 26.6478 707.682C26.2025 707.354 25.8119 706.959 25.4759 706.498C25.1478 706.029 24.8705 705.518 24.6439 704.963C24.4173 704.416 24.2455 703.822 24.1283 703.182C24.0189 702.541 23.9642 701.873 23.9642 701.178V698.846C23.9642 698.182 24.0189 697.541 24.1283 696.924C24.2377 696.307 24.4017 695.725 24.6205 695.178C24.8548 694.568 25.1556 694.018 25.5228 693.525C25.8978 693.025 26.3275 692.6 26.8119 692.248C27.2728 691.928 27.7806 691.678 28.3353 691.498C28.8978 691.318 29.5111 691.229 30.1752 691.229C31.0736 691.229 31.8744 691.361 32.5775 691.627C33.2884 691.893 33.8939 692.268 34.3939 692.752C34.9017 693.244 35.3002 693.838 35.5892 694.533C35.8861 695.229 36.0775 696.002 36.1634 696.854H33.3509C33.3041 696.346 33.2064 695.889 33.058 695.482C32.9173 695.068 32.722 694.717 32.472 694.428C32.2142 694.139 31.8978 693.92 31.5228 693.771C31.1478 693.615 30.6986 693.537 30.1752 693.537C29.808 693.537 29.4759 693.588 29.1791 693.689C28.89 693.791 28.6322 693.936 28.4056 694.123C28.0931 694.35 27.8314 694.646 27.6205 695.014C27.4173 695.373 27.2494 695.775 27.1166 696.221C27.015 696.611 26.9369 697.029 26.8822 697.475C26.8353 697.912 26.8119 698.361 26.8119 698.822V701.178C26.8119 701.748 26.8431 702.283 26.9056 702.783C26.9759 703.283 27.0814 703.74 27.222 704.154C27.3314 704.498 27.4681 704.811 27.6322 705.092C27.8041 705.373 28.0072 705.615 28.2416 705.818C28.4837 706.037 28.7611 706.205 29.0736 706.322C29.3939 706.432 29.7572 706.486 30.1634 706.486C30.6478 706.486 31.0775 706.416 31.4525 706.275C31.8275 706.135 32.1478 705.928 32.4134 705.654C32.6712 705.389 32.8783 705.057 33.0345 704.658C33.1908 704.26 33.2923 703.803 33.3392 703.287H36.1634ZM41.6723 706.217H49.8168V708.537H38.8481V691.475H41.6723V706.217ZM52.9819 691.475H63.0366V693.807H59.3921V706.217H63.0366V708.537H52.9819V706.217H56.5444V693.807H52.9819V691.475ZM76.5493 700.885H69.4947V706.217H77.7329V708.537H66.6704V691.475H77.6743V693.807H69.4947V698.611H76.5493V700.885ZM91.4918 708.537H88.6676L83.1246 696.795L83.1129 708.537H80.2652V691.475H83.1246L88.6324 703.17L88.6558 691.475H91.4918V708.537ZM106.54 693.807H101.278V708.537H98.4772V693.807H93.2506V691.475H106.54V693.807Z" fill="currentColor"/>
<path d="M136 660.074C134.895 660.074 134 660.97 134 662.074C134 663.179 134.895 664.074 136 664.074V660.074ZM360.914 663.488C361.695 662.707 361.695 661.441 360.914 660.66L348.186 647.932C347.405 647.151 346.139 647.151 345.358 647.932C344.577 648.713 344.577 649.979 345.358 650.761L356.672 662.074L345.358 673.388C344.577 674.169 344.577 675.435 345.358 676.216C346.139 676.997 347.405 676.997 348.186 676.216L360.914 663.488ZM136 662.074V664.074H359.5V662.074V660.074H136V662.074Z" fill="currentColor"/>
<path d="M975.538 266.82C975.538 266.422 975.456 266.07 975.292 265.766C975.128 265.461 974.898 265.188 974.601 264.945C974.288 264.719 973.917 264.516 973.488 264.336C973.066 264.148 972.593 263.98 972.07 263.832C971.265 263.605 970.523 263.328 969.843 263C969.171 262.664 968.597 262.289 968.12 261.875C967.644 261.453 967.269 260.977 966.995 260.445C966.73 259.906 966.597 259.301 966.597 258.629C966.597 257.902 966.753 257.25 967.066 256.672C967.378 256.086 967.8 255.586 968.331 255.172C968.863 254.766 969.48 254.457 970.183 254.246C970.894 254.027 971.64 253.918 972.421 253.918C973.249 253.918 974.019 254.047 974.73 254.305C975.449 254.555 976.074 254.906 976.605 255.359C977.136 255.82 977.554 256.371 977.859 257.012C978.171 257.645 978.327 258.348 978.327 259.121H975.538C975.499 258.691 975.406 258.301 975.257 257.949C975.117 257.59 974.917 257.281 974.66 257.023C974.394 256.773 974.07 256.578 973.687 256.438C973.312 256.289 972.878 256.215 972.386 256.215C971.956 256.215 971.558 256.273 971.191 256.391C970.831 256.5 970.519 256.656 970.253 256.859C969.988 257.07 969.781 257.324 969.632 257.621C969.484 257.918 969.41 258.25 969.41 258.617C969.417 259.008 969.519 259.352 969.714 259.648C969.91 259.938 970.171 260.191 970.499 260.41C970.835 260.629 971.218 260.82 971.648 260.984C972.085 261.148 972.542 261.301 973.019 261.441C973.62 261.613 974.206 261.828 974.777 262.086C975.355 262.336 975.886 262.641 976.37 263C976.972 263.453 977.452 263.996 977.812 264.629C978.179 265.254 978.363 265.977 978.363 266.797C978.363 267.555 978.202 268.223 977.882 268.801C977.57 269.379 977.148 269.859 976.617 270.242C976.077 270.641 975.452 270.941 974.742 271.145C974.031 271.34 973.281 271.438 972.492 271.438C971.656 271.438 970.831 271.309 970.019 271.051C969.206 270.785 968.499 270.402 967.898 269.902C967.343 269.434 966.902 268.883 966.574 268.25C966.253 267.617 966.089 266.891 966.081 266.07H968.894C968.933 266.594 969.042 267.051 969.222 267.441C969.41 267.824 969.663 268.141 969.984 268.391C970.296 268.648 970.663 268.84 971.085 268.965C971.515 269.09 971.984 269.152 972.492 269.152C972.921 269.152 973.32 269.102 973.687 269C974.062 268.898 974.386 268.746 974.66 268.543C974.925 268.348 975.136 268.105 975.292 267.816C975.456 267.527 975.538 267.195 975.538 266.82ZM992.707 256.484H987.446V271.215H984.645V256.484H979.418V254.152H992.707V256.484ZM1002.85 267.289H997.49L996.33 271.215H993.4L998.955 254.152H1001.45L1006.91 271.215H1003.99L1002.85 267.289ZM998.205 264.875H1002.15L1000.2 258.125L998.205 264.875ZM1020.62 256.484H1015.36V271.215H1012.56V256.484H1007.33V254.152H1020.62V256.484ZM1022.9 254.152H1032.95V256.484H1029.31V268.895H1032.95V271.215H1022.9V268.895H1026.46V256.484H1022.9V254.152ZM1047.95 265.965C1047.88 266.793 1047.68 267.547 1047.37 268.227C1047.06 268.898 1046.65 269.473 1046.14 269.949C1045.62 270.434 1045.01 270.809 1044.3 271.074C1043.59 271.332 1042.81 271.461 1041.95 271.461C1041.25 271.461 1040.6 271.367 1040.01 271.18C1039.42 270.984 1038.9 270.711 1038.44 270.359C1037.99 270.031 1037.6 269.637 1037.27 269.176C1036.94 268.707 1036.66 268.195 1036.43 267.641C1036.21 267.094 1036.04 266.5 1035.92 265.859C1035.81 265.219 1035.75 264.551 1035.75 263.855V261.523C1035.75 260.859 1035.81 260.219 1035.92 259.602C1036.03 258.984 1036.19 258.402 1036.41 257.855C1036.65 257.246 1036.95 256.695 1037.31 256.203C1037.69 255.703 1038.12 255.277 1038.6 254.926C1039.06 254.605 1039.57 254.355 1040.13 254.176C1040.69 253.996 1041.3 253.906 1041.97 253.906C1042.86 253.906 1043.66 254.039 1044.37 254.305C1045.08 254.57 1045.68 254.945 1046.18 255.43C1046.69 255.922 1047.09 256.516 1047.38 257.211C1047.68 257.906 1047.87 258.68 1047.95 259.531H1045.14C1045.09 259.023 1045 258.566 1044.85 258.16C1044.71 257.746 1044.51 257.395 1044.26 257.105C1044 256.816 1043.69 256.598 1043.31 256.449C1042.94 256.293 1042.49 256.215 1041.97 256.215C1041.6 256.215 1041.27 256.266 1040.97 256.367C1040.68 256.469 1040.42 256.613 1040.2 256.801C1039.88 257.027 1039.62 257.324 1039.41 257.691C1039.21 258.051 1039.04 258.453 1038.91 258.898C1038.81 259.289 1038.73 259.707 1038.67 260.152C1038.63 260.59 1038.6 261.039 1038.6 261.5V263.855C1038.6 264.426 1038.63 264.961 1038.7 265.461C1038.77 265.961 1038.87 266.418 1039.01 266.832C1039.12 267.176 1039.26 267.488 1039.42 267.77C1039.59 268.051 1039.8 268.293 1040.03 268.496C1040.27 268.715 1040.55 268.883 1040.86 269C1041.18 269.109 1041.55 269.164 1041.95 269.164C1042.44 269.164 1042.87 269.094 1043.24 268.953C1043.62 268.812 1043.94 268.605 1044.2 268.332C1044.46 268.066 1044.67 267.734 1044.82 267.336C1044.98 266.938 1045.08 266.48 1045.13 265.965H1047.95ZM974.929 303.289H969.574L968.413 307.215H965.484L971.038 290.152H973.535L978.995 307.215H976.077L974.929 303.289ZM970.288 300.875H974.238L972.281 294.125L970.288 300.875ZM989.496 302.82C989.496 302.422 989.414 302.07 989.25 301.766C989.086 301.461 988.856 301.188 988.559 300.945C988.246 300.719 987.875 300.516 987.446 300.336C987.024 300.148 986.551 299.98 986.028 299.832C985.223 299.605 984.481 299.328 983.801 299C983.129 298.664 982.555 298.289 982.079 297.875C981.602 297.453 981.227 296.977 980.954 296.445C980.688 295.906 980.555 295.301 980.555 294.629C980.555 293.902 980.711 293.25 981.024 292.672C981.336 292.086 981.758 291.586 982.289 291.172C982.821 290.766 983.438 290.457 984.141 290.246C984.852 290.027 985.598 289.918 986.379 289.918C987.207 289.918 987.977 290.047 988.688 290.305C989.407 290.555 990.032 290.906 990.563 291.359C991.094 291.82 991.512 292.371 991.817 293.012C992.129 293.645 992.286 294.348 992.286 295.121H989.496C989.457 294.691 989.364 294.301 989.215 293.949C989.075 293.59 988.875 293.281 988.618 293.023C988.352 292.773 988.028 292.578 987.645 292.438C987.27 292.289 986.836 292.215 986.344 292.215C985.914 292.215 985.516 292.273 985.149 292.391C984.789 292.5 984.477 292.656 984.211 292.859C983.946 293.07 983.739 293.324 983.59 293.621C983.442 293.918 983.368 294.25 983.368 294.617C983.375 295.008 983.477 295.352 983.672 295.648C983.868 295.938 984.129 296.191 984.457 296.41C984.793 296.629 985.176 296.82 985.606 296.984C986.043 297.148 986.5 297.301 986.977 297.441C987.579 297.613 988.164 297.828 988.735 298.086C989.313 298.336 989.844 298.641 990.329 299C990.93 299.453 991.411 299.996 991.77 300.629C992.137 301.254 992.321 301.977 992.321 302.797C992.321 303.555 992.161 304.223 991.84 304.801C991.528 305.379 991.106 305.859 990.575 306.242C990.036 306.641 989.411 306.941 988.7 307.145C987.989 307.34 987.239 307.438 986.45 307.438C985.614 307.438 984.789 307.309 983.977 307.051C983.164 306.785 982.457 306.402 981.856 305.902C981.301 305.434 980.86 304.883 980.532 304.25C980.211 303.617 980.047 302.891 980.039 302.07H982.852C982.891 302.594 983 303.051 983.18 303.441C983.368 303.824 983.621 304.141 983.942 304.391C984.254 304.648 984.621 304.84 985.043 304.965C985.473 305.09 985.942 305.152 986.45 305.152C986.879 305.152 987.278 305.102 987.645 305C988.02 304.898 988.344 304.746 988.618 304.543C988.883 304.348 989.094 304.105 989.25 303.816C989.414 303.527 989.496 303.195 989.496 302.82ZM1003.45 302.82C1003.45 302.422 1003.37 302.07 1003.21 301.766C1003.04 301.461 1002.81 301.188 1002.52 300.945C1002.2 300.719 1001.83 300.516 1001.4 300.336C1000.98 300.148 1000.51 299.98 999.986 299.832C999.181 299.605 998.439 299.328 997.759 299C997.087 298.664 996.513 298.289 996.037 297.875C995.56 297.453 995.185 296.977 994.912 296.445C994.646 295.906 994.513 295.301 994.513 294.629C994.513 293.902 994.669 293.25 994.982 292.672C995.294 292.086 995.716 291.586 996.248 291.172C996.779 290.766 997.396 290.457 998.099 290.246C998.81 290.027 999.556 289.918 1000.34 289.918C1001.17 289.918 1001.94 290.047 1002.65 290.305C1003.36 290.555 1003.99 290.906 1004.52 291.359C1005.05 291.82 1005.47 292.371 1005.77 293.012C1006.09 293.645 1006.24 294.348 1006.24 295.121H1003.45C1003.42 294.691 1003.32 294.301 1003.17 293.949C1003.03 293.59 1002.83 293.281 1002.58 293.023C1002.31 292.773 1001.99 292.578 1001.6 292.438C1001.23 292.289 1000.79 292.215 1000.3 292.215C999.873 292.215 999.474 292.273 999.107 292.391C998.748 292.5 998.435 292.656 998.169 292.859C997.904 293.07 997.697 293.324 997.548 293.621C997.4 293.918 997.326 294.25 997.326 294.617C997.333 295.008 997.435 295.352 997.63 295.648C997.826 295.938 998.087 296.191 998.415 296.41C998.751 296.629 999.134 296.82 999.564 296.984C1000 297.148 1000.46 297.301 1000.94 297.441C1001.54 297.613 1002.12 297.828 1002.69 298.086C1003.27 298.336 1003.8 298.641 1004.29 299C1004.89 299.453 1005.37 299.996 1005.73 300.629C1006.1 301.254 1006.28 301.977 1006.28 302.797C1006.28 303.555 1006.12 304.223 1005.8 304.801C1005.49 305.379 1005.06 305.859 1004.53 306.242C1003.99 306.641 1003.37 306.941 1002.66 307.145C1001.95 307.34 1001.2 307.438 1000.41 307.438C999.572 307.438 998.748 307.309 997.935 307.051C997.123 306.785 996.415 306.402 995.814 305.902C995.259 305.434 994.818 304.883 994.49 304.25C994.169 303.617 994.005 302.891 993.998 302.07H996.81C996.849 302.594 996.958 303.051 997.138 303.441C997.326 303.824 997.58 304.141 997.9 304.391C998.212 304.648 998.58 304.84 999.001 304.965C999.431 305.09 999.9 305.152 1000.41 305.152C1000.84 305.152 1001.24 305.102 1001.6 305C1001.98 304.898 1002.3 304.746 1002.58 304.543C1002.84 304.348 1003.05 304.105 1003.21 303.816C1003.37 303.527 1003.45 303.195 1003.45 302.82ZM1018.55 299.562H1011.49V304.895H1019.73V307.215H1008.67V290.152H1019.67V292.484H1011.49V297.289H1018.55V299.562ZM1034.58 292.484H1029.32V307.215H1026.52V292.484H1021.29V290.152H1034.58V292.484ZM1045.33 302.82C1045.33 302.422 1045.25 302.07 1045.08 301.766C1044.92 301.461 1044.69 301.188 1044.39 300.945C1044.08 300.719 1043.71 300.516 1043.28 300.336C1042.86 300.148 1042.38 299.98 1041.86 299.832C1041.06 299.605 1040.31 299.328 1039.63 299C1038.96 298.664 1038.39 298.289 1037.91 297.875C1037.43 297.453 1037.06 296.977 1036.79 296.445C1036.52 295.906 1036.39 295.301 1036.39 294.629C1036.39 293.902 1036.54 293.25 1036.86 292.672C1037.17 292.086 1037.59 291.586 1038.12 291.172C1038.65 290.766 1039.27 290.457 1039.97 290.246C1040.68 290.027 1041.43 289.918 1042.21 289.918C1043.04 289.918 1043.81 290.047 1044.52 290.305C1045.24 290.555 1045.86 290.906 1046.4 291.359C1046.93 291.82 1047.34 292.371 1047.65 293.012C1047.96 293.645 1048.12 294.348 1048.12 295.121H1045.33C1045.29 294.691 1045.2 294.301 1045.05 293.949C1044.91 293.59 1044.71 293.281 1044.45 293.023C1044.18 292.773 1043.86 292.578 1043.48 292.438C1043.1 292.289 1042.67 292.215 1042.18 292.215C1041.75 292.215 1041.35 292.273 1040.98 292.391C1040.62 292.5 1040.31 292.656 1040.04 292.859C1039.78 293.07 1039.57 293.324 1039.42 293.621C1039.27 293.918 1039.2 294.25 1039.2 294.617C1039.21 295.008 1039.31 295.352 1039.5 295.648C1039.7 295.938 1039.96 296.191 1040.29 296.41C1040.63 296.629 1041.01 296.82 1041.44 296.984C1041.88 297.148 1042.33 297.301 1042.81 297.441C1043.41 297.613 1044 297.828 1044.57 298.086C1045.15 298.336 1045.68 298.641 1046.16 299C1046.76 299.453 1047.24 299.996 1047.6 300.629C1047.97 301.254 1048.15 301.977 1048.15 302.797C1048.15 303.555 1047.99 304.223 1047.67 304.801C1047.36 305.379 1046.94 305.859 1046.41 306.242C1045.87 306.641 1045.24 306.941 1044.53 307.145C1043.82 307.34 1043.07 307.438 1042.28 307.438C1041.45 307.438 1040.62 307.309 1039.81 307.051C1039 306.785 1038.29 306.402 1037.69 305.902C1037.13 305.434 1036.69 304.883 1036.36 304.25C1036.04 303.617 1035.88 302.891 1035.87 302.07H1038.68C1038.72 302.594 1038.83 303.051 1039.01 303.441C1039.2 303.824 1039.45 304.141 1039.77 304.391C1040.09 304.648 1040.45 304.84 1040.88 304.965C1041.31 305.09 1041.77 305.152 1042.28 305.152C1042.71 305.152 1043.11 305.102 1043.48 305C1043.85 304.898 1044.18 304.746 1044.45 304.543C1044.72 304.348 1044.93 304.105 1045.08 303.816C1045.25 303.527 1045.33 303.195 1045.33 302.82Z" fill="currentColor"/>
<path d="M458.667 987.333H501.334V979.333H458.667V987.333ZM485.334 1016.67V992.667H474.667V1016.67H485.334ZM490.667 1016.67H501.334V992.667H490.667V1016.67ZM469.334 1016.67V992.667H458.667V1016.67H469.334ZM456.001 974H504.001C504.708 974 505.386 974.281 505.886 974.781C506.386 975.281 506.667 975.959 506.667 976.667V1019.33C506.667 1020.04 506.386 1020.72 505.886 1021.22C505.386 1021.72 504.708 1022 504.001 1022H456.001C455.293 1022 454.615 1021.72 454.115 1021.22C453.615 1020.72 453.334 1020.04 453.334 1019.33V976.667C453.334 975.959 453.615 975.281 454.115 974.781C454.615 974.281 455.293 974 456.001 974Z" fill="currentColor"/>
<path fill-rule="evenodd" clip-rule="evenodd" d="M467.389 651.594C467.04 654.62 466.869 657.649 466.869 660.5C466.869 663.351 467.04 666.38 467.389 669.406H491.611C491.96 666.38 492.131 663.351 492.131 660.5C492.131 657.649 491.96 654.62 491.611 651.594H467.389ZM461.415 651.594C461.088 654.646 460.931 657.667 460.931 660.5C460.931 663.333 461.088 666.354 461.415 669.406H448.082C447.262 666.515 446.844 663.518 446.844 660.5C446.844 657.482 447.262 654.485 448.082 651.594H461.415ZM468.313 645.656H490.687C490.149 642.952 489.457 640.353 488.606 638.001C487.411 634.696 485.97 632.067 484.36 630.312C482.792 628.602 481.195 627.844 479.5 627.844C477.805 627.844 476.208 628.602 474.64 630.312C473.03 632.067 471.589 634.696 470.394 638.001C469.543 640.353 468.851 642.952 468.313 645.656ZM467.488 630.133C466.444 631.927 465.558 633.912 464.81 635.982C463.727 638.978 462.886 642.274 462.269 645.656H450.412C451.964 642.615 453.986 639.831 456.409 637.409C459.441 634.376 463.041 631.971 467.003 630.33C467.164 630.263 467.326 630.197 467.488 630.133ZM443.308 647.097C443.478 646.639 443.657 646.183 443.844 645.731C445.784 641.048 448.626 636.794 452.21 633.21C455.794 629.626 460.048 626.784 464.731 624.844C469.413 622.905 474.432 621.906 479.5 621.906C484.568 621.906 489.587 622.905 494.269 624.844C498.952 626.784 503.206 629.626 506.79 633.21C510.374 636.794 513.216 641.048 515.156 645.731C515.343 646.183 515.522 646.639 515.692 647.097C515.894 647.433 516.031 647.811 516.087 648.216C517.414 652.17 518.094 656.318 518.094 660.5C518.094 664.682 517.414 668.83 516.087 672.784C516.031 673.189 515.894 673.567 515.692 673.903C515.522 674.361 515.343 674.817 515.156 675.269C513.216 679.952 510.374 684.206 506.79 687.79C503.206 691.374 498.952 694.216 494.269 696.156C489.587 698.095 484.568 699.094 479.5 699.094C474.432 699.094 469.413 698.095 464.731 696.156C460.048 694.216 455.794 691.374 452.21 687.79C448.626 684.206 445.784 679.952 443.844 675.269C443.657 674.817 443.478 674.361 443.308 673.903C443.106 673.567 442.969 673.189 442.913 672.784C441.586 668.83 440.906 664.682 440.906 660.5C440.906 656.318 441.586 652.17 442.913 648.216C442.969 647.811 443.106 647.433 443.308 647.097ZM450.412 675.344C451.964 678.385 453.986 681.169 456.409 683.591C459.441 686.624 463.041 689.029 467.003 690.67C467.164 690.737 467.326 690.803 467.488 690.867C466.444 689.073 465.558 687.088 464.81 685.018C463.727 682.022 462.886 678.726 462.269 675.344H450.412ZM468.313 675.344C468.851 678.048 469.543 680.647 470.394 682.999C471.589 686.304 473.03 688.933 474.64 690.688C476.208 692.398 477.805 693.156 479.5 693.156C481.195 693.156 482.792 692.398 484.36 690.688C485.97 688.933 487.411 686.304 488.606 682.999C489.457 680.647 490.149 678.048 490.687 675.344H468.313ZM496.731 675.344C496.114 678.726 495.273 682.022 494.19 685.018C493.442 687.088 492.556 689.073 491.512 690.867C491.674 690.803 491.836 690.737 491.997 690.67C495.959 689.029 499.559 686.624 502.591 683.591C505.014 681.169 507.036 678.385 508.588 675.344H496.731ZM510.918 669.406C511.738 666.515 512.156 663.518 512.156 660.5C512.156 657.482 511.738 654.485 510.918 651.594H497.585C497.912 654.646 498.069 657.667 498.069 660.5C498.069 663.333 497.912 666.354 497.585 669.406H510.918ZM496.731 645.656H508.588C507.036 642.615 505.014 639.831 502.591 637.409C499.559 634.376 495.959 631.971 491.997 630.33C491.836 630.263 491.674 630.197 491.512 630.133C492.556 631.927 493.442 633.912 494.19 635.982C495.273 638.978 496.114 642.274 496.731 645.656Z" fill="currentColor"/>
<path d="M445.374 1050.06H442.492V1056.68H439.679V1039.62H445.093C445.976 1039.62 446.788 1039.74 447.531 1039.96C448.273 1040.17 448.913 1040.49 449.452 1040.92C449.984 1041.35 450.398 1041.88 450.695 1042.52C450.992 1043.15 451.14 1043.9 451.14 1044.75C451.14 1045.33 451.062 1045.87 450.906 1046.34C450.757 1046.82 450.546 1047.25 450.273 1047.63C449.999 1048.01 449.671 1048.35 449.288 1048.64C448.906 1048.93 448.48 1049.18 448.011 1049.39L451.656 1056.53V1056.68H448.644L445.374 1050.06ZM442.492 1047.76H445.128C445.628 1047.75 446.077 1047.68 446.476 1047.54C446.882 1047.39 447.226 1047.18 447.507 1046.9C447.757 1046.67 447.952 1046.38 448.093 1046.04C448.234 1045.69 448.304 1045.3 448.304 1044.87C448.304 1044.37 448.226 1043.94 448.07 1043.58C447.921 1043.2 447.699 1042.89 447.402 1042.64C447.128 1042.4 446.796 1042.23 446.406 1042.11C446.015 1041.99 445.577 1041.92 445.093 1041.91H442.492V1047.76ZM465.168 1049.28C465.168 1049.97 465.106 1050.63 464.981 1051.28C464.864 1051.92 464.692 1052.52 464.465 1053.09C464.223 1053.66 463.922 1054.19 463.563 1054.67C463.204 1055.15 462.789 1055.56 462.321 1055.9C461.868 1056.22 461.364 1056.46 460.809 1056.64C460.262 1056.82 459.661 1056.91 459.004 1056.91C458.325 1056.91 457.7 1056.82 457.129 1056.63C456.567 1056.44 456.063 1056.17 455.618 1055.83C455.164 1055.49 454.766 1055.08 454.422 1054.59C454.086 1054.11 453.805 1053.58 453.579 1053C453.36 1052.44 453.196 1051.85 453.086 1051.23C452.977 1050.6 452.922 1049.95 452.922 1049.28V1047.03C452.922 1046.34 452.981 1045.67 453.098 1045.02C453.215 1044.37 453.391 1043.76 453.625 1043.18C453.852 1042.62 454.129 1042.12 454.457 1041.65C454.793 1041.19 455.188 1040.78 455.641 1040.44C456.079 1040.1 456.575 1039.84 457.129 1039.66C457.692 1039.47 458.309 1039.38 458.981 1039.38C459.661 1039.38 460.286 1039.47 460.856 1039.66C461.426 1039.85 461.938 1040.11 462.391 1040.45C462.844 1040.78 463.239 1041.18 463.575 1041.63C463.911 1042.08 464.192 1042.58 464.418 1043.12C464.668 1043.7 464.856 1044.32 464.981 1044.98C465.106 1045.64 465.168 1046.32 465.168 1047.03V1049.28ZM462.332 1047.01C462.325 1046.58 462.297 1046.16 462.25 1045.74C462.211 1045.33 462.141 1044.94 462.039 1044.56C461.922 1044.13 461.766 1043.74 461.571 1043.39C461.383 1043.03 461.153 1042.72 460.879 1042.47C460.637 1042.26 460.36 1042.08 460.047 1041.96C459.735 1041.83 459.379 1041.77 458.981 1041.77C458.598 1041.77 458.254 1041.83 457.95 1041.96C457.645 1042.08 457.379 1042.24 457.153 1042.45C456.879 1042.71 456.649 1043.02 456.461 1043.38C456.274 1043.73 456.129 1044.12 456.028 1044.56C455.934 1044.94 455.864 1045.33 455.817 1045.76C455.778 1046.17 455.758 1046.59 455.758 1047.01V1049.28C455.758 1049.7 455.778 1050.11 455.817 1050.51C455.856 1050.92 455.922 1051.31 456.016 1051.69C456.118 1052.11 456.254 1052.5 456.426 1052.87C456.606 1053.23 456.821 1053.53 457.071 1053.78C457.313 1054.02 457.59 1054.21 457.903 1054.35C458.223 1054.48 458.59 1054.54 459.004 1054.54C459.403 1054.54 459.762 1054.48 460.082 1054.35C460.411 1054.21 460.692 1054.03 460.926 1053.81C461.2 1053.55 461.426 1053.24 461.606 1052.89C461.793 1052.53 461.942 1052.14 462.051 1051.71C462.145 1051.33 462.211 1050.94 462.25 1050.54C462.297 1050.12 462.325 1049.71 462.332 1049.28V1047.01ZM478.658 1039.62L478.669 1051.03C478.669 1051.91 478.533 1052.72 478.259 1053.44C477.994 1054.16 477.615 1054.78 477.123 1055.29C476.623 1055.81 476.021 1056.21 475.318 1056.49C474.623 1056.77 473.841 1056.91 472.974 1056.91C472.123 1056.91 471.353 1056.78 470.665 1056.5C469.978 1056.22 469.392 1055.82 468.908 1055.31C468.415 1054.79 468.033 1054.17 467.759 1053.44C467.494 1052.72 467.357 1051.91 467.349 1051.03L467.373 1039.62H470.15L470.173 1051.03C470.181 1051.57 470.248 1052.06 470.373 1052.52C470.498 1052.96 470.681 1053.34 470.923 1053.65C471.158 1053.95 471.443 1054.19 471.779 1054.36C472.123 1054.52 472.521 1054.6 472.974 1054.6C473.435 1054.6 473.841 1054.52 474.193 1054.36C474.552 1054.19 474.853 1053.94 475.095 1053.63C475.337 1053.31 475.521 1052.93 475.646 1052.49C475.771 1052.05 475.841 1051.56 475.857 1051.03L475.88 1039.62H478.658ZM493.624 1041.95H488.362V1056.68H485.561V1041.95H480.335V1039.62H493.624V1041.95ZM505.507 1049.03H498.453V1054.36H506.691V1056.68H495.628V1039.62H506.632V1041.95H498.453V1046.75H505.507V1049.03ZM518.329 1052.28C518.329 1051.88 518.247 1051.53 518.083 1051.23C517.919 1050.92 517.688 1050.65 517.391 1050.41C517.079 1050.18 516.708 1049.98 516.278 1049.8C515.856 1049.61 515.383 1049.44 514.86 1049.29C514.055 1049.07 513.313 1048.79 512.633 1048.46C511.962 1048.13 511.387 1047.75 510.911 1047.34C510.434 1046.92 510.059 1046.44 509.786 1045.91C509.52 1045.37 509.387 1044.76 509.387 1044.09C509.387 1043.37 509.544 1042.71 509.856 1042.13C510.169 1041.55 510.59 1041.05 511.122 1040.63C511.653 1040.23 512.27 1039.92 512.973 1039.71C513.684 1039.49 514.43 1039.38 515.212 1039.38C516.04 1039.38 516.809 1039.51 517.52 1039.77C518.239 1040.02 518.864 1040.37 519.395 1040.82C519.926 1041.28 520.344 1041.83 520.649 1042.47C520.962 1043.11 521.118 1043.81 521.118 1044.58H518.329C518.29 1044.15 518.196 1043.76 518.048 1043.41C517.907 1043.05 517.708 1042.74 517.45 1042.49C517.184 1042.24 516.86 1042.04 516.477 1041.9C516.102 1041.75 515.669 1041.68 515.176 1041.68C514.747 1041.68 514.348 1041.74 513.981 1041.85C513.622 1041.96 513.309 1042.12 513.044 1042.32C512.778 1042.53 512.571 1042.79 512.423 1043.08C512.274 1043.38 512.2 1043.71 512.2 1044.08C512.208 1044.47 512.309 1044.81 512.505 1045.11C512.7 1045.4 512.962 1045.65 513.29 1045.87C513.626 1046.09 514.008 1046.28 514.438 1046.45C514.876 1046.61 515.333 1046.76 515.809 1046.9C516.411 1047.08 516.997 1047.29 517.567 1047.55C518.145 1047.8 518.676 1048.1 519.161 1048.46C519.762 1048.92 520.243 1049.46 520.602 1050.09C520.969 1050.72 521.153 1051.44 521.153 1052.26C521.153 1053.02 520.993 1053.69 520.673 1054.26C520.36 1054.84 519.938 1055.32 519.407 1055.71C518.868 1056.1 518.243 1056.4 517.532 1056.61C516.821 1056.8 516.071 1056.9 515.282 1056.9C514.446 1056.9 513.622 1056.77 512.809 1056.51C511.997 1056.25 511.29 1055.87 510.688 1055.37C510.133 1054.9 509.692 1054.35 509.364 1053.71C509.044 1053.08 508.88 1052.35 508.872 1051.53H511.684C511.723 1052.06 511.833 1052.51 512.012 1052.9C512.2 1053.29 512.454 1053.6 512.774 1053.85C513.087 1054.11 513.454 1054.3 513.876 1054.43C514.305 1054.55 514.774 1054.62 515.282 1054.62C515.712 1054.62 516.11 1054.56 516.477 1054.46C516.852 1054.36 517.176 1054.21 517.45 1054.01C517.715 1053.81 517.926 1053.57 518.083 1053.28C518.247 1052.99 518.329 1052.66 518.329 1052.28Z" fill="currentColor"/>
<path d="M376 921.182H584" stroke="currentColor" stroke-width="4" stroke-linecap="round" stroke-linejoin="bevel"/>
<rect x="916" y="111.537" width="181" height="241" rx="6" stroke="currentColor" stroke-width="4" stroke-linecap="round"/>
<path d="M600 660.074C598.895 660.074 598 660.97 598 662.074C598 663.179 598.895 664.074 600 664.074V660.074ZM908.914 233.451C909.695 232.67 909.695 231.404 908.914 230.623L896.186 217.895C895.405 217.114 894.139 217.114 893.358 217.895C892.577 218.676 892.577 219.942 893.358 220.723L904.672 232.037L893.358 243.351C892.577 244.132 892.577 245.398 893.358 246.179C894.139 246.96 895.405 246.96 896.186 246.179L908.914 233.451ZM600 662.074V664.074H730V662.074V660.074H600V662.074ZM754 638.074H756V256.037H754H752V638.074H754ZM778 232.037V234.037H907.5V232.037V230.037H778V232.037ZM754 256.037H756C756 243.887 765.85 234.037 778 234.037V232.037V230.037C763.641 230.037 752 241.678 752 256.037H754ZM730 662.074V664.074C744.359 664.074 756 652.434 756 638.074H754H752C752 650.224 742.15 660.074 730 660.074V662.074Z" fill="currentColor"/>
<path d="M991.666 494.459C992.222 496.428 993.353 498.579 996.301 498.579C1001.4 498.579 1002.68 494.459 1006.5 480.037C1010.32 465.615 1011.6 461.495 1016.7 461.495C1019.65 461.495 1020.78 463.646 1021.33 465.615M1000.32 474.886H1016.7" stroke="currentColor" stroke-width="5.5625" stroke-linecap="round" stroke-linejoin="round"/>
<path d="M971.271 480.037C971.271 463.431 971.271 455.124 976.429 449.966C981.587 444.808 989.89 444.808 1006.5 444.808C1023.11 444.808 1031.41 444.808 1036.57 449.966C1041.73 455.124 1041.73 463.427 1041.73 480.037C1041.73 496.643 1041.73 504.95 1036.57 510.108C1031.41 515.266 1023.11 515.266 1006.5 515.266C989.894 515.266 981.587 515.266 976.429 510.108C971.271 504.95 971.271 496.647 971.271 480.037Z" stroke="currentColor" stroke-width="5.5625" stroke-linecap="round" stroke-linejoin="round"/>
<path d="M990.633 549.562H983.579V554.895H991.817V557.215H980.754V540.152H991.758V542.484H983.579V547.289H990.633V549.562ZM994.431 557.215V540.152H998.65C999.384 540.152 1000.08 540.238 1000.72 540.41C1001.37 540.574 1001.96 540.805 1002.49 541.102C1003.07 541.406 1003.58 541.789 1004.03 542.25C1004.48 542.711 1004.86 543.227 1005.17 543.797C1005.48 544.391 1005.72 545.043 1005.89 545.754C1006.06 546.465 1006.15 547.223 1006.15 548.027V549.363C1006.15 550.137 1006.07 550.871 1005.9 551.566C1005.75 552.254 1005.52 552.883 1005.22 553.453C1004.94 554.008 1004.58 554.512 1004.17 554.965C1003.76 555.418 1003.31 555.805 1002.81 556.125C1002.25 556.477 1001.62 556.746 1000.94 556.934C1000.26 557.121 999.525 557.215 998.744 557.215H994.431ZM997.279 542.449V554.93H998.744C999.244 554.93 999.701 554.871 1000.11 554.754C1000.54 554.629 1000.92 554.453 1001.25 554.227C1001.6 553.992 1001.9 553.699 1002.17 553.348C1002.44 552.988 1002.66 552.578 1002.83 552.117C1002.98 551.727 1003.1 551.301 1003.17 550.84C1003.25 550.379 1003.29 549.887 1003.29 549.363V548.004C1003.29 547.488 1003.25 547 1003.17 546.539C1003.1 546.078 1002.98 545.652 1002.83 545.262C1002.65 544.785 1002.4 544.355 1002.08 543.973C1001.77 543.582 1001.4 543.266 1000.97 543.023C1000.66 542.844 1000.31 542.707 999.915 542.613C999.525 542.512 999.103 542.457 998.65 542.449H997.279ZM1019.96 555.117C1019.72 555.398 1019.44 555.672 1019.1 555.938C1018.76 556.195 1018.39 556.426 1017.96 556.629C1017.43 556.887 1016.85 557.086 1016.23 557.227C1015.6 557.375 1014.94 557.449 1014.23 557.449C1013.57 557.449 1012.96 557.363 1012.39 557.191C1011.81 557.02 1011.3 556.777 1010.84 556.465C1010.38 556.152 1009.96 555.773 1009.6 555.328C1009.24 554.883 1008.94 554.387 1008.69 553.84C1008.42 553.27 1008.21 552.641 1008.07 551.953C1007.93 551.266 1007.86 550.543 1007.85 549.785V547.605C1007.86 546.871 1007.92 546.168 1008.05 545.496C1008.18 544.824 1008.37 544.203 1008.62 543.633C1008.87 543.094 1009.15 542.602 1009.49 542.156C1009.83 541.711 1010.21 541.324 1010.64 540.996C1011.11 540.652 1011.62 540.387 1012.19 540.199C1012.76 540.012 1013.37 539.918 1014.04 539.918C1014.94 539.918 1015.73 540.039 1016.43 540.281C1017.12 540.523 1017.72 540.871 1018.21 541.324C1018.71 541.785 1019.1 542.344 1019.39 543C1019.68 543.648 1019.87 544.379 1019.94 545.191H1017.18C1017.11 544.746 1017 544.344 1016.86 543.984C1016.72 543.617 1016.53 543.309 1016.3 543.059C1016.05 542.793 1015.74 542.59 1015.37 542.449C1015.01 542.309 1014.59 542.238 1014.1 542.238C1013.74 542.238 1013.4 542.301 1013.1 542.426C1012.8 542.543 1012.52 542.707 1012.28 542.918C1012 543.16 1011.75 543.461 1011.54 543.82C1011.34 544.172 1011.17 544.566 1011.04 545.004C1010.92 545.387 1010.83 545.797 1010.78 546.234C1010.73 546.672 1010.7 547.121 1010.7 547.582V549.785C1010.7 550.324 1010.73 550.836 1010.8 551.32C1010.88 551.805 1010.99 552.254 1011.14 552.668C1011.26 552.98 1011.4 553.273 1011.55 553.547C1011.72 553.82 1011.91 554.062 1012.13 554.273C1012.4 554.547 1012.72 554.758 1013.08 554.906C1013.44 555.055 1013.86 555.133 1014.32 555.141C1014.59 555.141 1014.87 555.125 1015.15 555.094C1015.43 555.055 1015.7 554.996 1015.96 554.918C1016.21 554.84 1016.44 554.742 1016.65 554.625C1016.86 554.5 1017.03 554.355 1017.15 554.191L1017.17 550.781H1014.07V548.59H1019.93L1019.96 555.117ZM1032.51 549.562H1025.45V554.895H1033.69V557.215H1022.63V540.152H1033.63V542.484H1025.45V547.289H1032.51V549.562ZM962.951 585.949H955.733V593.215H952.897V576.152H963.983V578.484H955.733V583.629H962.951V585.949ZM977.742 576.152L977.753 587.566C977.753 588.449 977.617 589.254 977.343 589.98C977.077 590.699 976.699 591.316 976.206 591.832C975.706 592.348 975.105 592.746 974.402 593.027C973.706 593.309 972.925 593.449 972.058 593.449C971.206 593.449 970.437 593.312 969.749 593.039C969.062 592.758 968.476 592.359 967.992 591.844C967.499 591.328 967.117 590.707 966.843 589.98C966.577 589.254 966.441 588.449 966.433 587.566L966.456 576.152H969.234L969.257 587.566C969.265 588.105 969.331 588.602 969.456 589.055C969.581 589.5 969.765 589.879 970.007 590.191C970.242 590.488 970.527 590.723 970.863 590.895C971.206 591.059 971.605 591.141 972.058 591.141C972.519 591.141 972.925 591.059 973.277 590.895C973.636 590.723 973.937 590.48 974.179 590.168C974.421 589.848 974.605 589.469 974.73 589.031C974.855 588.586 974.925 588.098 974.941 587.566L974.964 576.152H977.742ZM991.618 593.215H988.793L983.25 581.473L983.239 593.215H980.391V576.152H983.25L988.758 587.848L988.782 576.152H991.618V593.215ZM1006.08 587.965C1006 588.793 1005.81 589.547 1005.49 590.227C1005.18 590.898 1004.77 591.473 1004.26 591.949C1003.75 592.434 1003.13 592.809 1002.42 593.074C1001.72 593.332 1000.94 593.461 1000.08 593.461C999.376 593.461 998.728 593.367 998.134 593.18C997.548 592.984 997.025 592.711 996.564 592.359C996.119 592.031 995.728 591.637 995.392 591.176C995.064 590.707 994.787 590.195 994.56 589.641C994.333 589.094 994.162 588.5 994.044 587.859C993.935 587.219 993.88 586.551 993.88 585.855V583.523C993.88 582.859 993.935 582.219 994.044 581.602C994.154 580.984 994.318 580.402 994.537 579.855C994.771 579.246 995.072 578.695 995.439 578.203C995.814 577.703 996.244 577.277 996.728 576.926C997.189 576.605 997.697 576.355 998.251 576.176C998.814 575.996 999.427 575.906 1000.09 575.906C1000.99 575.906 1001.79 576.039 1002.49 576.305C1003.2 576.57 1003.81 576.945 1004.31 577.43C1004.82 577.922 1005.22 578.516 1005.51 579.211C1005.8 579.906 1005.99 580.68 1006.08 581.531H1003.27C1003.22 581.023 1003.12 580.566 1002.97 580.16C1002.83 579.746 1002.64 579.395 1002.39 579.105C1002.13 578.816 1001.81 578.598 1001.44 578.449C1001.06 578.293 1000.61 578.215 1000.09 578.215C999.724 578.215 999.392 578.266 999.095 578.367C998.806 578.469 998.548 578.613 998.322 578.801C998.009 579.027 997.748 579.324 997.537 579.691C997.333 580.051 997.166 580.453 997.033 580.898C996.931 581.289 996.853 581.707 996.798 582.152C996.751 582.59 996.728 583.039 996.728 583.5V585.855C996.728 586.426 996.759 586.961 996.822 587.461C996.892 587.961 996.998 588.418 997.138 588.832C997.248 589.176 997.384 589.488 997.548 589.77C997.72 590.051 997.923 590.293 998.158 590.496C998.4 590.715 998.677 590.883 998.99 591C999.31 591.109 999.673 591.164 1000.08 591.164C1000.56 591.164 1000.99 591.094 1001.37 590.953C1001.74 590.812 1002.06 590.605 1002.33 590.332C1002.59 590.066 1002.79 589.734 1002.95 589.336C1003.11 588.938 1003.21 588.48 1003.26 587.965H1006.08ZM1020.62 578.484H1015.36V593.215H1012.56V578.484H1007.33V576.152H1020.62V578.484ZM1022.9 576.152H1032.95V578.484H1029.31V590.895H1032.95V593.215H1022.9V590.895H1026.46V578.484H1022.9V576.152ZM1048 585.82C1048 586.508 1047.94 587.172 1047.81 587.812C1047.7 588.453 1047.52 589.059 1047.3 589.629C1047.06 590.199 1046.75 590.727 1046.4 591.211C1046.04 591.688 1045.62 592.098 1045.15 592.441C1044.7 592.754 1044.2 593 1043.64 593.18C1043.09 593.359 1042.49 593.449 1041.84 593.449C1041.16 593.449 1040.53 593.355 1039.96 593.168C1039.4 592.973 1038.9 592.707 1038.45 592.371C1038 592.027 1037.6 591.613 1037.25 591.129C1036.92 590.645 1036.64 590.113 1036.41 589.535C1036.19 588.98 1036.03 588.391 1035.92 587.766C1035.81 587.133 1035.75 586.484 1035.75 585.82V583.57C1035.75 582.875 1035.81 582.203 1035.93 581.555C1036.05 580.906 1036.22 580.293 1036.46 579.715C1036.68 579.16 1036.96 578.652 1037.29 578.191C1037.63 577.723 1038.02 577.316 1038.47 576.973C1038.91 576.637 1039.41 576.379 1039.96 576.199C1040.52 576.012 1041.14 575.918 1041.81 575.918C1042.49 575.918 1043.12 576.012 1043.69 576.199C1044.26 576.387 1044.77 576.648 1045.22 576.984C1045.68 577.32 1046.07 577.715 1046.41 578.168C1046.74 578.621 1047.02 579.117 1047.25 579.656C1047.5 580.234 1047.69 580.855 1047.81 581.52C1047.94 582.176 1048 582.859 1048 583.57V585.82ZM1045.16 583.547C1045.16 583.117 1045.13 582.695 1045.08 582.281C1045.04 581.867 1044.97 581.473 1044.87 581.098C1044.75 580.668 1044.6 580.277 1044.4 579.926C1044.22 579.566 1043.99 579.262 1043.71 579.012C1043.47 578.793 1043.19 578.621 1042.88 578.496C1042.57 578.371 1042.21 578.309 1041.81 578.309C1041.43 578.309 1041.09 578.371 1040.78 578.496C1040.48 578.613 1040.21 578.777 1039.99 578.988C1039.71 579.246 1039.48 579.555 1039.29 579.914C1039.11 580.266 1038.96 580.66 1038.86 581.098C1038.77 581.473 1038.7 581.871 1038.65 582.293C1038.61 582.707 1038.59 583.125 1038.59 583.547V585.82C1038.59 586.234 1038.61 586.645 1038.65 587.051C1038.69 587.457 1038.75 587.848 1038.85 588.223C1038.95 588.645 1039.09 589.039 1039.26 589.406C1039.44 589.766 1039.65 590.07 1039.9 590.32C1040.15 590.555 1040.42 590.742 1040.74 590.883C1041.06 591.016 1041.42 591.082 1041.84 591.082C1042.24 591.082 1042.59 591.016 1042.91 590.883C1043.24 590.75 1043.52 590.57 1043.76 590.344C1044.03 590.086 1044.26 589.781 1044.44 589.43C1044.63 589.07 1044.77 588.676 1044.88 588.246C1044.98 587.871 1045.04 587.48 1045.08 587.074C1045.13 586.66 1045.16 586.242 1045.16 585.82V583.547ZM1061.41 593.215H1058.58L1053.04 581.473L1053.03 593.215H1050.18V576.152H1053.04L1058.55 587.848L1058.57 576.152H1061.41V593.215Z" fill="currentColor"/>
<rect x="916" y="397.537" width="181" height="241" rx="6" stroke="currentColor" stroke-width="4" stroke-linecap="round"/>
<g clip-path="url(#clip0_151532_573)">
<path d="M980.489 719.537C979.958 719.548 979.453 719.767 979.083 720.147C978.712 720.528 978.506 721.038 978.509 721.569L978.487 739.77C978.487 740.307 978.709 740.819 979.076 741.216C979.261 741.401 979.481 741.547 979.723 741.645C979.965 741.744 980.224 741.793 980.486 741.791H993.201L1023.6 807.354C1023.76 807.704 1024.01 808.001 1024.33 808.211C1024.65 808.421 1025.03 808.534 1025.41 808.537H1046.96C1047.49 808.533 1048.01 808.317 1048.38 807.936C1048.76 807.556 1048.97 807.041 1048.97 806.505V788.304C1048.97 788.038 1048.92 787.775 1048.82 787.528C1048.72 787.282 1048.58 787.058 1048.39 786.869C1048.2 786.68 1047.98 786.53 1047.73 786.427C1047.49 786.325 1047.22 786.272 1046.96 786.272H1039.49L1009.24 720.709C1009.08 720.361 1008.82 720.066 1008.49 719.859C1008.17 719.651 1007.79 719.54 1007.41 719.537H980.508H980.489ZM982.492 723.579H1006.1L1036.36 789.146C1036.52 789.496 1036.78 789.793 1037.1 790.002C1037.42 790.211 1037.79 790.323 1038.18 790.325H1044.91V804.48H1026.66L996.265 738.917C996.107 738.568 995.853 738.271 995.532 738.062C995.212 737.853 994.838 737.741 994.455 737.738H982.477L982.492 723.579ZM989.957 754.125C989.578 754.127 989.208 754.235 988.889 754.439C988.57 754.642 988.316 754.932 988.154 755.274L964.225 805.619C964.078 805.929 964.012 806.271 964.033 806.613C964.054 806.955 964.16 807.287 964.343 807.577C964.521 807.862 964.769 808.098 965.064 808.26C965.359 808.422 965.69 808.506 966.027 808.504H988.904C989.288 808.505 989.665 808.398 989.991 808.195C990.317 807.991 990.579 807.7 990.747 807.354L1003.28 780.784C1003.41 780.512 1003.48 780.214 1003.47 779.913C1003.47 779.612 1003.4 779.315 1003.27 779.045L991.8 755.274C991.633 754.93 991.373 754.64 991.049 754.437C990.725 754.233 990.35 754.125 989.968 754.125H989.957ZM989.979 760.815L999.205 779.92L987.628 804.469H969.22L989.979 760.815Z" fill="currentColor"/>
</g>
<path d="M947.622 840.82C947.622 840.422 947.54 840.07 947.376 839.766C947.212 839.461 946.982 839.188 946.685 838.945C946.372 838.719 946.001 838.516 945.572 838.336C945.15 838.148 944.677 837.98 944.154 837.832C943.349 837.605 942.607 837.328 941.927 837C941.255 836.664 940.681 836.289 940.204 835.875C939.728 835.453 939.353 834.977 939.079 834.445C938.814 833.906 938.681 833.301 938.681 832.629C938.681 831.902 938.837 831.25 939.15 830.672C939.462 830.086 939.884 829.586 940.415 829.172C940.947 828.766 941.564 828.457 942.267 828.246C942.978 828.027 943.724 827.918 944.505 827.918C945.333 827.918 946.103 828.047 946.814 828.305C947.532 828.555 948.157 828.906 948.689 829.359C949.22 829.82 949.638 830.371 949.943 831.012C950.255 831.645 950.411 832.348 950.411 833.121H947.622C947.583 832.691 947.49 832.301 947.341 831.949C947.2 831.59 947.001 831.281 946.743 831.023C946.478 830.773 946.154 830.578 945.771 830.438C945.396 830.289 944.962 830.215 944.47 830.215C944.04 830.215 943.642 830.273 943.275 830.391C942.915 830.5 942.603 830.656 942.337 830.859C942.072 831.07 941.865 831.324 941.716 831.621C941.568 831.918 941.493 832.25 941.493 832.617C941.501 833.008 941.603 833.352 941.798 833.648C941.993 833.938 942.255 834.191 942.583 834.41C942.919 834.629 943.302 834.82 943.732 834.984C944.169 835.148 944.626 835.301 945.103 835.441C945.704 835.613 946.29 835.828 946.861 836.086C947.439 836.336 947.97 836.641 948.454 837C949.056 837.453 949.536 837.996 949.896 838.629C950.263 839.254 950.447 839.977 950.447 840.797C950.447 841.555 950.286 842.223 949.966 842.801C949.654 843.379 949.232 843.859 948.7 844.242C948.161 844.641 947.536 844.941 946.825 845.145C946.115 845.34 945.365 845.438 944.575 845.438C943.74 845.438 942.915 845.309 942.103 845.051C941.29 844.785 940.583 844.402 939.982 843.902C939.427 843.434 938.986 842.883 938.657 842.25C938.337 841.617 938.173 840.891 938.165 840.07H940.978C941.017 840.594 941.126 841.051 941.306 841.441C941.493 841.824 941.747 842.141 942.068 842.391C942.38 842.648 942.747 842.84 943.169 842.965C943.599 843.09 944.068 843.152 944.575 843.152C945.005 843.152 945.404 843.102 945.771 843C946.146 842.898 946.47 842.746 946.743 842.543C947.009 842.348 947.22 842.105 947.376 841.816C947.54 841.527 947.622 841.195 947.622 840.82ZM962.717 837.562H955.662V842.895H963.901V845.215H952.838V828.152H963.842V830.484H955.662V835.289H962.717V837.562ZM972.374 838.594H969.492V845.215H966.679V828.152H972.093C972.976 828.16 973.788 828.273 974.531 828.492C975.273 828.711 975.913 829.031 976.453 829.453C976.984 829.883 977.398 830.418 977.695 831.059C977.992 831.691 978.14 832.434 978.14 833.285C978.14 833.871 978.062 834.402 977.906 834.879C977.757 835.355 977.546 835.785 977.273 836.168C976.999 836.551 976.671 836.887 976.288 837.176C975.906 837.465 975.48 837.715 975.011 837.926L978.656 845.062V845.215H975.644L972.374 838.594ZM969.492 836.297H972.128C972.628 836.289 973.078 836.215 973.476 836.074C973.882 835.926 974.226 835.715 974.507 835.441C974.757 835.207 974.953 834.918 975.093 834.574C975.234 834.23 975.304 833.84 975.304 833.402C975.304 832.91 975.226 832.48 975.07 832.113C974.921 831.738 974.699 831.426 974.402 831.176C974.128 830.941 973.796 830.766 973.406 830.648C973.015 830.523 972.578 830.457 972.093 830.449H969.492V836.297ZM984.668 845.215L979.418 828.152H982.5L985.747 839.965L986.028 840.984L986.321 839.953L989.59 828.152H992.661L987.411 845.215H984.668ZM1004.59 837.562H997.537V842.895H1005.77V845.215H994.712V828.152H1005.72V830.484H997.537V835.289H1004.59V837.562ZM1014.25 838.594H1011.37V845.215H1008.55V828.152H1013.97C1014.85 828.16 1015.66 828.273 1016.4 828.492C1017.15 828.711 1017.79 829.031 1018.33 829.453C1018.86 829.883 1019.27 830.418 1019.57 831.059C1019.87 831.691 1020.01 832.434 1020.01 833.285C1020.01 833.871 1019.94 834.402 1019.78 834.879C1019.63 835.355 1019.42 835.785 1019.15 836.168C1018.87 836.551 1018.55 836.887 1018.16 837.176C1017.78 837.465 1017.35 837.715 1016.89 837.926L1020.53 845.062V845.215H1017.52L1014.25 838.594ZM1011.37 836.297H1014C1014.5 836.289 1014.95 836.215 1015.35 836.074C1015.76 835.926 1016.1 835.715 1016.38 835.441C1016.63 835.207 1016.83 834.918 1016.97 834.574C1017.11 834.23 1017.18 833.84 1017.18 833.402C1017.18 832.91 1017.1 832.48 1016.94 832.113C1016.8 831.738 1016.57 831.426 1016.28 831.176C1016 830.941 1015.67 830.766 1015.28 830.648C1014.89 830.523 1014.45 830.457 1013.97 830.449H1011.37V836.297ZM1025.55 842.895H1033.69V845.215H1022.72V828.152H1025.55V842.895ZM1046.47 837.562H1039.41V842.895H1047.65V845.215H1036.59V828.152H1047.59V830.484H1039.41V835.289H1046.47V837.562ZM1059.29 840.82C1059.29 840.422 1059.2 840.07 1059.04 839.766C1058.88 839.461 1058.65 839.188 1058.35 838.945C1058.04 838.719 1057.67 838.516 1057.24 838.336C1056.81 838.148 1056.34 837.98 1055.82 837.832C1055.01 837.605 1054.27 837.328 1053.59 837C1052.92 836.664 1052.35 836.289 1051.87 835.875C1051.39 835.453 1051.02 834.977 1050.74 834.445C1050.48 833.906 1050.35 833.301 1050.35 832.629C1050.35 831.902 1050.5 831.25 1050.81 830.672C1051.13 830.086 1051.55 829.586 1052.08 829.172C1052.61 828.766 1053.23 828.457 1053.93 828.246C1054.64 828.027 1055.39 827.918 1056.17 827.918C1057 827.918 1057.77 828.047 1058.48 828.305C1059.2 828.555 1059.82 828.906 1060.35 829.359C1060.88 829.82 1061.3 830.371 1061.61 831.012C1061.92 831.645 1062.08 832.348 1062.08 833.121H1059.29C1059.25 832.691 1059.15 832.301 1059.01 831.949C1058.86 831.59 1058.67 831.281 1058.41 831.023C1058.14 830.773 1057.82 830.578 1057.44 830.438C1057.06 830.289 1056.63 830.215 1056.13 830.215C1055.7 830.215 1055.31 830.273 1054.94 830.391C1054.58 830.5 1054.27 830.656 1054 830.859C1053.74 831.07 1053.53 831.324 1053.38 831.621C1053.23 831.918 1053.16 832.25 1053.16 832.617C1053.17 833.008 1053.27 833.352 1053.46 833.648C1053.66 833.938 1053.92 834.191 1054.25 834.41C1054.58 834.629 1054.97 834.82 1055.4 834.984C1055.83 835.148 1056.29 835.301 1056.77 835.441C1057.37 835.613 1057.95 835.828 1058.53 836.086C1059.1 836.336 1059.63 836.641 1060.12 837C1060.72 837.453 1061.2 837.996 1061.56 838.629C1061.93 839.254 1062.11 839.977 1062.11 840.797C1062.11 841.555 1061.95 842.223 1061.63 842.801C1061.32 843.379 1060.9 843.859 1060.36 844.242C1059.83 844.641 1059.2 844.941 1058.49 845.145C1057.78 845.34 1057.03 845.438 1056.24 845.438C1055.4 845.438 1054.58 845.309 1053.77 845.051C1052.95 844.785 1052.25 844.402 1051.65 843.902C1051.09 843.434 1050.65 842.883 1050.32 842.25C1050 841.617 1049.84 840.891 1049.83 840.07H1052.64C1052.68 840.594 1052.79 841.051 1052.97 841.441C1053.16 841.824 1053.41 842.141 1053.73 842.391C1054.04 842.648 1054.41 842.84 1054.83 842.965C1055.26 843.09 1055.73 843.152 1056.24 843.152C1056.67 843.152 1057.07 843.102 1057.44 843C1057.81 842.898 1058.13 842.746 1058.41 842.543C1058.67 842.348 1058.88 842.105 1059.04 841.816C1059.2 841.527 1059.29 841.195 1059.29 840.82ZM1073.24 840.82C1073.24 840.422 1073.16 840.07 1073 839.766C1072.83 839.461 1072.6 839.188 1072.31 838.945C1071.99 838.719 1071.62 838.516 1071.19 838.336C1070.77 838.148 1070.3 837.98 1069.78 837.832C1068.97 837.605 1068.23 837.328 1067.55 837C1066.88 836.664 1066.3 836.289 1065.83 835.875C1065.35 835.453 1064.98 834.977 1064.7 834.445C1064.44 833.906 1064.3 833.301 1064.3 832.629C1064.3 831.902 1064.46 831.25 1064.77 830.672C1065.08 830.086 1065.51 829.586 1066.04 829.172C1066.57 828.766 1067.19 828.457 1067.89 828.246C1068.6 828.027 1069.35 827.918 1070.13 827.918C1070.96 827.918 1071.73 828.047 1072.44 828.305C1073.16 828.555 1073.78 828.906 1074.31 829.359C1074.84 829.82 1075.26 830.371 1075.57 831.012C1075.88 831.645 1076.03 832.348 1076.03 833.121H1073.24C1073.21 832.691 1073.11 832.301 1072.96 831.949C1072.82 831.59 1072.62 831.281 1072.37 831.023C1072.1 830.773 1071.78 830.578 1071.39 830.438C1071.02 830.289 1070.58 830.215 1070.09 830.215C1069.66 830.215 1069.26 830.273 1068.9 830.391C1068.54 830.5 1068.23 830.656 1067.96 830.859C1067.69 831.07 1067.49 831.324 1067.34 831.621C1067.19 831.918 1067.12 832.25 1067.12 832.617C1067.12 833.008 1067.23 833.352 1067.42 833.648C1067.62 833.938 1067.88 834.191 1068.21 834.41C1068.54 834.629 1068.92 834.82 1069.35 834.984C1069.79 835.148 1070.25 835.301 1070.73 835.441C1071.33 835.613 1071.91 835.828 1072.48 836.086C1073.06 836.336 1073.59 836.641 1074.08 837C1074.68 837.453 1075.16 837.996 1075.52 838.629C1075.89 839.254 1076.07 839.977 1076.07 840.797C1076.07 841.555 1075.91 842.223 1075.59 842.801C1075.28 843.379 1074.85 843.859 1074.32 844.242C1073.78 844.641 1073.16 844.941 1072.45 845.145C1071.74 845.34 1070.99 845.438 1070.2 845.438C1069.36 845.438 1068.54 845.309 1067.73 845.051C1066.91 844.785 1066.21 844.402 1065.6 843.902C1065.05 843.434 1064.61 842.883 1064.28 842.25C1063.96 841.617 1063.8 840.891 1063.79 840.07H1066.6C1066.64 840.594 1066.75 841.051 1066.93 841.441C1067.12 841.824 1067.37 842.141 1067.69 842.391C1068 842.648 1068.37 842.84 1068.79 842.965C1069.22 843.09 1069.69 843.152 1070.2 843.152C1070.63 843.152 1071.03 843.102 1071.39 843C1071.77 842.898 1072.09 842.746 1072.37 842.543C1072.63 842.348 1072.84 842.105 1073 841.816C1073.16 841.527 1073.24 841.195 1073.24 840.82ZM962.951 873.949H955.733V881.215H952.897V864.152H963.983V866.484H955.733V871.629H962.951V873.949ZM977.742 864.152L977.753 875.566C977.753 876.449 977.617 877.254 977.343 877.98C977.077 878.699 976.699 879.316 976.206 879.832C975.706 880.348 975.105 880.746 974.402 881.027C973.706 881.309 972.925 881.449 972.058 881.449C971.206 881.449 970.437 881.312 969.749 881.039C969.062 880.758 968.476 880.359 967.992 879.844C967.499 879.328 967.117 878.707 966.843 877.98C966.577 877.254 966.441 876.449 966.433 875.566L966.456 864.152H969.234L969.257 875.566C969.265 876.105 969.331 876.602 969.456 877.055C969.581 877.5 969.765 877.879 970.007 878.191C970.242 878.488 970.527 878.723 970.863 878.895C971.206 879.059 971.605 879.141 972.058 879.141C972.519 879.141 972.925 879.059 973.277 878.895C973.636 878.723 973.937 878.48 974.179 878.168C974.421 877.848 974.605 877.469 974.73 877.031C974.855 876.586 974.925 876.098 974.941 875.566L974.964 864.152H977.742ZM991.618 881.215H988.793L983.25 869.473L983.239 881.215H980.391V864.152H983.25L988.758 875.848L988.782 864.152H991.618V881.215ZM1006.08 875.965C1006 876.793 1005.81 877.547 1005.49 878.227C1005.18 878.898 1004.77 879.473 1004.26 879.949C1003.75 880.434 1003.13 880.809 1002.42 881.074C1001.72 881.332 1000.94 881.461 1000.08 881.461C999.376 881.461 998.728 881.367 998.134 881.18C997.548 880.984 997.025 880.711 996.564 880.359C996.119 880.031 995.728 879.637 995.392 879.176C995.064 878.707 994.787 878.195 994.56 877.641C994.333 877.094 994.162 876.5 994.044 875.859C993.935 875.219 993.88 874.551 993.88 873.855V871.523C993.88 870.859 993.935 870.219 994.044 869.602C994.154 868.984 994.318 868.402 994.537 867.855C994.771 867.246 995.072 866.695 995.439 866.203C995.814 865.703 996.244 865.277 996.728 864.926C997.189 864.605 997.697 864.355 998.251 864.176C998.814 863.996 999.427 863.906 1000.09 863.906C1000.99 863.906 1001.79 864.039 1002.49 864.305C1003.2 864.57 1003.81 864.945 1004.31 865.43C1004.82 865.922 1005.22 866.516 1005.51 867.211C1005.8 867.906 1005.99 868.68 1006.08 869.531H1003.27C1003.22 869.023 1003.12 868.566 1002.97 868.16C1002.83 867.746 1002.64 867.395 1002.39 867.105C1002.13 866.816 1001.81 866.598 1001.44 866.449C1001.06 866.293 1000.61 866.215 1000.09 866.215C999.724 866.215 999.392 866.266 999.095 866.367C998.806 866.469 998.548 866.613 998.322 866.801C998.009 867.027 997.748 867.324 997.537 867.691C997.333 868.051 997.166 868.453 997.033 868.898C996.931 869.289 996.853 869.707 996.798 870.152C996.751 870.59 996.728 871.039 996.728 871.5V873.855C996.728 874.426 996.759 874.961 996.822 875.461C996.892 875.961 996.998 876.418 997.138 876.832C997.248 877.176 997.384 877.488 997.548 877.77C997.72 878.051 997.923 878.293 998.158 878.496C998.4 878.715 998.677 878.883 998.99 879C999.31 879.109 999.673 879.164 1000.08 879.164C1000.56 879.164 1000.99 879.094 1001.37 878.953C1001.74 878.812 1002.06 878.605 1002.33 878.332C1002.59 878.066 1002.79 877.734 1002.95 877.336C1003.11 876.938 1003.21 876.48 1003.26 875.965H1006.08ZM1020.62 866.484H1015.36V881.215H1012.56V866.484H1007.33V864.152H1020.62V866.484ZM1022.9 864.152H1032.95V866.484H1029.31V878.895H1032.95V881.215H1022.9V878.895H1026.46V866.484H1022.9V864.152ZM1048 873.82C1048 874.508 1047.94 875.172 1047.81 875.812C1047.7 876.453 1047.52 877.059 1047.3 877.629C1047.06 878.199 1046.75 878.727 1046.4 879.211C1046.04 879.688 1045.62 880.098 1045.15 880.441C1044.7 880.754 1044.2 881 1043.64 881.18C1043.09 881.359 1042.49 881.449 1041.84 881.449C1041.16 881.449 1040.53 881.355 1039.96 881.168C1039.4 880.973 1038.9 880.707 1038.45 880.371C1038 880.027 1037.6 879.613 1037.25 879.129C1036.92 878.645 1036.64 878.113 1036.41 877.535C1036.19 876.98 1036.03 876.391 1035.92 875.766C1035.81 875.133 1035.75 874.484 1035.75 873.82V871.57C1035.75 870.875 1035.81 870.203 1035.93 869.555C1036.05 868.906 1036.22 868.293 1036.46 867.715C1036.68 867.16 1036.96 866.652 1037.29 866.191C1037.63 865.723 1038.02 865.316 1038.47 864.973C1038.91 864.637 1039.41 864.379 1039.96 864.199C1040.52 864.012 1041.14 863.918 1041.81 863.918C1042.49 863.918 1043.12 864.012 1043.69 864.199C1044.26 864.387 1044.77 864.648 1045.22 864.984C1045.68 865.32 1046.07 865.715 1046.41 866.168C1046.74 866.621 1047.02 867.117 1047.25 867.656C1047.5 868.234 1047.69 868.855 1047.81 869.52C1047.94 870.176 1048 870.859 1048 871.57V873.82ZM1045.16 871.547C1045.16 871.117 1045.13 870.695 1045.08 870.281C1045.04 869.867 1044.97 869.473 1044.87 869.098C1044.75 868.668 1044.6 868.277 1044.4 867.926C1044.22 867.566 1043.99 867.262 1043.71 867.012C1043.47 866.793 1043.19 866.621 1042.88 866.496C1042.57 866.371 1042.21 866.309 1041.81 866.309C1041.43 866.309 1041.09 866.371 1040.78 866.496C1040.48 866.613 1040.21 866.777 1039.99 866.988C1039.71 867.246 1039.48 867.555 1039.29 867.914C1039.11 868.266 1038.96 868.66 1038.86 869.098C1038.77 869.473 1038.7 869.871 1038.65 870.293C1038.61 870.707 1038.59 871.125 1038.59 871.547V873.82C1038.59 874.234 1038.61 874.645 1038.65 875.051C1038.69 875.457 1038.75 875.848 1038.85 876.223C1038.95 876.645 1039.09 877.039 1039.26 877.406C1039.44 877.766 1039.65 878.07 1039.9 878.32C1040.15 878.555 1040.42 878.742 1040.74 878.883C1041.06 879.016 1041.42 879.082 1041.84 879.082C1042.24 879.082 1042.59 879.016 1042.91 878.883C1043.24 878.75 1043.52 878.57 1043.76 878.344C1044.03 878.086 1044.26 877.781 1044.44 877.43C1044.63 877.07 1044.77 876.676 1044.88 876.246C1044.98 875.871 1045.04 875.48 1045.08 875.074C1045.13 874.66 1045.16 874.242 1045.16 873.82V871.547ZM1061.41 881.215H1058.58L1053.04 869.473L1053.03 881.215H1050.18V864.152H1053.04L1058.55 875.848L1058.57 864.152H1061.41V881.215Z" fill="currentColor"/>
<rect x="916" y="683.537" width="181" height="241" rx="6" stroke="currentColor" stroke-width="4" stroke-linecap="round"/>
<path d="M980.542 1016.66H1028.75C1031.7 1016.66 1034.53 1017.83 1036.62 1019.92C1038.7 1022.01 1039.88 1024.84 1039.88 1027.79V1076C1039.88 1078.95 1038.7 1081.78 1036.62 1083.86C1034.53 1085.95 1031.7 1087.12 1028.75 1087.12H980.542C977.591 1087.12 974.762 1085.95 972.675 1083.86C970.589 1081.78 969.417 1078.95 969.417 1076V1027.79C969.417 1024.84 970.589 1022.01 972.675 1019.92C974.762 1017.83 977.591 1016.66 980.542 1016.66ZM980.542 1020.37C978.575 1020.37 976.689 1021.15 975.298 1022.54C973.907 1023.93 973.125 1025.82 973.125 1027.79V1070.77L989.034 1054.82L998.305 1064.09L1016.85 1045.55L1036.17 1064.87V1027.79C1036.17 1025.82 1035.39 1023.93 1033.99 1022.54C1032.6 1021.15 1030.72 1020.37 1028.75 1020.37H980.542ZM998.305 1069.36L989.034 1060.09L973.125 1076C973.125 1077.96 973.907 1079.85 975.298 1081.24C976.689 1082.63 978.575 1083.41 980.542 1083.41H1028.75C1030.72 1083.41 1032.6 1082.63 1033.99 1081.24C1035.39 1079.85 1036.17 1077.96 1036.17 1076V1070.1L1016.85 1050.82L998.305 1069.36ZM989.813 1027.79C992.272 1027.79 994.63 1028.76 996.368 1030.5C998.107 1032.24 999.084 1034.6 999.084 1037.06C999.084 1039.52 998.107 1041.87 996.368 1043.61C994.63 1045.35 992.272 1046.33 989.813 1046.33C987.354 1046.33 984.996 1045.35 983.257 1043.61C981.519 1041.87 980.542 1039.52 980.542 1037.06C980.542 1034.6 981.519 1032.24 983.257 1030.5C984.996 1028.76 987.354 1027.79 989.813 1027.79ZM989.813 1031.5C988.338 1031.5 986.923 1032.08 985.88 1033.12C984.836 1034.17 984.25 1035.58 984.25 1037.06C984.25 1038.53 984.836 1039.95 985.88 1040.99C986.923 1042.03 988.338 1042.62 989.813 1042.62C991.288 1042.62 992.703 1042.03 993.746 1040.99C994.789 1039.95 995.375 1038.53 995.375 1037.06C995.375 1035.58 994.789 1034.17 993.746 1033.12C992.703 1032.08 991.288 1031.5 989.813 1031.5Z" fill="currentColor"/>
<path d="M974.045 1114.15H984.099V1116.48H980.455V1128.89H984.099V1131.21H974.045V1128.89H977.607V1116.48H974.045V1114.15ZM990.921 1114.15L993.03 1121.45L995.362 1114.15H998.866V1131.21H996.218V1125.43L996.382 1117.81L993.757 1125.95H992.292L989.913 1118.09L990.065 1125.43V1131.21H987.429V1114.15H990.921ZM1009.82 1127.29H1004.47L1003.31 1131.21H1000.38L1005.93 1114.15H1008.43L1013.89 1131.21H1010.97L1009.82 1127.29ZM1005.18 1124.88H1009.13L1007.18 1118.12L1005.18 1124.88ZM1026.93 1129.12C1026.7 1129.4 1026.42 1129.67 1026.08 1129.94C1025.74 1130.2 1025.36 1130.43 1024.94 1130.63C1024.41 1130.89 1023.83 1131.09 1023.21 1131.23C1022.58 1131.38 1021.92 1131.45 1021.2 1131.45C1020.55 1131.45 1019.93 1131.36 1019.36 1131.19C1018.79 1131.02 1018.28 1130.78 1017.82 1130.46C1017.36 1130.15 1016.94 1129.77 1016.58 1129.33C1016.22 1128.88 1015.92 1128.39 1015.67 1127.84C1015.4 1127.27 1015.19 1126.64 1015.05 1125.95C1014.91 1125.27 1014.84 1124.54 1014.83 1123.79V1121.61C1014.84 1120.87 1014.9 1120.17 1015.03 1119.5C1015.16 1118.82 1015.35 1118.2 1015.6 1117.63C1015.84 1117.09 1016.13 1116.6 1016.47 1116.16C1016.81 1115.71 1017.19 1115.32 1017.62 1115C1018.09 1114.65 1018.6 1114.39 1019.17 1114.2C1019.74 1114.01 1020.35 1113.92 1021.02 1113.92C1021.92 1113.92 1022.71 1114.04 1023.41 1114.28C1024.1 1114.52 1024.7 1114.87 1025.19 1115.32C1025.69 1115.79 1026.08 1116.34 1026.37 1117C1026.66 1117.65 1026.84 1118.38 1026.92 1119.19H1024.16C1024.09 1118.75 1023.98 1118.34 1023.84 1117.98C1023.7 1117.62 1023.51 1117.31 1023.28 1117.06C1023.03 1116.79 1022.72 1116.59 1022.35 1116.45C1021.99 1116.31 1021.57 1116.24 1021.08 1116.24C1020.72 1116.24 1020.38 1116.3 1020.08 1116.43C1019.77 1116.54 1019.5 1116.71 1019.26 1116.92C1018.98 1117.16 1018.73 1117.46 1018.52 1117.82C1018.32 1118.17 1018.15 1118.57 1018.02 1119C1017.9 1119.39 1017.81 1119.8 1017.76 1120.23C1017.7 1120.67 1017.68 1121.12 1017.68 1121.58V1123.79C1017.68 1124.32 1017.71 1124.84 1017.78 1125.32C1017.86 1125.8 1017.97 1126.25 1018.12 1126.67C1018.24 1126.98 1018.38 1127.27 1018.53 1127.55C1018.7 1127.82 1018.89 1128.06 1019.11 1128.27C1019.38 1128.55 1019.7 1128.76 1020.06 1128.91C1020.42 1129.05 1020.84 1129.13 1021.3 1129.14C1021.57 1129.14 1021.85 1129.12 1022.13 1129.09C1022.41 1129.05 1022.68 1129 1022.94 1128.92C1023.19 1128.84 1023.42 1128.74 1023.63 1128.62C1023.84 1128.5 1024.01 1128.36 1024.13 1128.19L1024.15 1124.78H1021.05V1122.59H1026.91L1026.93 1129.12ZM1039.49 1123.56H1032.43V1128.89H1040.67V1131.21H1029.61V1114.15H1040.61V1116.48H1032.43V1121.29H1039.49V1123.56ZM957.273 1159.82C957.273 1160.51 957.211 1161.17 957.086 1161.81C956.969 1162.45 956.797 1163.06 956.57 1163.63C956.328 1164.2 956.027 1164.73 955.668 1165.21C955.308 1165.69 954.894 1166.1 954.426 1166.44C953.972 1166.75 953.469 1167 952.914 1167.18C952.367 1167.36 951.765 1167.45 951.109 1167.45C950.429 1167.45 949.804 1167.36 949.234 1167.17C948.672 1166.97 948.168 1166.71 947.722 1166.37C947.269 1166.03 946.871 1165.61 946.527 1165.13C946.191 1164.64 945.91 1164.11 945.683 1163.54C945.465 1162.98 945.301 1162.39 945.191 1161.77C945.082 1161.13 945.027 1160.48 945.027 1159.82V1157.57C945.027 1156.88 945.086 1156.2 945.203 1155.55C945.32 1154.91 945.496 1154.29 945.73 1153.71C945.957 1153.16 946.234 1152.65 946.562 1152.19C946.898 1151.72 947.293 1151.32 947.746 1150.97C948.183 1150.64 948.679 1150.38 949.234 1150.2C949.797 1150.01 950.414 1149.92 951.086 1149.92C951.765 1149.92 952.39 1150.01 952.961 1150.2C953.531 1150.39 954.043 1150.65 954.496 1150.98C954.949 1151.32 955.344 1151.71 955.679 1152.17C956.015 1152.62 956.297 1153.12 956.523 1153.66C956.773 1154.23 956.961 1154.86 957.086 1155.52C957.211 1156.18 957.273 1156.86 957.273 1157.57V1159.82ZM954.437 1157.55C954.429 1157.12 954.402 1156.7 954.355 1156.28C954.316 1155.87 954.246 1155.47 954.144 1155.1C954.027 1154.67 953.871 1154.28 953.676 1153.93C953.488 1153.57 953.258 1153.26 952.984 1153.01C952.742 1152.79 952.465 1152.62 952.152 1152.5C951.84 1152.37 951.484 1152.31 951.086 1152.31C950.703 1152.31 950.359 1152.37 950.054 1152.5C949.75 1152.61 949.484 1152.78 949.258 1152.99C948.984 1153.25 948.754 1153.55 948.566 1153.91C948.379 1154.27 948.234 1154.66 948.133 1155.1C948.039 1155.47 947.969 1155.87 947.922 1156.29C947.883 1156.71 947.863 1157.12 947.863 1157.55V1159.82C947.863 1160.23 947.883 1160.64 947.922 1161.05C947.961 1161.46 948.027 1161.85 948.121 1162.22C948.222 1162.64 948.359 1163.04 948.531 1163.41C948.711 1163.77 948.926 1164.07 949.176 1164.32C949.418 1164.55 949.695 1164.74 950.008 1164.88C950.328 1165.02 950.695 1165.08 951.109 1165.08C951.508 1165.08 951.867 1165.02 952.187 1164.88C952.515 1164.75 952.797 1164.57 953.031 1164.34C953.304 1164.09 953.531 1163.78 953.711 1163.43C953.898 1163.07 954.047 1162.68 954.156 1162.25C954.25 1161.87 954.316 1161.48 954.355 1161.07C954.402 1160.66 954.429 1160.24 954.437 1159.82V1157.55ZM962.688 1160.71V1167.21H959.876V1150.15H965.583C966.442 1150.16 967.231 1150.29 967.95 1150.54C968.677 1150.79 969.302 1151.14 969.825 1151.61C970.348 1152.07 970.755 1152.62 971.044 1153.28C971.333 1153.94 971.477 1154.68 971.477 1155.5C971.477 1156.29 971.333 1157 971.044 1157.64C970.755 1158.27 970.348 1158.82 969.825 1159.27C969.302 1159.73 968.677 1160.09 967.95 1160.34C967.231 1160.59 966.442 1160.71 965.583 1160.71H962.688ZM962.688 1158.41H965.583C966.059 1158.41 966.485 1158.33 966.86 1158.19C967.243 1158.04 967.567 1157.84 967.833 1157.58C968.098 1157.32 968.298 1157.02 968.431 1156.67C968.571 1156.32 968.641 1155.93 968.641 1155.52C968.641 1155.07 968.571 1154.66 968.431 1154.29C968.298 1153.91 968.098 1153.59 967.833 1153.32C967.567 1153.04 967.243 1152.83 966.86 1152.68C966.485 1152.54 966.059 1152.46 965.583 1152.45H962.688V1158.41ZM985.728 1152.48H980.467V1167.21H977.666V1152.48H972.439V1150.15H985.728V1152.48ZM988.003 1150.15H998.058V1152.48H994.413V1164.89H998.058V1167.21H988.003V1164.89H991.565V1152.48H988.003V1150.15ZM1004.88 1150.15L1006.99 1157.45L1009.32 1150.15H1012.82V1167.21H1010.18V1161.43L1010.34 1153.81L1007.71 1161.95H1006.25L1003.87 1154.09L1004.02 1161.43V1167.21H1001.39V1150.15H1004.88ZM1015.92 1150.15H1025.97V1152.48H1022.33V1164.89H1025.97V1167.21H1015.92V1164.89H1019.48V1152.48H1015.92V1150.15ZM1032.23 1164.89H1040.86V1167.21H1028.88L1028.87 1165.34L1037.24 1152.48H1028.95V1150.15H1040.59L1040.61 1151.98L1032.23 1164.89ZM1053.44 1159.56H1046.39V1164.89H1054.63V1167.21H1043.57V1150.15H1054.57V1152.48H1046.39V1157.29H1053.44V1159.56ZM1063.1 1160.59H1060.22V1167.21H1057.41V1150.15H1062.82C1063.7 1150.16 1064.52 1150.27 1065.26 1150.49C1066 1150.71 1066.64 1151.03 1067.18 1151.45C1067.71 1151.88 1068.13 1152.42 1068.42 1153.06C1068.72 1153.69 1068.87 1154.43 1068.87 1155.29C1068.87 1155.87 1068.79 1156.4 1068.63 1156.88C1068.48 1157.36 1068.27 1157.79 1068 1158.17C1067.73 1158.55 1067.4 1158.89 1067.02 1159.18C1066.63 1159.46 1066.21 1159.71 1065.74 1159.93L1069.38 1167.06V1167.21H1066.37L1063.1 1160.59ZM1060.22 1158.3H1062.86C1063.36 1158.29 1063.8 1158.21 1064.2 1158.07C1064.61 1157.93 1064.95 1157.71 1065.23 1157.44C1065.48 1157.21 1065.68 1156.92 1065.82 1156.57C1065.96 1156.23 1066.03 1155.84 1066.03 1155.4C1066.03 1154.91 1065.95 1154.48 1065.8 1154.11C1065.65 1153.74 1065.43 1153.43 1065.13 1153.18C1064.86 1152.94 1064.52 1152.77 1064.13 1152.65C1063.74 1152.52 1063.3 1152.46 1062.82 1152.45H1060.22V1158.3Z" fill="currentColor"/>
<rect x="916" y="969.537" width="181" height="241" rx="6" stroke="currentColor" stroke-width="4" stroke-linecap="round"/>
<path d="M600 660.074C598.895 660.074 598 660.97 598 662.074C598 663.179 598.895 664.074 600 664.074V660.074ZM908.914 519.451C909.695 518.67 909.695 517.404 908.914 516.623L896.186 503.895C895.405 503.114 894.139 503.114 893.358 503.895C892.577 504.676 892.577 505.942 893.358 506.723L904.672 518.037L893.358 529.351C892.577 530.132 892.577 531.398 893.358 532.179C894.139 532.96 895.405 532.96 896.186 532.179L908.914 519.451ZM600 662.074V664.074H730V662.074V660.074H600V662.074ZM754 638.074H756V542.037H754H752V638.074H754ZM778 518.037V520.037H907.5V518.037V516.037H778V518.037ZM754 542.037H756C756 529.887 765.85 520.037 778 520.037V518.037V516.037C763.641 516.037 752 527.678 752 542.037H754ZM730 662.074V664.074C744.359 664.074 756 652.434 756 638.074H754H752C752 650.224 742.15 660.074 730 660.074V662.074Z" fill="currentColor"/>
<path d="M600 660.074C598.895 660.074 598 660.97 598 662.074C598 663.179 598.895 664.074 600 664.074V660.074ZM908.914 805.451C909.695 804.67 909.695 803.404 908.914 802.623L896.186 789.895C895.405 789.114 894.139 789.114 893.358 789.895C892.577 790.676 892.577 791.942 893.358 792.723L904.672 804.037L893.358 815.351C892.577 816.132 892.577 817.398 893.358 818.179C894.139 818.96 895.405 818.96 896.186 818.179L908.914 805.451ZM600 662.074V664.074H730V662.074V660.074H600V662.074ZM754 686.074H752V780.037H754H756V686.074H754ZM778 804.037V806.037H907.5V804.037V802.037H778V804.037ZM754 780.037H752C752 794.397 763.641 806.037 778 806.037V804.037V802.037C765.85 802.037 756 792.187 756 780.037H754ZM730 662.074V664.074C742.15 664.074 752 673.924 752 686.074H754H756C756 671.715 744.359 660.074 730 660.074V662.074Z" fill="currentColor"/>
<path d="M600 660.074C598.895 660.074 598 660.97 598 662.074C598 663.179 598.895 664.074 600 664.074V660.074ZM908.914 1091.45C909.695 1090.67 909.695 1089.4 908.914 1088.62L896.186 1075.89C895.405 1075.11 894.139 1075.11 893.358 1075.89C892.577 1076.68 892.577 1077.94 893.358 1078.72L904.672 1090.04L893.358 1101.35C892.577 1102.13 892.577 1103.4 893.358 1104.18C894.139 1104.96 895.405 1104.96 896.186 1104.18L908.914 1091.45ZM600 662.074V664.074H730V662.074V660.074H600V662.074ZM754 686.074H752V1066.04H754H756V686.074H754ZM778 1090.04V1092.04H907.5V1090.04V1088.04H778V1090.04ZM754 1066.04H752C752 1080.4 763.641 1092.04 778 1092.04V1090.04V1088.04C765.85 1088.04 756 1078.19 756 1066.04H754ZM730 662.074V664.074C742.15 664.074 752 673.924 752 686.074H754H756C756 671.715 744.359 660.074 730 660.074V662.074Z" fill="currentColor"/>
<defs>
<clipPath id="clip0_151532_573">
<rect width="89" height="89" fill="white" transform="translate(962 719.537)"/>
</clipPath>
</defs>
</svg>
