<svg width="1186" height="1226" viewBox="0 0 1186 1226" fill="none" xmlns="http://www.w3.org/2000/svg">
<path fill-rule="evenodd" clip-rule="evenodd" d="M580.389 299.594C580.04 302.62 579.869 305.649 579.869 308.5C579.869 311.351 580.04 314.38 580.389 317.406H604.611C604.96 314.38 605.131 311.351 605.131 308.5C605.131 305.649 604.96 302.62 604.611 299.594H580.389ZM574.415 299.594C574.088 302.646 573.931 305.667 573.931 308.5C573.931 311.333 574.088 314.354 574.415 317.406H561.082C560.262 314.515 559.844 311.518 559.844 308.5C559.844 305.482 560.262 302.485 561.082 299.594H574.415ZM581.313 293.656H603.687C603.149 290.952 602.457 288.353 601.606 286.001C600.411 282.696 598.97 280.067 597.36 278.312C595.792 276.602 594.195 275.844 592.5 275.844C590.805 275.844 589.208 276.602 587.64 278.312C586.03 280.067 584.589 282.696 583.394 286.001C582.543 288.353 581.851 290.952 581.313 293.656ZM580.488 278.133C579.444 279.927 578.558 281.912 577.81 283.982C576.727 286.978 575.886 290.274 575.269 293.656H563.412C564.964 290.615 566.986 287.831 569.409 285.409C572.441 282.376 576.041 279.971 580.003 278.33C580.164 278.263 580.326 278.197 580.488 278.133ZM556.308 295.097C556.478 294.639 556.657 294.183 556.844 293.731C558.784 289.048 561.626 284.794 565.21 281.21C568.794 277.626 573.048 274.784 577.731 272.844C582.413 270.905 587.432 269.906 592.5 269.906C597.568 269.906 602.587 270.905 607.269 272.844C611.952 274.784 616.206 277.626 619.79 281.21C623.374 284.794 626.216 289.048 628.156 293.731C628.343 294.183 628.522 294.639 628.692 295.097C628.894 295.433 629.031 295.811 629.087 296.216C630.414 300.17 631.094 304.318 631.094 308.5C631.094 312.682 630.414 316.83 629.087 320.784C629.031 321.189 628.894 321.567 628.692 321.903C628.522 322.361 628.343 322.817 628.156 323.269C626.216 327.952 623.374 332.206 619.79 335.79C616.206 339.374 611.952 342.216 607.269 344.156C602.587 346.095 597.568 347.094 592.5 347.094C587.432 347.094 582.413 346.095 577.731 344.156C573.048 342.216 568.794 339.374 565.21 335.79C561.626 332.206 558.784 327.952 556.844 323.269C556.657 322.817 556.478 322.361 556.308 321.903C556.106 321.567 555.969 321.189 555.913 320.784C554.586 316.83 553.906 312.682 553.906 308.5C553.906 304.318 554.586 300.17 555.913 296.216C555.969 295.811 556.106 295.433 556.308 295.097ZM563.412 323.344C564.964 326.385 566.986 329.169 569.409 331.591C572.441 334.624 576.041 337.029 580.003 338.67C580.164 338.737 580.326 338.803 580.488 338.867C579.444 337.073 578.558 335.088 577.81 333.018C576.727 330.022 575.886 326.726 575.269 323.344H563.412ZM581.313 323.344C581.851 326.048 582.543 328.647 583.394 330.999C584.589 334.304 586.03 336.933 587.64 338.688C589.208 340.398 590.805 341.156 592.5 341.156C594.195 341.156 595.792 340.398 597.36 338.688C598.97 336.933 600.411 334.304 601.606 330.999C602.457 328.647 603.149 326.048 603.687 323.344H581.313ZM609.731 323.344C609.114 326.726 608.273 330.022 607.19 333.018C606.442 335.088 605.556 337.073 604.512 338.867C604.674 338.803 604.836 338.737 604.997 338.67C608.959 337.029 612.559 334.624 615.591 331.591C618.014 329.169 620.036 326.385 621.588 323.344H609.731ZM623.918 317.406C624.738 314.515 625.156 311.518 625.156 308.5C625.156 305.482 624.738 302.485 623.918 299.594H610.585C610.912 302.646 611.069 305.667 611.069 308.5C611.069 311.333 610.912 314.354 610.585 317.406H623.918ZM609.731 293.656H621.588C620.036 290.615 618.014 287.831 615.591 285.409C612.559 282.376 608.959 279.971 604.997 278.33C604.836 278.263 604.674 278.197 604.512 278.133C605.556 279.927 606.442 281.912 607.19 283.982C608.273 286.978 609.114 290.274 609.731 293.656Z" fill="black"/>
<path d="M404.052 392.449C403.114 392.449 402.255 392.293 401.473 391.98C400.7 391.668 400.036 391.234 399.481 390.68C398.927 390.133 398.497 389.488 398.192 388.746C397.895 387.996 397.747 387.188 397.747 386.32V385.84C397.747 384.848 397.903 383.949 398.216 383.145C398.528 382.34 398.958 381.652 399.505 381.082C400.052 380.512 400.684 380.074 401.403 379.77C402.13 379.457 402.903 379.301 403.723 379.301C404.637 379.301 405.446 379.457 406.149 379.77C406.852 380.074 407.442 380.5 407.919 381.047C408.395 381.602 408.755 382.262 408.997 383.027C409.239 383.793 409.36 384.629 409.36 385.535V386.742H400.571V386.801C400.657 387.355 400.79 387.82 400.97 388.195C401.149 388.57 401.395 388.906 401.708 389.203C402.02 389.516 402.387 389.758 402.809 389.93C403.239 390.102 403.708 390.188 404.216 390.188C404.911 390.188 405.559 390.055 406.161 389.789C406.762 389.516 407.259 389.129 407.649 388.629L409.149 390.082C408.727 390.691 408.079 391.238 407.204 391.723C406.337 392.207 405.286 392.449 404.052 392.449ZM403.712 381.574C403.313 381.574 402.942 381.648 402.598 381.797C402.262 381.938 401.962 382.141 401.696 382.406C401.43 382.68 401.208 383.008 401.028 383.391C400.848 383.773 400.716 384.207 400.63 384.691H406.595V384.504C406.595 384.137 406.528 383.773 406.395 383.414C406.262 383.047 406.075 382.727 405.833 382.453C405.598 382.188 405.302 381.977 404.942 381.82C404.591 381.656 404.18 381.574 403.712 381.574ZM417.658 383.801L420.693 379.535H423.799L419.346 385.781L423.939 392.215H420.846L417.681 387.785L414.529 392.215H411.424L416.017 385.781L411.576 379.535H414.658L417.658 383.801ZM434.147 392.215C434.061 392.059 433.991 391.871 433.936 391.652C433.89 391.426 433.847 391.191 433.808 390.949C433.612 391.152 433.39 391.348 433.14 391.535C432.897 391.715 432.624 391.871 432.319 392.004C432.015 392.145 431.686 392.254 431.335 392.332C430.983 392.41 430.604 392.449 430.198 392.449C429.542 392.449 428.94 392.355 428.393 392.168C427.854 391.973 427.393 391.707 427.011 391.371C426.62 391.043 426.315 390.648 426.097 390.188C425.886 389.719 425.78 389.215 425.78 388.676C425.78 387.98 425.917 387.367 426.19 386.836C426.472 386.297 426.878 385.852 427.409 385.5C427.901 385.172 428.507 384.922 429.225 384.75C429.952 384.578 430.772 384.492 431.686 384.492H433.725V383.637C433.725 383.309 433.667 383.012 433.55 382.746C433.44 382.48 433.28 382.25 433.069 382.055C432.843 381.859 432.565 381.711 432.237 381.609C431.917 381.5 431.546 381.445 431.124 381.445C430.741 381.445 430.405 381.492 430.116 381.586C429.835 381.68 429.6 381.809 429.413 381.973C429.225 382.121 429.085 382.305 428.991 382.523C428.905 382.734 428.862 382.961 428.862 383.203H426.05C426.058 382.695 426.179 382.207 426.413 381.738C426.647 381.27 426.991 380.855 427.444 380.496C427.882 380.129 428.421 379.84 429.061 379.629C429.71 379.41 430.448 379.301 431.276 379.301C432.018 379.301 432.71 379.395 433.35 379.582C433.999 379.762 434.558 380.031 435.026 380.391C435.495 380.75 435.862 381.207 436.128 381.762C436.393 382.309 436.526 382.941 436.526 383.66V389.297C436.526 389.867 436.565 390.383 436.643 390.844C436.729 391.297 436.85 391.688 437.007 392.016V392.215H434.147ZM430.737 390.199C431.104 390.199 431.444 390.152 431.757 390.059C432.077 389.965 432.366 389.844 432.624 389.695C432.882 389.547 433.104 389.379 433.292 389.191C433.479 389.004 433.624 388.809 433.725 388.605V386.262H431.921C431.311 386.262 430.784 386.32 430.339 386.438C429.893 386.547 429.538 386.707 429.272 386.918C429.038 387.098 428.862 387.312 428.745 387.562C428.636 387.812 428.581 388.094 428.581 388.406C428.581 388.664 428.628 388.906 428.722 389.133C428.815 389.352 428.952 389.539 429.132 389.695C429.311 389.852 429.534 389.977 429.8 390.07C430.065 390.156 430.378 390.199 430.737 390.199ZM441.602 379.535L441.684 380.93C441.926 380.422 442.258 380.023 442.68 379.734C443.109 379.445 443.625 379.301 444.227 379.301C444.539 379.301 444.82 379.336 445.07 379.406C445.32 379.477 445.535 379.586 445.715 379.734C445.855 379.844 445.98 379.977 446.09 380.133C446.199 380.281 446.293 380.453 446.371 380.648C446.48 380.469 446.605 380.301 446.746 380.145C446.887 379.988 447.039 379.855 447.203 379.746C447.414 379.605 447.648 379.496 447.906 379.418C448.172 379.34 448.461 379.301 448.773 379.301C449.18 379.301 449.551 379.371 449.887 379.512C450.23 379.645 450.527 379.852 450.777 380.133C451.027 380.43 451.219 380.816 451.352 381.293C451.492 381.762 451.562 382.328 451.562 382.992V392.215H448.984V382.969C448.984 382.719 448.957 382.508 448.902 382.336C448.848 382.156 448.769 382.012 448.668 381.902C448.566 381.801 448.441 381.727 448.293 381.68C448.152 381.633 447.996 381.609 447.824 381.609C447.644 381.609 447.488 381.633 447.355 381.68C447.223 381.727 447.105 381.793 447.004 381.879C446.91 381.957 446.832 382.051 446.769 382.16C446.707 382.262 446.66 382.379 446.629 382.512C446.629 382.543 446.629 382.582 446.629 382.629C446.629 382.668 446.629 382.727 446.629 382.805V392.215H444.098V382.957C444.098 382.707 444.07 382.496 444.016 382.324C443.969 382.145 443.894 382.004 443.793 381.902C443.691 381.801 443.57 381.727 443.43 381.68C443.297 381.633 443.144 381.609 442.973 381.609C442.785 381.609 442.617 381.637 442.469 381.691C442.328 381.738 442.207 381.812 442.105 381.914C442.027 381.984 441.957 382.066 441.894 382.16C441.84 382.254 441.789 382.359 441.742 382.477V392.215H439.164V379.535H441.602ZM453.989 397.09V379.535H456.567L456.673 380.836C456.845 380.625 457.032 380.434 457.235 380.262C457.438 380.09 457.657 379.941 457.892 379.816C458.196 379.652 458.532 379.527 458.899 379.441C459.267 379.348 459.657 379.301 460.071 379.301C460.884 379.301 461.599 379.457 462.216 379.77C462.841 380.082 463.364 380.523 463.786 381.094C464.2 381.664 464.517 382.348 464.735 383.145C464.954 383.934 465.063 384.805 465.063 385.758V386.004C465.063 386.918 464.954 387.77 464.735 388.559C464.524 389.348 464.208 390.027 463.786 390.598C463.364 391.176 462.845 391.629 462.228 391.957C461.61 392.285 460.903 392.449 460.106 392.449C459.653 392.449 459.235 392.402 458.853 392.309C458.478 392.215 458.13 392.078 457.81 391.898C457.622 391.789 457.442 391.664 457.271 391.523C457.099 391.383 456.938 391.23 456.79 391.066V397.09H453.989ZM462.263 385.758C462.263 385.188 462.204 384.652 462.087 384.152C461.978 383.645 461.806 383.203 461.571 382.828C461.329 382.453 461.021 382.156 460.646 381.938C460.271 381.719 459.821 381.609 459.298 381.609C459.009 381.609 458.739 381.641 458.489 381.703C458.239 381.766 458.017 381.855 457.821 381.973C457.595 382.098 457.396 382.254 457.224 382.441C457.06 382.629 456.915 382.84 456.79 383.074V388.711C456.899 388.93 457.032 389.129 457.188 389.309C457.345 389.488 457.524 389.645 457.728 389.777C457.938 389.902 458.177 390.004 458.442 390.082C458.708 390.152 459.001 390.188 459.321 390.188C459.845 390.188 460.29 390.078 460.657 389.859C461.032 389.633 461.337 389.328 461.571 388.945C461.813 388.555 461.989 388.109 462.099 387.609C462.208 387.102 462.263 386.566 462.263 386.004V385.758ZM468.463 374.215H475.295V389.895H479.139V392.215H468.463V389.895H472.471V376.547H468.463V374.215ZM487.8 392.449C486.862 392.449 486.003 392.293 485.222 391.98C484.448 391.668 483.784 391.234 483.23 390.68C482.675 390.133 482.245 389.488 481.941 388.746C481.644 387.996 481.495 387.188 481.495 386.32V385.84C481.495 384.848 481.651 383.949 481.964 383.145C482.276 382.34 482.706 381.652 483.253 381.082C483.8 380.512 484.433 380.074 485.151 379.77C485.878 379.457 486.651 379.301 487.472 379.301C488.386 379.301 489.194 379.457 489.898 379.77C490.601 380.074 491.191 380.5 491.667 381.047C492.144 381.602 492.503 382.262 492.745 383.027C492.987 383.793 493.109 384.629 493.109 385.535V386.742H484.319V386.801C484.405 387.355 484.538 387.82 484.718 388.195C484.898 388.57 485.144 388.906 485.456 389.203C485.769 389.516 486.136 389.758 486.558 389.93C486.987 390.102 487.456 390.188 487.964 390.188C488.659 390.188 489.308 390.055 489.909 389.789C490.511 389.516 491.007 389.129 491.398 388.629L492.898 390.082C492.476 390.691 491.827 391.238 490.952 391.723C490.085 392.207 489.034 392.449 487.8 392.449ZM487.46 381.574C487.062 381.574 486.691 381.648 486.347 381.797C486.011 381.938 485.71 382.141 485.444 382.406C485.179 382.68 484.956 383.008 484.776 383.391C484.597 383.773 484.464 384.207 484.378 384.691H490.343V384.504C490.343 384.137 490.276 383.773 490.144 383.414C490.011 383.047 489.823 382.727 489.581 382.453C489.347 382.188 489.05 381.977 488.691 381.82C488.339 381.656 487.929 381.574 487.46 381.574ZM499.332 390.527C499.332 389.988 499.504 389.527 499.848 389.145C500.199 388.762 500.703 388.57 501.36 388.57C502 388.57 502.5 388.762 502.86 389.145C503.219 389.52 503.399 389.98 503.399 390.527C503.399 391.074 503.215 391.531 502.848 391.898C502.488 392.266 501.992 392.449 501.36 392.449C500.719 392.449 500.219 392.266 499.86 391.898C499.508 391.523 499.332 391.066 499.332 390.527ZM515.318 390.199C515.669 390.199 516.005 390.148 516.325 390.047C516.654 389.938 516.943 389.785 517.193 389.59C517.435 389.395 517.626 389.164 517.767 388.898C517.915 388.633 517.989 388.34 517.989 388.02H520.626C520.634 388.637 520.493 389.219 520.204 389.766C519.923 390.305 519.54 390.77 519.056 391.16C518.564 391.566 517.997 391.887 517.357 392.121C516.724 392.348 516.056 392.461 515.353 392.461C514.376 392.461 513.521 392.293 512.786 391.957C512.06 391.613 511.454 391.152 510.97 390.574C510.478 389.996 510.107 389.324 509.857 388.559C509.607 387.785 509.482 386.961 509.482 386.086V385.676C509.482 384.809 509.603 383.988 509.845 383.215C510.095 382.441 510.466 381.766 510.958 381.188C511.45 380.609 512.06 380.152 512.786 379.816C513.521 379.473 514.372 379.301 515.341 379.301C516.107 379.301 516.814 379.418 517.462 379.652C518.118 379.887 518.681 380.215 519.15 380.637C519.618 381.059 519.982 381.562 520.239 382.148C520.505 382.734 520.634 383.379 520.626 384.082H517.989C517.989 383.738 517.923 383.414 517.79 383.109C517.665 382.805 517.486 382.539 517.251 382.312C517.009 382.086 516.72 381.906 516.384 381.773C516.056 381.641 515.7 381.574 515.318 381.574C514.732 381.574 514.243 381.695 513.853 381.938C513.47 382.172 513.165 382.48 512.939 382.863C512.697 383.246 512.525 383.684 512.423 384.176C512.329 384.668 512.282 385.168 512.282 385.676V386.086C512.282 386.602 512.329 387.109 512.423 387.609C512.525 388.102 512.693 388.535 512.927 388.91C513.154 389.301 513.462 389.613 513.853 389.848C514.243 390.082 514.732 390.199 515.318 390.199ZM523.241 385.758C523.241 384.836 523.373 383.984 523.639 383.203C523.905 382.414 524.291 381.73 524.799 381.152C525.299 380.574 525.912 380.121 526.639 379.793C527.366 379.465 528.194 379.301 529.123 379.301C530.053 379.301 530.881 379.465 531.608 379.793C532.342 380.121 532.963 380.574 533.471 381.152C533.971 381.73 534.354 382.414 534.619 383.203C534.885 383.984 535.018 384.836 535.018 385.758V386.004C535.018 386.934 534.885 387.789 534.619 388.57C534.354 389.352 533.971 390.031 533.471 390.609C532.971 391.188 532.354 391.641 531.619 391.969C530.893 392.297 530.069 392.461 529.147 392.461C528.217 392.461 527.385 392.297 526.651 391.969C525.916 391.641 525.299 391.188 524.799 390.609C524.291 390.031 523.905 389.352 523.639 388.57C523.373 387.789 523.241 386.934 523.241 386.004V385.758ZM526.041 386.004C526.041 386.574 526.1 387.113 526.217 387.621C526.342 388.129 526.534 388.574 526.791 388.957C527.041 389.34 527.362 389.645 527.752 389.871C528.143 390.09 528.608 390.199 529.147 390.199C529.67 390.199 530.127 390.09 530.518 389.871C530.909 389.645 531.229 389.34 531.479 388.957C531.729 388.574 531.912 388.129 532.03 387.621C532.155 387.113 532.217 386.574 532.217 386.004V385.758C532.217 385.203 532.155 384.672 532.03 384.164C531.905 383.656 531.721 383.211 531.479 382.828C531.221 382.445 530.897 382.141 530.506 381.914C530.123 381.688 529.662 381.574 529.123 381.574C528.592 381.574 528.131 381.688 527.741 381.914C527.358 382.141 527.041 382.445 526.791 382.828C526.534 383.211 526.342 383.656 526.217 384.164C526.1 384.672 526.041 385.203 526.041 385.758V386.004ZM539.308 379.535L539.39 380.93C539.632 380.422 539.964 380.023 540.386 379.734C540.816 379.445 541.331 379.301 541.933 379.301C542.245 379.301 542.527 379.336 542.777 379.406C543.027 379.477 543.242 379.586 543.421 379.734C543.562 379.844 543.687 379.977 543.796 380.133C543.906 380.281 543.999 380.453 544.077 380.648C544.187 380.469 544.312 380.301 544.452 380.145C544.593 379.988 544.745 379.855 544.91 379.746C545.12 379.605 545.355 379.496 545.613 379.418C545.878 379.34 546.167 379.301 546.48 379.301C546.886 379.301 547.257 379.371 547.593 379.512C547.937 379.645 548.234 379.852 548.484 380.133C548.734 380.43 548.925 380.816 549.058 381.293C549.199 381.762 549.269 382.328 549.269 382.992V392.215H546.691V382.969C546.691 382.719 546.663 382.508 546.609 382.336C546.554 382.156 546.476 382.012 546.374 381.902C546.273 381.801 546.148 381.727 545.999 381.68C545.859 381.633 545.702 381.609 545.531 381.609C545.351 381.609 545.195 381.633 545.062 381.68C544.929 381.727 544.812 381.793 544.71 381.879C544.617 381.957 544.538 382.051 544.476 382.16C544.413 382.262 544.367 382.379 544.335 382.512C544.335 382.543 544.335 382.582 544.335 382.629C544.335 382.668 544.335 382.727 544.335 382.805V392.215H541.804V382.957C541.804 382.707 541.777 382.496 541.722 382.324C541.675 382.145 541.601 382.004 541.499 381.902C541.398 381.801 541.277 381.727 541.136 381.68C541.003 381.633 540.851 381.609 540.679 381.609C540.492 381.609 540.324 381.637 540.175 381.691C540.035 381.738 539.913 381.812 539.812 381.914C539.734 381.984 539.663 382.066 539.601 382.16C539.546 382.254 539.495 382.359 539.449 382.477V392.215H536.87V379.535H539.308ZM557.848 391.852C557.848 392.695 557.641 393.551 557.227 394.418C556.821 395.293 556.282 396.031 555.61 396.633L554.039 395.801C554.375 395.246 554.633 394.66 554.813 394.043C555 393.426 555.094 392.73 555.094 391.957V389.484H557.848V391.852ZM584.124 381.668L579.612 380.543L580.315 378.281L584.663 380.156L584.299 375.152H586.667L586.256 380.227L590.569 378.387L591.284 380.684L586.702 381.762L589.784 385.559L587.85 386.977L585.366 382.652L582.893 386.848L580.948 385.5L584.124 381.668ZM597.039 390.527C597.039 389.988 597.211 389.527 597.554 389.145C597.906 388.762 598.41 388.57 599.066 388.57C599.707 388.57 600.207 388.762 600.566 389.145C600.925 389.52 601.105 389.98 601.105 390.527C601.105 391.074 600.921 391.531 600.554 391.898C600.195 392.266 599.699 392.449 599.066 392.449C598.425 392.449 597.925 392.266 597.566 391.898C597.214 391.523 597.039 391.066 597.039 390.527ZM613.423 392.449C612.485 392.449 611.626 392.293 610.844 391.98C610.071 391.668 609.407 391.234 608.852 390.68C608.298 390.133 607.868 389.488 607.563 388.746C607.266 387.996 607.118 387.188 607.118 386.32V385.84C607.118 384.848 607.274 383.949 607.587 383.145C607.899 382.34 608.329 381.652 608.876 381.082C609.423 380.512 610.055 380.074 610.774 379.77C611.501 379.457 612.274 379.301 613.094 379.301C614.008 379.301 614.817 379.457 615.52 379.77C616.223 380.074 616.813 380.5 617.29 381.047C617.766 381.602 618.126 382.262 618.368 383.027C618.61 383.793 618.731 384.629 618.731 385.535V386.742H609.942V386.801C610.028 387.355 610.161 387.82 610.34 388.195C610.52 388.57 610.766 388.906 611.079 389.203C611.391 389.516 611.758 389.758 612.18 389.93C612.61 390.102 613.079 390.188 613.587 390.188C614.282 390.188 614.93 390.055 615.532 389.789C616.133 389.516 616.63 389.129 617.02 388.629L618.52 390.082C618.098 390.691 617.45 391.238 616.575 391.723C615.708 392.207 614.657 392.449 613.423 392.449ZM613.083 381.574C612.684 381.574 612.313 381.648 611.969 381.797C611.633 381.938 611.333 382.141 611.067 382.406C610.801 382.68 610.579 383.008 610.399 383.391C610.219 383.773 610.087 384.207 610.001 384.691H615.965V384.504C615.965 384.137 615.899 383.773 615.766 383.414C615.633 383.047 615.446 382.727 615.204 382.453C614.969 382.188 614.673 381.977 614.313 381.82C613.962 381.656 613.551 381.574 613.083 381.574ZM627.029 383.801L630.064 379.535H633.17L628.716 385.781L633.31 392.215H630.216L627.052 387.785L623.9 392.215H620.795L625.388 385.781L620.947 379.535H624.029L627.029 383.801ZM643.518 392.215C643.432 392.059 643.362 391.871 643.307 391.652C643.26 391.426 643.218 391.191 643.178 390.949C642.983 391.152 642.76 391.348 642.51 391.535C642.268 391.715 641.995 391.871 641.69 392.004C641.385 392.145 641.057 392.254 640.706 392.332C640.354 392.41 639.975 392.449 639.569 392.449C638.913 392.449 638.311 392.355 637.764 392.168C637.225 391.973 636.764 391.707 636.382 391.371C635.991 391.043 635.686 390.648 635.468 390.188C635.257 389.719 635.151 389.215 635.151 388.676C635.151 387.98 635.288 387.367 635.561 386.836C635.843 386.297 636.249 385.852 636.78 385.5C637.272 385.172 637.878 384.922 638.596 384.75C639.323 384.578 640.143 384.492 641.057 384.492H643.096V383.637C643.096 383.309 643.038 383.012 642.921 382.746C642.811 382.48 642.651 382.25 642.44 382.055C642.214 381.859 641.936 381.711 641.608 381.609C641.288 381.5 640.917 381.445 640.495 381.445C640.112 381.445 639.776 381.492 639.487 381.586C639.206 381.68 638.971 381.809 638.784 381.973C638.596 382.121 638.456 382.305 638.362 382.523C638.276 382.734 638.233 382.961 638.233 383.203H635.421C635.428 382.695 635.55 382.207 635.784 381.738C636.018 381.27 636.362 380.855 636.815 380.496C637.253 380.129 637.792 379.84 638.432 379.629C639.081 379.41 639.819 379.301 640.647 379.301C641.389 379.301 642.081 379.395 642.721 379.582C643.37 379.762 643.928 380.031 644.397 380.391C644.866 380.75 645.233 381.207 645.499 381.762C645.764 382.309 645.897 382.941 645.897 383.66V389.297C645.897 389.867 645.936 390.383 646.014 390.844C646.1 391.297 646.221 391.688 646.378 392.016V392.215H643.518ZM640.108 390.199C640.475 390.199 640.815 390.152 641.128 390.059C641.448 389.965 641.737 389.844 641.995 389.695C642.253 389.547 642.475 389.379 642.663 389.191C642.85 389.004 642.995 388.809 643.096 388.605V386.262H641.292C640.682 386.262 640.155 386.32 639.71 386.438C639.264 386.547 638.909 386.707 638.643 386.918C638.409 387.098 638.233 387.312 638.116 387.562C638.007 387.812 637.952 388.094 637.952 388.406C637.952 388.664 637.999 388.906 638.093 389.133C638.186 389.352 638.323 389.539 638.503 389.695C638.682 389.852 638.905 389.977 639.171 390.07C639.436 390.156 639.749 390.199 640.108 390.199ZM650.972 379.535L651.055 380.93C651.297 380.422 651.629 380.023 652.051 379.734C652.48 379.445 652.996 379.301 653.597 379.301C653.91 379.301 654.191 379.336 654.441 379.406C654.691 379.477 654.906 379.586 655.086 379.734C655.226 379.844 655.351 379.977 655.461 380.133C655.57 380.281 655.664 380.453 655.742 380.648C655.851 380.469 655.976 380.301 656.117 380.145C656.258 379.988 656.41 379.855 656.574 379.746C656.785 379.605 657.019 379.496 657.277 379.418C657.543 379.34 657.832 379.301 658.144 379.301C658.551 379.301 658.922 379.371 659.258 379.512C659.601 379.645 659.898 379.852 660.148 380.133C660.398 380.43 660.59 380.816 660.722 381.293C660.863 381.762 660.933 382.328 660.933 382.992V392.215H658.355V382.969C658.355 382.719 658.328 382.508 658.273 382.336C658.219 382.156 658.14 382.012 658.039 381.902C657.937 381.801 657.812 381.727 657.664 381.68C657.523 381.633 657.367 381.609 657.195 381.609C657.015 381.609 656.859 381.633 656.726 381.68C656.594 381.727 656.476 381.793 656.375 381.879C656.281 381.957 656.203 382.051 656.14 382.16C656.078 382.262 656.031 382.379 656 382.512C656 382.543 656 382.582 656 382.629C656 382.668 656 382.727 656 382.805V392.215H653.469V382.957C653.469 382.707 653.441 382.496 653.387 382.324C653.34 382.145 653.265 382.004 653.164 381.902C653.062 381.801 652.941 381.727 652.801 381.68C652.668 381.633 652.515 381.609 652.344 381.609C652.156 381.609 651.988 381.637 651.84 381.691C651.699 381.738 651.578 381.812 651.476 381.914C651.398 381.984 651.328 382.066 651.265 382.16C651.211 382.254 651.16 382.359 651.113 382.477V392.215H648.535V379.535H650.972ZM663.36 397.09V379.535H665.938L666.044 380.836C666.216 380.625 666.403 380.434 666.606 380.262C666.809 380.09 667.028 379.941 667.263 379.816C667.567 379.652 667.903 379.527 668.27 379.441C668.638 379.348 669.028 379.301 669.442 379.301C670.255 379.301 670.97 379.457 671.587 379.77C672.212 380.082 672.735 380.523 673.157 381.094C673.571 381.664 673.888 382.348 674.106 383.145C674.325 383.934 674.434 384.805 674.434 385.758V386.004C674.434 386.918 674.325 387.77 674.106 388.559C673.895 389.348 673.579 390.027 673.157 390.598C672.735 391.176 672.216 391.629 671.599 391.957C670.981 392.285 670.274 392.449 669.477 392.449C669.024 392.449 668.606 392.402 668.224 392.309C667.849 392.215 667.501 392.078 667.181 391.898C666.993 391.789 666.813 391.664 666.641 391.523C666.47 391.383 666.309 391.23 666.161 391.066V397.09H663.36ZM671.634 385.758C671.634 385.188 671.575 384.652 671.458 384.152C671.349 383.645 671.177 383.203 670.942 382.828C670.7 382.453 670.391 382.156 670.016 381.938C669.641 381.719 669.192 381.609 668.669 381.609C668.38 381.609 668.11 381.641 667.86 381.703C667.61 381.766 667.388 381.855 667.192 381.973C666.966 382.098 666.766 382.254 666.595 382.441C666.431 382.629 666.286 382.84 666.161 383.074V388.711C666.27 388.93 666.403 389.129 666.559 389.309C666.716 389.488 666.895 389.645 667.099 389.777C667.309 389.902 667.548 390.004 667.813 390.082C668.079 390.152 668.372 390.188 668.692 390.188C669.216 390.188 669.661 390.078 670.028 389.859C670.403 389.633 670.708 389.328 670.942 388.945C671.184 388.555 671.36 388.109 671.47 387.609C671.579 387.102 671.634 386.566 671.634 386.004V385.758ZM677.834 374.215H684.666V389.895H688.51V392.215H677.834V389.895H681.842V376.547H677.834V374.215ZM697.171 392.449C696.233 392.449 695.374 392.293 694.593 391.98C693.819 391.668 693.155 391.234 692.601 390.68C692.046 390.133 691.616 389.488 691.312 388.746C691.015 387.996 690.866 387.188 690.866 386.32V385.84C690.866 384.848 691.022 383.949 691.335 383.145C691.647 382.34 692.077 381.652 692.624 381.082C693.171 380.512 693.804 380.074 694.522 379.77C695.249 379.457 696.022 379.301 696.843 379.301C697.757 379.301 698.565 379.457 699.269 379.77C699.972 380.074 700.562 380.5 701.038 381.047C701.515 381.602 701.874 382.262 702.116 383.027C702.358 383.793 702.479 384.629 702.479 385.535V386.742H693.69V386.801C693.776 387.355 693.909 387.82 694.089 388.195C694.269 388.57 694.515 388.906 694.827 389.203C695.14 389.516 695.507 389.758 695.929 389.93C696.358 390.102 696.827 390.188 697.335 390.188C698.03 390.188 698.679 390.055 699.28 389.789C699.882 389.516 700.378 389.129 700.769 388.629L702.269 390.082C701.847 390.691 701.198 391.238 700.323 391.723C699.456 392.207 698.405 392.449 697.171 392.449ZM696.831 381.574C696.433 381.574 696.062 381.648 695.718 381.797C695.382 381.938 695.081 382.141 694.815 382.406C694.55 382.68 694.327 383.008 694.147 383.391C693.968 383.773 693.835 384.207 693.749 384.691H699.714V384.504C699.714 384.137 699.647 383.773 699.515 383.414C699.382 383.047 699.194 382.727 698.952 382.453C698.718 382.188 698.421 381.977 698.062 381.82C697.71 381.656 697.3 381.574 696.831 381.574ZM708.703 390.527C708.703 389.988 708.875 389.527 709.219 389.145C709.57 388.762 710.074 388.57 710.73 388.57C711.371 388.57 711.871 388.762 712.23 389.145C712.59 389.52 712.77 389.98 712.77 390.527C712.77 391.074 712.586 391.531 712.219 391.898C711.859 392.266 711.363 392.449 710.73 392.449C710.09 392.449 709.59 392.266 709.23 391.898C708.879 391.523 708.703 391.066 708.703 390.527ZM724.689 390.199C725.04 390.199 725.376 390.148 725.696 390.047C726.024 389.938 726.314 389.785 726.564 389.59C726.806 389.395 726.997 389.164 727.138 388.898C727.286 388.633 727.36 388.34 727.36 388.02H729.997C730.005 388.637 729.864 389.219 729.575 389.766C729.294 390.305 728.911 390.77 728.427 391.16C727.935 391.566 727.368 391.887 726.728 392.121C726.095 392.348 725.427 392.461 724.724 392.461C723.747 392.461 722.892 392.293 722.157 391.957C721.431 391.613 720.825 391.152 720.341 390.574C719.849 389.996 719.478 389.324 719.228 388.559C718.978 387.785 718.853 386.961 718.853 386.086V385.676C718.853 384.809 718.974 383.988 719.216 383.215C719.466 382.441 719.837 381.766 720.329 381.188C720.821 380.609 721.431 380.152 722.157 379.816C722.892 379.473 723.743 379.301 724.712 379.301C725.478 379.301 726.185 379.418 726.833 379.652C727.489 379.887 728.052 380.215 728.521 380.637C728.989 381.059 729.353 381.562 729.61 382.148C729.876 382.734 730.005 383.379 729.997 384.082H727.36C727.36 383.738 727.294 383.414 727.161 383.109C727.036 382.805 726.857 382.539 726.622 382.312C726.38 382.086 726.091 381.906 725.755 381.773C725.427 381.641 725.071 381.574 724.689 381.574C724.103 381.574 723.614 381.695 723.224 381.938C722.841 382.172 722.536 382.48 722.31 382.863C722.067 383.246 721.896 383.684 721.794 384.176C721.7 384.668 721.653 385.168 721.653 385.676V386.086C721.653 386.602 721.7 387.109 721.794 387.609C721.896 388.102 722.064 388.535 722.298 388.91C722.524 389.301 722.833 389.613 723.224 389.848C723.614 390.082 724.103 390.199 724.689 390.199ZM732.611 385.758C732.611 384.836 732.744 383.984 733.01 383.203C733.276 382.414 733.662 381.73 734.17 381.152C734.67 380.574 735.283 380.121 736.01 379.793C736.736 379.465 737.565 379.301 738.494 379.301C739.424 379.301 740.252 379.465 740.979 379.793C741.713 380.121 742.334 380.574 742.842 381.152C743.342 381.73 743.725 382.414 743.99 383.203C744.256 383.984 744.389 384.836 744.389 385.758V386.004C744.389 386.934 744.256 387.789 743.99 388.57C743.725 389.352 743.342 390.031 742.842 390.609C742.342 391.188 741.725 391.641 740.99 391.969C740.264 392.297 739.44 392.461 738.518 392.461C737.588 392.461 736.756 392.297 736.022 391.969C735.287 391.641 734.67 391.188 734.17 390.609C733.662 390.031 733.276 389.352 733.01 388.57C732.744 387.789 732.611 386.934 732.611 386.004V385.758ZM735.412 386.004C735.412 386.574 735.471 387.113 735.588 387.621C735.713 388.129 735.904 388.574 736.162 388.957C736.412 389.34 736.733 389.645 737.123 389.871C737.514 390.09 737.979 390.199 738.518 390.199C739.041 390.199 739.498 390.09 739.889 389.871C740.279 389.645 740.6 389.34 740.85 388.957C741.1 388.574 741.283 388.129 741.401 387.621C741.526 387.113 741.588 386.574 741.588 386.004V385.758C741.588 385.203 741.526 384.672 741.401 384.164C741.276 383.656 741.092 383.211 740.85 382.828C740.592 382.445 740.268 382.141 739.877 381.914C739.494 381.688 739.033 381.574 738.494 381.574C737.963 381.574 737.502 381.688 737.111 381.914C736.729 382.141 736.412 382.445 736.162 382.828C735.904 383.211 735.713 383.656 735.588 384.164C735.471 384.672 735.412 385.203 735.412 385.758V386.004ZM748.679 379.535L748.761 380.93C749.003 380.422 749.335 380.023 749.757 379.734C750.187 379.445 750.702 379.301 751.304 379.301C751.616 379.301 751.898 379.336 752.148 379.406C752.398 379.477 752.612 379.586 752.792 379.734C752.933 379.844 753.058 379.977 753.167 380.133C753.277 380.281 753.37 380.453 753.448 380.648C753.558 380.469 753.683 380.301 753.823 380.145C753.964 379.988 754.116 379.855 754.28 379.746C754.491 379.605 754.726 379.496 754.984 379.418C755.249 379.34 755.538 379.301 755.851 379.301C756.257 379.301 756.628 379.371 756.964 379.512C757.308 379.645 757.605 379.852 757.855 380.133C758.105 380.43 758.296 380.816 758.429 381.293C758.57 381.762 758.64 382.328 758.64 382.992V392.215H756.062V382.969C756.062 382.719 756.034 382.508 755.98 382.336C755.925 382.156 755.847 382.012 755.745 381.902C755.644 381.801 755.519 381.727 755.37 381.68C755.23 381.633 755.073 381.609 754.902 381.609C754.722 381.609 754.566 381.633 754.433 381.68C754.3 381.727 754.183 381.793 754.081 381.879C753.987 381.957 753.909 382.051 753.847 382.16C753.784 382.262 753.737 382.379 753.706 382.512C753.706 382.543 753.706 382.582 753.706 382.629C753.706 382.668 753.706 382.727 753.706 382.805V392.215H751.175V382.957C751.175 382.707 751.148 382.496 751.093 382.324C751.046 382.145 750.972 382.004 750.87 381.902C750.769 381.801 750.648 381.727 750.507 381.68C750.374 381.633 750.222 381.609 750.05 381.609C749.862 381.609 749.695 381.637 749.546 381.691C749.405 381.738 749.284 381.812 749.183 381.914C749.105 381.984 749.034 382.066 748.972 382.16C748.917 382.254 748.866 382.359 748.82 382.477V392.215H746.241V379.535H748.679Z" fill="#1E1E1E"/>
<g clip-path="url(#clip0_151545_757)">
<path d="M254.7 884.237L257.103 882.499C256.735 881.991 256.216 881.613 255.621 881.418C255.025 881.224 254.383 881.223 253.786 881.416C253.19 881.609 252.67 881.986 252.301 882.493C251.932 883 251.734 883.61 251.733 884.237H254.7ZM272.5 940.604C262.271 940.604 252.462 936.541 245.229 929.308C237.997 922.075 233.933 912.266 233.933 902.037H228C228 913.839 232.688 925.158 241.034 933.503C249.379 941.849 260.698 946.537 272.5 946.537V940.604ZM311.067 902.037C311.067 907.102 310.069 912.117 308.131 916.796C306.193 921.475 303.352 925.727 299.771 929.308C296.19 932.889 291.938 935.73 287.259 937.668C282.58 939.606 277.565 940.604 272.5 940.604V946.537C284.302 946.537 295.621 941.849 303.966 933.503C312.312 925.158 317 913.839 317 902.037H311.067ZM272.5 863.47C277.565 863.47 282.58 864.468 287.259 866.406C291.938 868.344 296.19 871.185 299.771 874.766C303.352 878.348 306.193 882.599 308.131 887.278C310.069 891.957 311.067 896.972 311.067 902.037H317C317 890.235 312.312 878.916 303.966 870.571C295.621 862.225 284.302 857.537 272.5 857.537V863.47ZM272.5 857.537C260.698 857.537 249.379 862.225 241.034 870.571C232.688 878.916 228 890.235 228 902.037H233.933C233.933 891.809 237.997 881.999 245.229 874.766C252.462 867.534 262.271 863.47 272.5 863.47V857.537ZM257.667 928.737V884.237H251.733V928.737H257.667ZM252.297 885.976L290.864 939.376L295.67 935.899L257.103 882.499L252.297 885.976ZM287.333 881.27V916.87H293.267V881.27H287.333Z" fill="black"/>
</g>
<path d="M249.942 966.152L252.051 973.453L254.383 966.152H257.887V983.215H255.239V977.426L255.403 969.809L252.778 977.953H251.313L248.934 970.09L249.086 977.426V983.215H246.45V966.152H249.942ZM268.845 979.289H263.49L262.33 983.215H259.4L264.955 966.152H267.451L272.912 983.215H269.994L268.845 979.289ZM264.205 976.875H268.154L266.197 970.125L264.205 976.875ZM274.94 966.152H284.995V968.484H281.35V980.895H284.995V983.215H274.94V980.895H278.502V968.484H274.94V966.152ZM299.492 983.215H296.668L291.125 971.473L291.113 983.215H288.265V966.152H291.125L296.632 977.848L296.656 966.152H299.492V983.215ZM261.866 1015.29H256.511L255.351 1019.21H252.421L257.976 1002.15H260.472L265.933 1019.21H263.015L261.866 1015.29ZM257.226 1012.88H261.175L259.218 1006.12L257.226 1012.88ZM270.562 1012.71V1019.21H267.75V1002.15H273.457C274.316 1002.16 275.105 1002.29 275.824 1002.54C276.551 1002.79 277.176 1003.14 277.699 1003.61C278.223 1004.07 278.629 1004.62 278.918 1005.28C279.207 1005.94 279.352 1006.68 279.352 1007.5C279.352 1008.29 279.207 1009 278.918 1009.64C278.629 1010.27 278.223 1010.82 277.699 1011.27C277.176 1011.73 276.551 1012.09 275.824 1012.34C275.105 1012.59 274.316 1012.71 273.457 1012.71H270.562ZM270.562 1010.41H273.457C273.934 1010.41 274.359 1010.33 274.734 1010.19C275.117 1010.04 275.441 1009.84 275.707 1009.58C275.973 1009.32 276.172 1009.02 276.305 1008.67C276.445 1008.32 276.516 1007.93 276.516 1007.52C276.516 1007.07 276.445 1006.66 276.305 1006.29C276.172 1005.91 275.973 1005.59 275.707 1005.32C275.441 1005.04 275.117 1004.83 274.734 1004.68C274.359 1004.54 273.934 1004.46 273.457 1004.45H270.562V1010.41ZM284.521 1012.71V1019.21H281.708V1002.15H287.415C288.274 1002.16 289.064 1002.29 289.782 1002.54C290.509 1002.79 291.134 1003.14 291.657 1003.61C292.181 1004.07 292.587 1004.62 292.876 1005.28C293.165 1005.94 293.31 1006.68 293.31 1007.5C293.31 1008.29 293.165 1009 292.876 1009.64C292.587 1010.27 292.181 1010.82 291.657 1011.27C291.134 1011.73 290.509 1012.09 289.782 1012.34C289.064 1012.59 288.274 1012.71 287.415 1012.71H284.521ZM284.521 1010.41H287.415C287.892 1010.41 288.317 1010.33 288.692 1010.19C289.075 1010.04 289.399 1009.84 289.665 1009.58C289.931 1009.32 290.13 1009.02 290.263 1008.67C290.403 1008.32 290.474 1007.93 290.474 1007.52C290.474 1007.07 290.403 1006.66 290.263 1006.29C290.13 1005.91 289.931 1005.59 289.665 1005.32C289.399 1005.04 289.075 1004.83 288.692 1004.68C288.317 1004.54 287.892 1004.46 287.415 1004.45H284.521V1010.41Z" fill="#1E1E1E"/>
<rect x="182" y="821.537" width="181" height="241" rx="6" stroke="#1E1E1E" stroke-width="4" stroke-linecap="round"/>
<path d="M269.336 1120.9H265.039L276.211 1090.03H280.488L269.336 1120.9Z" fill="#1E1E1E"/>
<g clip-path="url(#clip1_151545_757)">
<path d="M566.489 857.074C565.958 857.085 565.453 857.304 565.083 857.684C564.712 858.065 564.506 858.575 564.509 859.106L564.487 877.307C564.487 877.845 564.709 878.356 565.076 878.753C565.261 878.938 565.481 879.084 565.723 879.182C565.965 879.281 566.224 879.331 566.486 879.328H579.201L609.599 944.891C609.755 945.241 610.009 945.538 610.33 945.748C610.651 945.958 611.025 946.071 611.408 946.074H632.957C633.494 946.07 634.006 945.854 634.384 945.474C634.761 945.093 634.972 944.578 634.971 944.042V925.842C634.974 925.576 634.923 925.312 634.823 925.065C634.723 924.819 634.575 924.595 634.388 924.406C634.201 924.217 633.978 924.067 633.732 923.964C633.487 923.862 633.223 923.809 632.957 923.809H625.493L595.24 858.246C595.076 857.898 594.817 857.603 594.493 857.396C594.169 857.188 593.793 857.077 593.408 857.074H566.508H566.489ZM568.492 861.116H592.103L622.363 926.683C622.52 927.033 622.775 927.33 623.097 927.539C623.418 927.748 623.793 927.86 624.176 927.863H630.914V942.017H612.662L582.265 876.454C582.107 876.105 581.853 875.808 581.532 875.599C581.212 875.39 580.838 875.278 580.455 875.275H568.477L568.492 861.116ZM575.957 891.662C575.578 891.664 575.208 891.773 574.889 891.976C574.57 892.179 574.316 892.469 574.154 892.811L550.225 943.156C550.078 943.466 550.012 943.808 550.033 944.15C550.054 944.492 550.16 944.824 550.343 945.114C550.521 945.399 550.769 945.635 551.064 945.797C551.359 945.959 551.69 946.043 552.027 946.041H574.904C575.288 946.042 575.665 945.935 575.991 945.732C576.317 945.528 576.579 945.237 576.747 944.891L589.281 918.321C589.41 918.049 589.476 917.751 589.474 917.45C589.472 917.149 589.402 916.852 589.27 916.582L577.8 892.811C577.633 892.467 577.373 892.177 577.049 891.974C576.725 891.771 576.35 891.662 575.968 891.662H575.957ZM575.979 898.352L585.205 917.457L573.628 942.006H555.22L575.979 898.352Z" fill="black"/>
</g>
<path d="M577.629 982.678H574.875V975.072H569.133V982.678H566.391V965.615H569.133V972.752H574.875V965.615H577.629V982.678ZM592.126 975.283C592.126 975.971 592.064 976.635 591.939 977.275C591.822 977.916 591.65 978.521 591.423 979.092C591.181 979.662 590.88 980.189 590.521 980.674C590.162 981.15 589.748 981.561 589.279 981.904C588.826 982.217 588.322 982.463 587.767 982.643C587.22 982.822 586.619 982.912 585.962 982.912C585.283 982.912 584.658 982.818 584.087 982.631C583.525 982.436 583.021 982.17 582.576 981.834C582.123 981.49 581.724 981.076 581.38 980.592C581.044 980.107 580.763 979.576 580.537 978.998C580.318 978.443 580.154 977.854 580.044 977.229C579.935 976.596 579.88 975.947 579.88 975.283V973.033C579.88 972.338 579.939 971.666 580.056 971.018C580.173 970.369 580.349 969.756 580.583 969.178C580.81 968.623 581.087 968.115 581.415 967.654C581.751 967.186 582.146 966.779 582.599 966.436C583.037 966.1 583.533 965.842 584.087 965.662C584.65 965.475 585.267 965.381 585.939 965.381C586.619 965.381 587.244 965.475 587.814 965.662C588.384 965.85 588.896 966.111 589.349 966.447C589.802 966.783 590.197 967.178 590.533 967.631C590.869 968.084 591.15 968.58 591.376 969.119C591.626 969.697 591.814 970.318 591.939 970.982C592.064 971.639 592.126 972.322 592.126 973.033V975.283ZM589.29 973.01C589.283 972.58 589.255 972.158 589.208 971.744C589.169 971.33 589.099 970.936 588.998 970.561C588.88 970.131 588.724 969.74 588.529 969.389C588.341 969.029 588.111 968.725 587.837 968.475C587.595 968.256 587.318 968.084 587.005 967.959C586.693 967.834 586.337 967.771 585.939 967.771C585.556 967.771 585.212 967.834 584.908 967.959C584.603 968.076 584.337 968.24 584.111 968.451C583.837 968.709 583.607 969.018 583.419 969.377C583.232 969.729 583.087 970.123 582.986 970.561C582.892 970.936 582.822 971.334 582.775 971.756C582.736 972.17 582.716 972.588 582.716 973.01V975.283C582.716 975.697 582.736 976.107 582.775 976.514C582.814 976.92 582.88 977.311 582.974 977.686C583.076 978.107 583.212 978.502 583.384 978.869C583.564 979.229 583.779 979.533 584.029 979.783C584.271 980.018 584.548 980.205 584.861 980.346C585.181 980.479 585.548 980.545 585.962 980.545C586.361 980.545 586.72 980.479 587.04 980.346C587.369 980.213 587.65 980.033 587.884 979.807C588.158 979.549 588.384 979.244 588.564 978.893C588.751 978.533 588.9 978.139 589.009 977.709C589.103 977.334 589.169 976.943 589.208 976.537C589.255 976.123 589.283 975.705 589.29 975.283V973.01ZM605.534 982.678H602.709L597.167 970.936L597.155 982.678H594.307V965.615H597.167L602.674 977.311L602.698 965.615H605.534V982.678ZM620.043 975.283C620.043 975.971 619.98 976.635 619.855 977.275C619.738 977.916 619.566 978.521 619.339 979.092C619.097 979.662 618.796 980.189 618.437 980.674C618.078 981.15 617.664 981.561 617.195 981.904C616.742 982.217 616.238 982.463 615.683 982.643C615.136 982.822 614.535 982.912 613.878 982.912C613.199 982.912 612.574 982.818 612.003 982.631C611.441 982.436 610.937 982.17 610.492 981.834C610.039 981.49 609.64 981.076 609.296 980.592C608.961 980.107 608.679 979.576 608.453 978.998C608.234 978.443 608.07 977.854 607.961 977.229C607.851 976.596 607.796 975.947 607.796 975.283V973.033C607.796 972.338 607.855 971.666 607.972 971.018C608.089 970.369 608.265 969.756 608.5 969.178C608.726 968.623 609.003 968.115 609.332 967.654C609.668 967.186 610.062 966.779 610.515 966.436C610.953 966.1 611.449 965.842 612.003 965.662C612.566 965.475 613.183 965.381 613.855 965.381C614.535 965.381 615.16 965.475 615.73 965.662C616.3 965.85 616.812 966.111 617.265 966.447C617.718 966.783 618.113 967.178 618.449 967.631C618.785 968.084 619.066 968.58 619.293 969.119C619.543 969.697 619.73 970.318 619.855 970.982C619.98 971.639 620.043 972.322 620.043 973.033V975.283ZM617.207 973.01C617.199 972.58 617.171 972.158 617.125 971.744C617.086 971.33 617.015 970.936 616.914 970.561C616.796 970.131 616.64 969.74 616.445 969.389C616.257 969.029 616.027 968.725 615.753 968.475C615.511 968.256 615.234 968.084 614.921 967.959C614.609 967.834 614.253 967.771 613.855 967.771C613.472 967.771 613.128 967.834 612.824 967.959C612.519 968.076 612.253 968.24 612.027 968.451C611.753 968.709 611.523 969.018 611.336 969.377C611.148 969.729 611.003 970.123 610.902 970.561C610.808 970.936 610.738 971.334 610.691 971.756C610.652 972.17 610.632 972.588 610.632 973.01V975.283C610.632 975.697 610.652 976.107 610.691 976.514C610.73 976.92 610.796 977.311 610.89 977.686C610.992 978.107 611.128 978.502 611.3 978.869C611.48 979.229 611.695 979.533 611.945 979.783C612.187 980.018 612.464 980.205 612.777 980.346C613.097 980.479 613.464 980.545 613.878 980.545C614.277 980.545 614.636 980.479 614.957 980.346C615.285 980.213 615.566 980.033 615.8 979.807C616.074 979.549 616.3 979.244 616.48 978.893C616.668 978.533 616.816 978.139 616.925 977.709C617.019 977.334 617.086 976.943 617.125 976.537C617.171 976.123 617.199 975.705 617.207 975.283V973.01ZM581.866 1014.75H576.511L575.351 1018.68H572.421L577.976 1001.62H580.472L585.933 1018.68H583.015L581.866 1014.75ZM577.226 1012.34H581.175L579.218 1005.59L577.226 1012.34ZM590.562 1012.17V1018.68H587.75V1001.62H593.457C594.316 1001.62 595.105 1001.75 595.824 1002C596.551 1002.25 597.176 1002.61 597.699 1003.07C598.223 1003.53 598.629 1004.09 598.918 1004.74C599.207 1005.4 599.352 1006.14 599.352 1006.96C599.352 1007.75 599.207 1008.46 598.918 1009.1C598.629 1009.74 598.223 1010.28 597.699 1010.73C597.176 1011.19 596.551 1011.55 595.824 1011.8C595.105 1012.05 594.316 1012.17 593.457 1012.17H590.562ZM590.562 1009.88H593.457C593.934 1009.87 594.359 1009.79 594.734 1009.65C595.117 1009.51 595.441 1009.3 595.707 1009.04C595.973 1008.79 596.172 1008.48 596.305 1008.13C596.445 1007.78 596.516 1007.4 596.516 1006.98C596.516 1006.53 596.445 1006.12 596.305 1005.75C596.172 1005.38 595.973 1005.05 595.707 1004.78C595.441 1004.51 595.117 1004.29 594.734 1004.15C594.359 1004 593.934 1003.92 593.457 1003.91H590.562V1009.88ZM601.919 1001.62H611.974V1003.95H608.329V1016.36H611.974V1018.68H601.919V1016.36H605.481V1003.95H601.919V1001.62Z" fill="#1E1E1E"/>
<rect x="502" y="821.074" width="181" height="241" rx="6" stroke="#1E1E1E" stroke-width="4" stroke-linecap="round"/>
<path d="M554.621 1119.9H550.324L561.496 1089.03H565.773L554.621 1119.9ZM585.44 1117.46C585.297 1117.2 585.18 1116.89 585.088 1116.53C585.01 1116.15 584.939 1115.76 584.874 1115.35C584.548 1115.69 584.177 1116.02 583.76 1116.33C583.357 1116.63 582.901 1116.89 582.393 1117.11C581.885 1117.35 581.338 1117.53 580.753 1117.66C580.167 1117.79 579.535 1117.85 578.858 1117.85C577.764 1117.85 576.762 1117.7 575.85 1117.38C574.952 1117.06 574.183 1116.62 573.545 1116.06C572.894 1115.51 572.387 1114.85 572.022 1114.08C571.67 1113.3 571.495 1112.46 571.495 1111.56C571.495 1110.41 571.723 1109.38 572.178 1108.5C572.647 1107.6 573.324 1106.86 574.21 1106.27C575.03 1105.72 576.039 1105.31 577.237 1105.02C578.448 1104.74 579.815 1104.59 581.338 1104.59H584.737V1103.17C584.737 1102.62 584.639 1102.12 584.444 1101.68C584.262 1101.24 583.995 1100.85 583.643 1100.53C583.266 1100.2 582.803 1099.96 582.256 1099.79C581.723 1099.6 581.104 1099.51 580.401 1099.51C579.763 1099.51 579.203 1099.59 578.721 1099.75C578.253 1099.9 577.862 1100.12 577.549 1100.39C577.237 1100.64 577.003 1100.95 576.846 1101.31C576.703 1101.66 576.631 1102.04 576.631 1102.44H571.944C571.957 1101.6 572.159 1100.78 572.549 1100C572.94 1099.22 573.513 1098.53 574.268 1097.93C574.997 1097.32 575.896 1096.84 576.963 1096.49C578.044 1096.12 579.275 1095.94 580.655 1095.94C581.892 1095.94 583.044 1096.1 584.112 1096.41C585.193 1096.71 586.124 1097.16 586.905 1097.76C587.686 1098.35 588.298 1099.12 588.741 1100.04C589.183 1100.95 589.405 1102.01 589.405 1103.21V1112.6C589.405 1113.55 589.47 1114.41 589.6 1115.18C589.743 1115.93 589.945 1116.58 590.206 1117.13V1117.46H585.44ZM579.756 1114.1C580.368 1114.1 580.935 1114.03 581.456 1113.87C581.989 1113.71 582.471 1113.51 582.901 1113.26C583.331 1113.02 583.702 1112.74 584.014 1112.42C584.327 1112.11 584.568 1111.79 584.737 1111.45V1107.54H581.729C580.713 1107.54 579.835 1107.64 579.092 1107.83C578.35 1108.02 577.758 1108.28 577.315 1108.63C576.924 1108.93 576.631 1109.29 576.436 1109.71C576.254 1110.13 576.163 1110.59 576.163 1111.12C576.163 1111.54 576.241 1111.95 576.397 1112.33C576.553 1112.69 576.781 1113 577.081 1113.26C577.38 1113.52 577.751 1113.73 578.194 1113.89C578.637 1114.03 579.157 1114.1 579.756 1114.1ZM595.126 1125.59V1096.33H599.423L599.599 1098.5C599.886 1098.15 600.198 1097.83 600.537 1097.54C600.875 1097.25 601.24 1097.01 601.63 1096.8C602.138 1096.53 602.698 1096.32 603.31 1096.17C603.922 1096.02 604.573 1095.94 605.263 1095.94C606.617 1095.94 607.809 1096.2 608.837 1096.72C609.879 1097.24 610.751 1097.98 611.455 1098.93C612.145 1099.88 612.672 1101.02 613.037 1102.35C613.401 1103.66 613.583 1105.11 613.583 1106.7V1107.11C613.583 1108.63 613.401 1110.05 613.037 1111.37C612.685 1112.68 612.158 1113.82 611.455 1114.77C610.751 1115.73 609.886 1116.49 608.857 1117.03C607.828 1117.58 606.65 1117.85 605.322 1117.85C604.567 1117.85 603.87 1117.78 603.232 1117.62C602.607 1117.46 602.027 1117.24 601.494 1116.94C601.181 1116.75 600.882 1116.54 600.595 1116.31C600.309 1116.08 600.042 1115.82 599.794 1115.55V1125.59H595.126ZM608.915 1106.7C608.915 1105.75 608.818 1104.86 608.622 1104.03C608.44 1103.18 608.154 1102.44 607.763 1101.82C607.359 1101.19 606.845 1100.7 606.22 1100.33C605.595 1099.97 604.846 1099.79 603.974 1099.79C603.492 1099.79 603.043 1099.84 602.626 1099.94C602.21 1100.05 601.839 1100.2 601.513 1100.39C601.136 1100.6 600.803 1100.86 600.517 1101.17C600.244 1101.49 600.003 1101.84 599.794 1102.23V1111.62C599.977 1111.99 600.198 1112.32 600.458 1112.62C600.719 1112.92 601.018 1113.18 601.357 1113.4C601.708 1113.61 602.106 1113.78 602.548 1113.91C602.991 1114.03 603.479 1114.08 604.013 1114.08C604.886 1114.08 605.628 1113.9 606.24 1113.54C606.865 1113.16 607.372 1112.65 607.763 1112.01C608.167 1111.36 608.46 1110.62 608.642 1109.79C608.824 1108.94 608.915 1108.05 608.915 1107.11V1106.7ZM619.305 1096.33H630.516V1113.6H636.727V1117.46H619.305V1113.6H625.809V1100.22H619.305V1096.33ZM625.379 1090.86C625.379 1090.48 625.444 1090.14 625.575 1089.83C625.705 1089.5 625.894 1089.22 626.141 1088.99C626.375 1088.76 626.655 1088.6 626.981 1088.48C627.319 1088.35 627.697 1088.28 628.114 1088.28C628.817 1088.28 629.383 1088.47 629.813 1088.83C630.256 1089.18 630.509 1089.64 630.575 1090.2C630.666 1090.77 630.568 1091.27 630.282 1091.7C629.995 1092.12 629.578 1092.4 629.032 1092.54C628.758 1092.79 628.433 1092.95 628.055 1093.03C627.677 1093.11 627.261 1093.07 626.805 1092.93C626.336 1092.79 625.978 1092.53 625.731 1092.17C625.496 1091.79 625.379 1091.36 625.379 1090.86Z" fill="#1E1E1E"/>
<path d="M902.265 927.662C898.924 924.599 897.948 918.165 899.339 913.5C901.749 916.441 905.094 917.372 908.558 917.898C913.898 918.707 919.149 918.406 924.114 915.955C924.682 915.673 925.208 915.299 925.828 914.924C926.295 916.278 926.417 917.646 926.254 919.04C925.857 922.433 924.177 925.055 921.496 927.043C920.425 927.84 919.294 928.548 918.189 929.298C914.792 931.604 913.872 934.304 915.148 938.235L915.274 938.657C913.64 937.945 912.258 936.76 911.306 935.253C910.311 933.703 909.781 931.9 909.778 930.058C909.767 929.138 909.767 928.215 909.645 927.314C909.344 925.107 908.31 924.124 906.37 924.065C905.439 924.012 904.521 924.301 903.787 924.876C903.053 925.451 902.554 926.275 902.384 927.191C902.351 927.335 902.311 927.49 902.261 927.658M883.204 912.725C883.204 912.725 893.091 907.893 903.007 907.893L910.483 884.679C910.761 883.552 911.58 882.788 912.5 882.788C913.427 882.788 914.243 883.552 914.521 884.679L921.997 907.893C933.741 907.893 941.799 912.725 941.799 912.725L924.971 866.723C924.489 865.366 923.673 864.491 922.579 864.491H902.424C901.327 864.491 900.548 865.366 900.033 866.723C899.995 866.812 883.204 912.725 883.204 912.725Z" fill="black"/>
<path d="M886.473 982.752V965.689H890.692C891.426 965.689 892.118 965.775 892.766 965.947C893.414 966.111 894.004 966.342 894.536 966.639C895.114 966.943 895.625 967.326 896.071 967.787C896.524 968.248 896.903 968.764 897.207 969.334C897.52 969.928 897.762 970.58 897.934 971.291C898.106 972.002 898.192 972.76 898.192 973.564V974.9C898.192 975.674 898.11 976.408 897.946 977.104C897.789 977.791 897.563 978.42 897.266 978.99C896.977 979.545 896.625 980.049 896.211 980.502C895.805 980.955 895.352 981.342 894.852 981.662C894.289 982.014 893.664 982.283 892.977 982.471C892.297 982.658 891.567 982.752 890.786 982.752H886.473ZM889.321 967.986V980.467H890.786C891.286 980.467 891.743 980.408 892.157 980.291C892.579 980.166 892.957 979.99 893.293 979.764C893.637 979.529 893.942 979.236 894.207 978.885C894.481 978.525 894.704 978.115 894.875 977.654C895.024 977.264 895.137 976.838 895.215 976.377C895.293 975.916 895.332 975.424 895.332 974.9V973.541C895.332 973.025 895.293 972.537 895.215 972.076C895.137 971.615 895.024 971.189 894.875 970.799C894.688 970.322 894.438 969.893 894.125 969.51C893.813 969.119 893.442 968.803 893.012 968.561C892.7 968.381 892.348 968.244 891.957 968.15C891.567 968.049 891.145 967.994 890.692 967.986H889.321ZM912.126 975.357C912.126 976.045 912.064 976.709 911.939 977.35C911.822 977.99 911.65 978.596 911.423 979.166C911.181 979.736 910.88 980.264 910.521 980.748C910.162 981.225 909.748 981.635 909.279 981.979C908.826 982.291 908.322 982.537 907.767 982.717C907.22 982.896 906.619 982.986 905.962 982.986C905.283 982.986 904.658 982.893 904.087 982.705C903.525 982.51 903.021 982.244 902.576 981.908C902.123 981.564 901.724 981.15 901.38 980.666C901.044 980.182 900.763 979.65 900.537 979.072C900.318 978.518 900.154 977.928 900.044 977.303C899.935 976.67 899.88 976.021 899.88 975.357V973.107C899.88 972.412 899.939 971.74 900.056 971.092C900.173 970.443 900.349 969.83 900.583 969.252C900.81 968.697 901.087 968.189 901.415 967.729C901.751 967.26 902.146 966.854 902.599 966.51C903.037 966.174 903.533 965.916 904.087 965.736C904.65 965.549 905.267 965.455 905.939 965.455C906.619 965.455 907.244 965.549 907.814 965.736C908.384 965.924 908.896 966.186 909.349 966.521C909.802 966.857 910.197 967.252 910.533 967.705C910.869 968.158 911.15 968.654 911.376 969.193C911.626 969.771 911.814 970.393 911.939 971.057C912.064 971.713 912.126 972.396 912.126 973.107V975.357ZM909.29 973.084C909.283 972.654 909.255 972.232 909.208 971.818C909.169 971.404 909.099 971.01 908.998 970.635C908.88 970.205 908.724 969.814 908.529 969.463C908.341 969.104 908.111 968.799 907.837 968.549C907.595 968.33 907.318 968.158 907.005 968.033C906.693 967.908 906.337 967.846 905.939 967.846C905.556 967.846 905.212 967.908 904.908 968.033C904.603 968.15 904.337 968.314 904.111 968.525C903.837 968.783 903.607 969.092 903.419 969.451C903.232 969.803 903.087 970.197 902.986 970.635C902.892 971.01 902.822 971.408 902.775 971.83C902.736 972.244 902.716 972.662 902.716 973.084V975.357C902.716 975.771 902.736 976.182 902.775 976.588C902.814 976.994 902.88 977.385 902.974 977.76C903.076 978.182 903.212 978.576 903.384 978.943C903.564 979.303 903.779 979.607 904.029 979.857C904.271 980.092 904.548 980.279 904.861 980.42C905.181 980.553 905.548 980.619 905.962 980.619C906.361 980.619 906.72 980.553 907.04 980.42C907.369 980.287 907.65 980.107 907.884 979.881C908.158 979.623 908.384 979.318 908.564 978.967C908.751 978.607 908.9 978.213 909.009 977.783C909.103 977.408 909.169 977.018 909.208 976.611C909.255 976.197 909.283 975.779 909.29 975.357V973.084ZM926.038 977.502C925.959 978.33 925.764 979.084 925.452 979.764C925.139 980.436 924.729 981.01 924.221 981.486C923.706 981.971 923.092 982.346 922.381 982.611C921.678 982.869 920.897 982.998 920.038 982.998C919.334 982.998 918.686 982.904 918.092 982.717C917.506 982.521 916.983 982.248 916.522 981.896C916.077 981.568 915.686 981.174 915.35 980.713C915.022 980.244 914.745 979.732 914.518 979.178C914.292 978.631 914.12 978.037 914.002 977.396C913.893 976.756 913.838 976.088 913.838 975.393V973.061C913.838 972.396 913.893 971.756 914.002 971.139C914.112 970.521 914.276 969.939 914.495 969.393C914.729 968.783 915.03 968.232 915.397 967.74C915.772 967.24 916.202 966.814 916.686 966.463C917.147 966.143 917.655 965.893 918.209 965.713C918.772 965.533 919.385 965.443 920.049 965.443C920.948 965.443 921.749 965.576 922.452 965.842C923.163 966.107 923.768 966.482 924.268 966.967C924.776 967.459 925.174 968.053 925.463 968.748C925.76 969.443 925.952 970.217 926.038 971.068H923.225C923.178 970.561 923.081 970.104 922.932 969.697C922.792 969.283 922.596 968.932 922.346 968.643C922.088 968.354 921.772 968.135 921.397 967.986C921.022 967.83 920.573 967.752 920.049 967.752C919.682 967.752 919.35 967.803 919.053 967.904C918.764 968.006 918.506 968.15 918.28 968.338C917.967 968.564 917.706 968.861 917.495 969.229C917.292 969.588 917.124 969.99 916.991 970.436C916.889 970.826 916.811 971.244 916.756 971.689C916.709 972.127 916.686 972.576 916.686 973.037V975.393C916.686 975.963 916.717 976.498 916.78 976.998C916.85 977.498 916.956 977.955 917.096 978.369C917.206 978.713 917.342 979.025 917.506 979.307C917.678 979.588 917.881 979.83 918.116 980.033C918.358 980.252 918.635 980.42 918.948 980.537C919.268 980.646 919.631 980.701 920.038 980.701C920.522 980.701 920.952 980.631 921.327 980.49C921.702 980.35 922.022 980.143 922.288 979.869C922.545 979.604 922.752 979.271 922.909 978.873C923.065 978.475 923.167 978.018 923.213 977.502H926.038ZM937.371 978.357C937.371 977.959 937.289 977.607 937.125 977.303C936.961 976.998 936.73 976.725 936.433 976.482C936.121 976.256 935.75 976.053 935.32 975.873C934.898 975.686 934.425 975.518 933.902 975.369C933.097 975.143 932.355 974.865 931.675 974.537C931.003 974.201 930.429 973.826 929.953 973.412C929.476 972.99 929.101 972.514 928.828 971.982C928.562 971.443 928.429 970.838 928.429 970.166C928.429 969.439 928.586 968.787 928.898 968.209C929.211 967.623 929.632 967.123 930.164 966.709C930.695 966.303 931.312 965.994 932.015 965.783C932.726 965.564 933.472 965.455 934.253 965.455C935.082 965.455 935.851 965.584 936.562 965.842C937.281 966.092 937.906 966.443 938.437 966.896C938.968 967.357 939.386 967.908 939.691 968.549C940.003 969.182 940.16 969.885 940.16 970.658H937.371C937.332 970.229 937.238 969.838 937.089 969.486C936.949 969.127 936.75 968.818 936.492 968.561C936.226 968.311 935.902 968.115 935.519 967.975C935.144 967.826 934.711 967.752 934.218 967.752C933.789 967.752 933.39 967.811 933.023 967.928C932.664 968.037 932.351 968.193 932.086 968.396C931.82 968.607 931.613 968.861 931.464 969.158C931.316 969.455 931.242 969.787 931.242 970.154C931.25 970.545 931.351 970.889 931.546 971.186C931.742 971.475 932.003 971.729 932.332 971.947C932.668 972.166 933.05 972.357 933.48 972.521C933.918 972.686 934.375 972.838 934.851 972.979C935.453 973.15 936.039 973.365 936.609 973.623C937.187 973.873 937.718 974.178 938.203 974.537C938.804 974.99 939.285 975.533 939.644 976.166C940.011 976.791 940.195 977.514 940.195 978.334C940.195 979.092 940.035 979.76 939.714 980.338C939.402 980.916 938.98 981.396 938.449 981.779C937.91 982.178 937.285 982.479 936.574 982.682C935.863 982.877 935.113 982.975 934.324 982.975C933.488 982.975 932.664 982.846 931.851 982.588C931.039 982.322 930.332 981.939 929.73 981.439C929.175 980.971 928.734 980.42 928.406 979.787C928.086 979.154 927.921 978.428 927.914 977.607H930.726C930.765 978.131 930.875 978.588 931.054 978.979C931.242 979.361 931.496 979.678 931.816 979.928C932.128 980.186 932.496 980.377 932.918 980.502C933.347 980.627 933.816 980.689 934.324 980.689C934.753 980.689 935.152 980.639 935.519 980.537C935.894 980.436 936.218 980.283 936.492 980.08C936.757 979.885 936.968 979.643 937.125 979.354C937.289 979.064 937.371 978.732 937.371 978.357ZM895.496 1014.36C895.496 1013.96 895.414 1013.61 895.25 1013.3C895.086 1013 894.856 1012.72 894.559 1012.48C894.246 1012.26 893.875 1012.05 893.446 1011.87C893.024 1011.69 892.551 1011.52 892.028 1011.37C891.223 1011.14 890.481 1010.87 889.801 1010.54C889.129 1010.2 888.555 1009.83 888.079 1009.41C887.602 1008.99 887.227 1008.51 886.954 1007.98C886.688 1007.44 886.555 1006.84 886.555 1006.17C886.555 1005.44 886.711 1004.79 887.024 1004.21C887.336 1003.62 887.758 1003.12 888.289 1002.71C888.821 1002.3 889.438 1001.99 890.141 1001.78C890.852 1001.56 891.598 1001.46 892.379 1001.46C893.207 1001.46 893.977 1001.58 894.688 1001.84C895.407 1002.09 896.032 1002.44 896.563 1002.9C897.094 1003.36 897.512 1003.91 897.817 1004.55C898.129 1005.18 898.286 1005.88 898.286 1006.66H895.496C895.457 1006.23 895.364 1005.84 895.215 1005.49C895.075 1005.13 894.875 1004.82 894.618 1004.56C894.352 1004.31 894.028 1004.12 893.645 1003.97C893.27 1003.83 892.836 1003.75 892.344 1003.75C891.914 1003.75 891.516 1003.81 891.149 1003.93C890.789 1004.04 890.477 1004.19 890.211 1004.4C889.946 1004.61 889.739 1004.86 889.59 1005.16C889.442 1005.46 889.368 1005.79 889.368 1006.15C889.375 1006.54 889.477 1006.89 889.672 1007.19C889.868 1007.47 890.129 1007.73 890.457 1007.95C890.793 1008.17 891.176 1008.36 891.606 1008.52C892.043 1008.69 892.5 1008.84 892.977 1008.98C893.579 1009.15 894.164 1009.37 894.735 1009.62C895.313 1009.87 895.844 1010.18 896.329 1010.54C896.93 1010.99 897.411 1011.53 897.77 1012.17C898.137 1012.79 898.321 1013.51 898.321 1014.33C898.321 1015.09 898.161 1015.76 897.84 1016.34C897.528 1016.92 897.106 1017.4 896.575 1017.78C896.036 1018.18 895.411 1018.48 894.7 1018.68C893.989 1018.88 893.239 1018.97 892.45 1018.97C891.614 1018.97 890.789 1018.85 889.977 1018.59C889.164 1018.32 888.457 1017.94 887.856 1017.44C887.301 1016.97 886.86 1016.42 886.532 1015.79C886.211 1015.15 886.047 1014.43 886.039 1013.61H888.852C888.891 1014.13 889 1014.59 889.18 1014.98C889.368 1015.36 889.621 1015.68 889.942 1015.93C890.254 1016.19 890.621 1016.38 891.043 1016.5C891.473 1016.63 891.942 1016.69 892.45 1016.69C892.879 1016.69 893.278 1016.64 893.645 1016.54C894.02 1016.44 894.344 1016.28 894.618 1016.08C894.883 1015.88 895.094 1015.64 895.25 1015.35C895.414 1015.06 895.496 1014.73 895.496 1014.36ZM900.982 1001.69H911.037V1004.02H907.392V1016.43H911.037V1018.75H900.982V1016.43H904.544V1004.02H900.982V1001.69ZM926.624 1004.02H921.362V1018.75H918.561V1004.02H913.334V1001.69H926.624V1004.02ZM938.507 1011.1H931.453V1016.43H939.691V1018.75H928.628V1001.69H939.632V1004.02H931.453V1008.83H938.507V1011.1Z" fill="#1E1E1E"/>
<rect x="822" y="821.074" width="181" height="241" rx="6" stroke="#1E1E1E" stroke-width="4" stroke-linecap="round"/>
<path d="M856.604 1107.74C856.604 1106.14 856.793 1104.68 857.17 1103.37C857.561 1102.04 858.121 1100.9 858.85 1099.95C859.566 1099 860.438 1098.26 861.467 1097.74C862.509 1097.21 863.681 1096.94 864.983 1096.94C866.155 1096.94 867.177 1097.15 868.049 1097.56C868.934 1097.97 869.716 1098.55 870.393 1099.3V1088.46H875.061V1118.46H870.822L870.608 1116.26C869.931 1117.09 869.123 1117.73 868.186 1118.19C867.248 1118.63 866.168 1118.85 864.944 1118.85C863.655 1118.85 862.496 1118.59 861.467 1118.05C860.438 1117.51 859.566 1116.75 858.85 1115.79C858.134 1114.84 857.58 1113.71 857.19 1112.41C856.799 1111.09 856.604 1109.67 856.604 1108.15V1107.74ZM861.272 1108.15C861.272 1109.09 861.363 1109.97 861.545 1110.81C861.727 1111.64 862.014 1112.36 862.405 1112.97C862.795 1113.61 863.296 1114.11 863.908 1114.48C864.52 1114.83 865.256 1115.01 866.115 1115.01C867.17 1115.01 868.043 1114.78 868.733 1114.32C869.423 1113.85 869.976 1113.22 870.393 1112.43V1103.35C869.976 1102.56 869.423 1101.95 868.733 1101.49C868.056 1101.02 867.196 1100.79 866.155 1100.79C865.282 1100.79 864.533 1100.97 863.908 1101.33C863.296 1101.7 862.802 1102.2 862.424 1102.84C862.02 1103.48 861.727 1104.22 861.545 1105.06C861.363 1105.9 861.272 1106.79 861.272 1107.74V1108.15ZM879.513 1107.7C879.513 1106.16 879.734 1104.75 880.177 1103.44C880.62 1102.13 881.264 1100.99 882.11 1100.03C882.944 1099.06 883.966 1098.31 885.177 1097.76C886.388 1097.21 887.768 1096.94 889.317 1096.94C890.867 1096.94 892.247 1097.21 893.458 1097.76C894.682 1098.31 895.717 1099.06 896.564 1100.03C897.397 1100.99 898.035 1102.13 898.478 1103.44C898.92 1104.75 899.142 1106.16 899.142 1107.7V1108.11C899.142 1109.66 898.92 1111.09 898.478 1112.39C898.035 1113.69 897.397 1114.82 896.564 1115.79C895.73 1116.75 894.702 1117.51 893.478 1118.05C892.267 1118.6 890.893 1118.87 889.357 1118.87C887.807 1118.87 886.42 1118.6 885.196 1118.05C883.972 1117.51 882.944 1116.75 882.11 1115.79C881.264 1114.82 880.62 1113.69 880.177 1112.39C879.734 1111.09 879.513 1109.66 879.513 1108.11V1107.7ZM884.181 1108.11C884.181 1109.06 884.278 1109.96 884.474 1110.81C884.682 1111.65 885.001 1112.4 885.431 1113.03C885.847 1113.67 886.381 1114.18 887.032 1114.56C887.683 1114.92 888.458 1115.1 889.357 1115.1C890.229 1115.1 890.991 1114.92 891.642 1114.56C892.293 1114.18 892.827 1113.67 893.243 1113.03C893.66 1112.4 893.966 1111.65 894.161 1110.81C894.37 1109.96 894.474 1109.06 894.474 1108.11V1107.7C894.474 1106.78 894.37 1105.89 894.161 1105.04C893.953 1104.2 893.647 1103.46 893.243 1102.82C892.814 1102.18 892.273 1101.67 891.622 1101.29C890.984 1100.92 890.216 1100.73 889.317 1100.73C888.432 1100.73 887.664 1100.92 887.013 1101.29C886.375 1101.67 885.847 1102.18 885.431 1102.82C885.001 1103.46 884.682 1104.2 884.474 1105.04C884.278 1105.89 884.181 1106.78 884.181 1107.7V1108.11ZM912.715 1115.1C913.301 1115.1 913.861 1115.02 914.395 1114.85C914.941 1114.67 915.423 1114.41 915.84 1114.09C916.243 1113.76 916.562 1113.38 916.797 1112.94C917.044 1112.49 917.168 1112 917.168 1111.47H921.562C921.576 1112.5 921.341 1113.47 920.859 1114.38C920.391 1115.28 919.753 1116.05 918.945 1116.71C918.125 1117.38 917.181 1117.92 916.113 1118.31C915.059 1118.68 913.945 1118.87 912.773 1118.87C911.146 1118.87 909.72 1118.59 908.496 1118.03C907.285 1117.46 906.276 1116.69 905.469 1115.73C904.648 1114.76 904.03 1113.65 903.613 1112.37C903.197 1111.08 902.988 1109.71 902.988 1108.25V1107.56C902.988 1106.12 903.19 1104.75 903.594 1103.46C904.01 1102.17 904.629 1101.05 905.449 1100.08C906.27 1099.12 907.285 1098.36 908.496 1097.8C909.72 1097.23 911.139 1096.94 912.754 1096.94C914.03 1096.94 915.208 1097.13 916.289 1097.53C917.383 1097.92 918.32 1098.46 919.102 1099.17C919.883 1099.87 920.488 1100.71 920.918 1101.69C921.361 1102.66 921.576 1103.74 921.562 1104.91H917.168C917.168 1104.34 917.057 1103.79 916.836 1103.29C916.628 1102.78 916.328 1102.34 915.938 1101.96C915.534 1101.58 915.052 1101.28 914.492 1101.06C913.945 1100.84 913.353 1100.73 912.715 1100.73C911.738 1100.73 910.924 1100.93 910.273 1101.33C909.635 1101.72 909.128 1102.24 908.75 1102.88C908.346 1103.51 908.06 1104.24 907.891 1105.06C907.734 1105.88 907.656 1106.72 907.656 1107.56V1108.25C907.656 1109.11 907.734 1109.95 907.891 1110.79C908.06 1111.61 908.34 1112.33 908.73 1112.96C909.108 1113.61 909.622 1114.13 910.273 1114.52C910.924 1114.91 911.738 1115.1 912.715 1115.1ZM940.468 1112.74C940.468 1112.38 940.383 1112.05 940.214 1111.76C940.057 1111.48 939.791 1111.2 939.413 1110.94C939.009 1110.71 938.482 1110.49 937.831 1110.28C937.18 1110.07 936.366 1109.88 935.39 1109.69C934.166 1109.45 933.046 1109.14 932.03 1108.78C931.028 1108.41 930.162 1107.97 929.432 1107.45C928.716 1106.95 928.156 1106.37 927.753 1105.69C927.349 1105.01 927.147 1104.22 927.147 1103.33C927.147 1102.47 927.349 1101.65 927.753 1100.88C928.169 1100.1 928.762 1099.42 929.53 1098.83C930.285 1098.25 931.197 1097.79 932.265 1097.45C933.345 1097.11 934.543 1096.94 935.858 1096.94C937.265 1096.94 938.528 1097.12 939.647 1097.47C940.767 1097.81 941.718 1098.27 942.499 1098.87C943.267 1099.47 943.86 1100.18 944.276 1101C944.693 1101.82 944.901 1102.71 944.901 1103.66H940.233C940.233 1103.27 940.149 1102.9 939.979 1102.54C939.823 1102.18 939.589 1101.85 939.276 1101.57C938.912 1101.23 938.443 1100.96 937.87 1100.77C937.297 1100.56 936.627 1100.46 935.858 1100.46C935.155 1100.46 934.537 1100.53 934.003 1100.69C933.482 1100.83 933.052 1101.03 932.714 1101.29C932.375 1101.53 932.121 1101.81 931.952 1102.13C931.783 1102.45 931.698 1102.78 931.698 1103.13C931.698 1103.5 931.77 1103.83 931.913 1104.13C932.056 1104.41 932.31 1104.67 932.675 1104.89C933.013 1105.12 933.482 1105.34 934.081 1105.53C934.693 1105.73 935.461 1105.9 936.386 1106.06C937.675 1106.29 938.853 1106.58 939.921 1106.92C940.988 1107.26 941.9 1107.68 942.655 1108.17C943.41 1108.69 943.996 1109.3 944.413 1110.01C944.83 1110.71 945.038 1111.54 945.038 1112.51C945.038 1113.44 944.817 1114.3 944.374 1115.08C943.944 1115.87 943.332 1116.54 942.538 1117.1C941.731 1117.66 940.767 1118.09 939.647 1118.4C938.528 1118.72 937.284 1118.87 935.917 1118.87C934.393 1118.87 933.039 1118.67 931.854 1118.27C930.682 1117.86 929.699 1117.33 928.905 1116.67C928.098 1116.01 927.486 1115.27 927.069 1114.42C926.653 1113.57 926.444 1112.71 926.444 1111.84H930.975C931.015 1112.49 931.184 1113.05 931.483 1113.5C931.796 1113.94 932.186 1114.3 932.655 1114.58C933.111 1114.86 933.632 1115.07 934.218 1115.2C934.804 1115.32 935.396 1115.38 935.995 1115.38C936.802 1115.38 937.505 1115.29 938.104 1115.12C938.716 1114.95 939.205 1114.73 939.569 1114.44C939.869 1114.21 940.09 1113.95 940.233 1113.68C940.39 1113.39 940.468 1113.08 940.468 1112.74ZM955.623 1115.65C955.623 1114.75 955.909 1113.98 956.482 1113.35C957.068 1112.71 957.908 1112.39 959.002 1112.39C960.069 1112.39 960.903 1112.71 961.502 1113.35C962.101 1113.97 962.4 1114.74 962.4 1115.65C962.4 1116.56 962.094 1117.32 961.482 1117.94C960.883 1118.55 960.056 1118.85 959.002 1118.85C957.934 1118.85 957.101 1118.55 956.502 1117.94C955.916 1117.31 955.623 1116.55 955.623 1115.65Z" fill="#1E1E1E"/>
<rect x="182" y="237.537" width="821" height="200" rx="6" stroke="#1E1E1E" stroke-width="4" stroke-linecap="round"/>
<path d="M194.461 202.965H189.656V214H184.969V185.562H193.992C195.464 185.576 196.818 185.764 198.055 186.129C199.292 186.493 200.359 187.027 201.258 187.73C202.143 188.447 202.833 189.339 203.328 190.406C203.823 191.461 204.07 192.698 204.07 194.117C204.07 195.094 203.94 195.979 203.68 196.773C203.432 197.568 203.081 198.284 202.625 198.922C202.169 199.56 201.622 200.12 200.984 200.602C200.346 201.083 199.637 201.5 198.855 201.852L204.93 213.746V214H199.91L194.461 202.965ZM189.656 199.137H194.051C194.884 199.124 195.633 199 196.297 198.766C196.974 198.518 197.547 198.167 198.016 197.711C198.432 197.32 198.758 196.839 198.992 196.266C199.227 195.693 199.344 195.042 199.344 194.312C199.344 193.492 199.214 192.776 198.953 192.164C198.706 191.539 198.335 191.018 197.84 190.602C197.384 190.211 196.831 189.918 196.18 189.723C195.529 189.514 194.799 189.404 193.992 189.391H189.656V199.137ZM227.331 201.676C227.331 202.822 227.227 203.928 227.018 204.996C226.823 206.064 226.537 207.073 226.159 208.023C225.755 208.974 225.254 209.853 224.655 210.66C224.056 211.454 223.366 212.138 222.585 212.711C221.83 213.232 220.99 213.642 220.065 213.941C219.154 214.241 218.151 214.391 217.058 214.391C215.925 214.391 214.883 214.234 213.933 213.922C212.995 213.596 212.155 213.154 211.413 212.594C210.658 212.021 209.994 211.331 209.421 210.523C208.861 209.716 208.392 208.831 208.015 207.867C207.65 206.943 207.377 205.96 207.194 204.918C207.012 203.863 206.921 202.783 206.921 201.676V197.926C206.921 196.767 207.018 195.647 207.214 194.566C207.409 193.486 207.702 192.464 208.093 191.5C208.47 190.576 208.933 189.729 209.479 188.961C210.039 188.18 210.697 187.503 211.452 186.93C212.181 186.37 213.008 185.94 213.933 185.641C214.87 185.328 215.899 185.172 217.018 185.172C218.151 185.172 219.193 185.328 220.143 185.641C221.094 185.953 221.947 186.389 222.702 186.949C223.457 187.509 224.115 188.167 224.675 188.922C225.235 189.677 225.703 190.504 226.081 191.402C226.498 192.366 226.81 193.401 227.018 194.508C227.227 195.602 227.331 196.741 227.331 197.926V201.676ZM222.604 197.887C222.591 197.171 222.546 196.467 222.468 195.777C222.403 195.087 222.285 194.43 222.116 193.805C221.921 193.089 221.66 192.438 221.335 191.852C221.022 191.253 220.638 190.745 220.183 190.328C219.779 189.964 219.317 189.677 218.796 189.469C218.275 189.26 217.683 189.156 217.018 189.156C216.38 189.156 215.808 189.26 215.3 189.469C214.792 189.664 214.349 189.938 213.972 190.289C213.516 190.719 213.132 191.233 212.819 191.832C212.507 192.418 212.266 193.076 212.097 193.805C211.94 194.43 211.823 195.094 211.745 195.797C211.68 196.487 211.647 197.184 211.647 197.887V201.676C211.647 202.366 211.68 203.049 211.745 203.727C211.81 204.404 211.921 205.055 212.077 205.68C212.246 206.383 212.474 207.04 212.761 207.652C213.06 208.251 213.418 208.759 213.835 209.176C214.238 209.566 214.701 209.879 215.222 210.113C215.755 210.335 216.367 210.445 217.058 210.445C217.722 210.445 218.321 210.335 218.854 210.113C219.401 209.892 219.87 209.592 220.261 209.215C220.716 208.785 221.094 208.277 221.393 207.691C221.706 207.092 221.953 206.435 222.136 205.719C222.292 205.094 222.403 204.443 222.468 203.766C222.546 203.076 222.591 202.379 222.604 201.676V197.887ZM249.693 185.562L249.713 204.586C249.713 206.057 249.485 207.398 249.029 208.609C248.586 209.807 247.955 210.836 247.135 211.695C246.301 212.555 245.299 213.219 244.127 213.688C242.968 214.156 241.666 214.391 240.22 214.391C238.801 214.391 237.519 214.163 236.373 213.707C235.227 213.238 234.25 212.574 233.443 211.715C232.623 210.855 231.985 209.82 231.529 208.609C231.086 207.398 230.858 206.057 230.845 204.586L230.885 185.562H235.513L235.553 204.586C235.566 205.484 235.676 206.311 235.885 207.066C236.093 207.809 236.399 208.44 236.803 208.961C237.193 209.456 237.668 209.846 238.228 210.133C238.801 210.406 239.465 210.543 240.22 210.543C240.989 210.543 241.666 210.406 242.252 210.133C242.851 209.846 243.352 209.443 243.756 208.922C244.159 208.388 244.465 207.757 244.674 207.027C244.882 206.285 244.999 205.471 245.025 204.586L245.064 185.562H249.693ZM274.516 189.449H265.747V214H261.079V189.449H252.368V185.562H274.516V189.449ZM294.203 201.246H282.445V210.133H296.175V214H277.738V185.562H296.078V189.449H282.445V197.457H294.203V201.246ZM310.178 202.965H305.373V214H300.686V185.562H309.709C311.181 185.576 312.535 185.764 313.772 186.129C315.009 186.493 316.077 187.027 316.975 187.73C317.86 188.447 318.551 189.339 319.045 190.406C319.54 191.461 319.787 192.698 319.787 194.117C319.787 195.094 319.657 195.979 319.397 196.773C319.149 197.568 318.798 198.284 318.342 198.922C317.886 199.56 317.34 200.12 316.702 200.602C316.064 201.083 315.354 201.5 314.573 201.852L320.647 213.746V214H315.627L310.178 202.965ZM305.373 199.137H309.768C310.601 199.124 311.35 199 312.014 198.766C312.691 198.518 313.264 198.167 313.733 197.711C314.149 197.32 314.475 196.839 314.709 196.266C314.944 195.693 315.061 195.042 315.061 194.312C315.061 193.492 314.931 192.776 314.67 192.164C314.423 191.539 314.052 191.018 313.557 190.602C313.101 190.211 312.548 189.918 311.897 189.723C311.246 189.514 310.517 189.404 309.709 189.391H305.373V199.137Z" fill="#1E1E1E"/>
<path d="M594.5 445.537C594.5 444.433 593.605 443.537 592.5 443.537C591.395 443.537 590.5 444.433 590.5 445.537H594.5ZM271.086 814.451C271.867 815.232 273.133 815.232 273.914 814.451L286.642 801.723C287.423 800.942 287.423 799.676 286.642 798.895C285.861 798.114 284.595 798.114 283.814 798.895L272.5 810.209L261.186 798.895C260.405 798.114 259.139 798.114 258.358 798.895C257.577 799.676 257.577 800.942 258.358 801.723L271.086 814.451ZM592.5 445.537H590.5V605.537H592.5H594.5V445.537H592.5ZM568.5 629.537V627.537H296.5V629.537V631.537H568.5V629.537ZM272.5 653.537H270.5V813.037H272.5H274.5V653.537H272.5ZM296.5 629.537V627.537C282.141 627.537 270.5 639.178 270.5 653.537H272.5H274.5C274.5 641.387 284.35 631.537 296.5 631.537V629.537ZM592.5 605.537H590.5C590.5 617.687 580.65 627.537 568.5 627.537V629.537V631.537C582.859 631.537 594.5 619.897 594.5 605.537H592.5Z" fill="#1E1E1E"/>
<path d="M594.5 445.537C594.5 444.433 593.605 443.537 592.5 443.537C591.395 443.537 590.5 444.433 590.5 445.537H594.5ZM591.086 813.988C591.867 814.769 593.133 814.769 593.914 813.988L606.642 801.261C607.423 800.479 607.423 799.213 606.642 798.432C605.861 797.651 604.595 797.651 603.814 798.432L592.5 809.746L581.186 798.432C580.405 797.651 579.139 797.651 578.358 798.432C577.577 799.213 577.577 800.479 578.358 801.261L591.086 813.988ZM592.5 445.537H590.5V812.574H592.5H594.5V445.537H592.5Z" fill="#1E1E1E"/>
<path d="M594.5 445.537C594.5 444.433 593.605 443.537 592.5 443.537C591.395 443.537 590.5 444.433 590.5 445.537H594.5ZM911.086 813.988C911.867 814.769 913.133 814.769 913.914 813.988L926.642 801.261C927.423 800.479 927.423 799.213 926.642 798.432C925.861 797.651 924.595 797.651 923.814 798.432L912.5 809.746L901.186 798.432C900.405 797.651 899.139 797.651 898.358 798.432C897.577 799.213 897.577 800.479 898.358 801.261L911.086 813.988ZM592.5 445.537H590.5V605.306H592.5H594.5V445.537H592.5ZM616.5 629.306V631.306H888.5V629.306V627.306H616.5V629.306ZM912.5 653.306H910.5V812.574H912.5H914.5V653.306H912.5ZM888.5 629.306V631.306C900.65 631.306 910.5 641.155 910.5 653.306H912.5H914.5C914.5 638.946 902.859 627.306 888.5 627.306V629.306ZM592.5 605.306H590.5C590.5 619.665 602.141 631.306 616.5 631.306V629.306V627.306C604.35 627.306 594.5 617.456 594.5 605.306H592.5Z" fill="#1E1E1E"/>
<rect x="2" y="72" width="1182" height="1152" rx="6" stroke="#1E1E1E" stroke-width="4" stroke-linecap="round" stroke-dasharray="16 10"/>
<path d="M9.94922 35.623V46.4629H5.26172V18.0254H14.7734C16.2057 18.0384 17.5208 18.2533 18.7188 18.6699C19.9297 19.0866 20.9714 19.679 21.8438 20.4473C22.7161 21.2155 23.3932 22.1465 23.875 23.2402C24.3568 24.334 24.5977 25.5645 24.5977 26.9316C24.5977 28.2467 24.3568 29.4382 23.875 30.5059C23.3932 31.5605 22.7161 32.4655 21.8438 33.2207C20.9714 33.9889 19.9297 34.5814 18.7188 34.998C17.5208 35.4147 16.2057 35.623 14.7734 35.623H9.94922ZM9.94922 31.7949H14.7734C15.5677 31.7819 16.2773 31.6582 16.9023 31.4238C17.5404 31.1764 18.0807 30.8379 18.5234 30.4082C18.9661 29.9785 19.2982 29.4707 19.5195 28.8848C19.7539 28.2988 19.8711 27.6608 19.8711 26.9707C19.8711 26.2155 19.7539 25.5319 19.5195 24.9199C19.2982 24.2949 18.9661 23.7546 18.5234 23.2988C18.0807 22.8431 17.5404 22.4915 16.9023 22.2441C16.2773 21.9967 15.5677 21.8665 14.7734 21.8535H9.94922V31.7949ZM37.6044 35.4277H32.7997V46.4629H28.1122V18.0254H37.1356C38.607 18.0384 39.9611 18.2272 41.1981 18.5918C42.4351 18.9564 43.5028 19.4902 44.4013 20.1934C45.2867 20.9095 45.9768 21.8014 46.4716 22.8691C46.9664 23.9238 47.2138 25.1608 47.2138 26.5801C47.2138 27.5566 47.0835 28.4421 46.8231 29.2363C46.5757 30.0306 46.2242 30.7467 45.7684 31.3848C45.3127 32.0228 44.7658 32.5827 44.1278 33.0645C43.4898 33.5462 42.7802 33.9629 41.9989 34.3145L48.0731 46.209V46.4629H43.0536L37.6044 35.4277ZM32.7997 31.5996H37.1942C38.0276 31.5866 38.7763 31.4629 39.4403 31.2285C40.1174 30.9811 40.6903 30.6296 41.1591 30.1738C41.5757 29.7832 41.9013 29.3014 42.1356 28.7285C42.37 28.1556 42.4872 27.5046 42.4872 26.7754C42.4872 25.9551 42.357 25.2389 42.0966 24.627C41.8492 24.002 41.4781 23.4811 40.9833 23.0645C40.5276 22.6738 39.9742 22.3809 39.3231 22.1855C38.6721 21.9772 37.9429 21.8665 37.1356 21.8535H32.7997V31.5996ZM70.4744 34.1387C70.4744 35.2845 70.3702 36.3913 70.1619 37.459C69.9666 38.5267 69.6801 39.5358 69.3025 40.4863C68.8989 41.4368 68.3976 42.3158 67.7986 43.123C67.1996 43.9173 66.5095 44.6009 65.7283 45.1738C64.9731 45.6947 64.1332 46.1048 63.2088 46.4043C62.2973 46.7038 61.2947 46.8535 60.2009 46.8535C59.0681 46.8535 58.0265 46.6973 57.0759 46.3848C56.1384 46.0592 55.2986 45.6165 54.5564 45.0566C53.8012 44.4837 53.1371 43.7936 52.5642 42.9863C52.0043 42.179 51.5356 41.2936 51.158 40.3301C50.7934 39.4056 50.5199 38.4225 50.3377 37.3809C50.1554 36.3262 50.0642 35.2454 50.0642 34.1387V30.3887C50.0642 29.2298 50.1619 28.11 50.3572 27.0293C50.5525 25.9486 50.8455 24.9264 51.2361 23.9629C51.6137 23.0384 52.0759 22.1921 52.6228 21.4238C53.1827 20.6426 53.8403 19.9655 54.5955 19.3926C55.3246 18.8327 56.1515 18.403 57.0759 18.1035C58.0134 17.791 59.0421 17.6348 60.1619 17.6348C61.2947 17.6348 62.3364 17.791 63.2869 18.1035C64.2374 18.416 65.0903 18.8522 65.8455 19.4121C66.6007 19.972 67.2582 20.6296 67.8181 21.3848C68.378 22.14 68.8468 22.9668 69.2244 23.8652C69.641 24.8288 69.9535 25.8639 70.1619 26.9707C70.3702 28.0645 70.4744 29.2038 70.4744 30.3887V34.1387ZM65.7478 30.3496C65.7348 29.6335 65.6892 28.9303 65.6111 28.2402C65.546 27.5501 65.4288 26.8926 65.2595 26.2676C65.0642 25.5514 64.8038 24.9004 64.4783 24.3145C64.1658 23.7155 63.7817 23.2077 63.3259 22.791C62.9223 22.4264 62.4601 22.14 61.9392 21.9316C61.4184 21.7233 60.8259 21.6191 60.1619 21.6191C59.5239 21.6191 58.9509 21.7233 58.4431 21.9316C57.9353 22.127 57.4926 22.4004 57.115 22.752C56.6593 23.1816 56.2752 23.696 55.9627 24.2949C55.6502 24.8809 55.4093 25.5384 55.24 26.2676C55.0838 26.8926 54.9666 27.5566 54.8884 28.2598C54.8233 28.9499 54.7908 29.6465 54.7908 30.3496V34.1387C54.7908 34.8288 54.8233 35.5124 54.8884 36.1895C54.9535 36.8665 55.0642 37.5176 55.2205 38.1426C55.3897 38.8457 55.6176 39.5033 55.9041 40.1152C56.2035 40.7142 56.5616 41.222 56.9783 41.6387C57.3819 42.0293 57.8442 42.3418 58.365 42.5762C58.8989 42.7975 59.5108 42.9082 60.2009 42.9082C60.865 42.9082 61.464 42.7975 61.9978 42.5762C62.5447 42.3548 63.0134 42.0553 63.4041 41.6777C63.8598 41.248 64.2374 40.7402 64.5369 40.1543C64.8494 39.5553 65.0968 38.8978 65.2791 38.1816C65.4353 37.5566 65.546 36.9056 65.6111 36.2285C65.6892 35.5384 65.7348 34.8418 65.7478 34.1387V30.3496ZM74.1256 46.4629V18.0254H81.1569C82.3808 18.0254 83.5332 18.1686 84.6139 18.4551C85.6946 18.7285 86.6777 19.1126 87.5631 19.6074C88.5267 20.1152 89.3795 20.7533 90.1217 21.5215C90.8769 22.2897 91.5084 23.1491 92.0163 24.0996C92.5371 25.0892 92.9407 26.1764 93.2272 27.3613C93.5136 28.5462 93.6569 29.8092 93.6569 31.1504V33.377C93.6569 34.666 93.5202 35.89 93.2467 37.0488C92.9863 38.1947 92.6087 39.2428 92.1139 40.1934C91.6321 41.1178 91.0462 41.9577 90.3561 42.7129C89.679 43.4681 88.9238 44.1126 88.0905 44.6465C87.153 45.2324 86.1113 45.6816 84.9655 45.9941C83.8327 46.3066 82.6152 46.4629 81.3131 46.4629H74.1256ZM78.8717 21.8535V42.6543H81.3131C82.1465 42.6543 82.9082 42.5566 83.5983 42.3613C84.3014 42.153 84.9329 41.86 85.4928 41.4824C86.0657 41.0918 86.5735 40.6035 87.0163 40.0176C87.472 39.4186 87.8431 38.735 88.1295 37.9668C88.3769 37.3158 88.5657 36.6061 88.6959 35.8379C88.8261 35.0697 88.8913 34.2493 88.8913 33.377V31.1113C88.8913 30.252 88.8261 29.4382 88.6959 28.6699C88.5657 27.9017 88.3769 27.1921 88.1295 26.541C87.817 25.7467 87.4004 25.0306 86.8795 24.3926C86.3587 23.7415 85.7402 23.2142 85.0241 22.8105C84.5032 22.5111 83.9173 22.2832 83.2663 22.127C82.6152 21.9577 81.9121 21.8665 81.1569 21.8535H78.8717ZM115.98 18.0254L116 37.0488C116 38.5202 115.772 39.8613 115.316 41.0723C114.873 42.2702 114.242 43.2988 113.421 44.1582C112.588 45.0176 111.585 45.6816 110.414 46.1504C109.255 46.6191 107.953 46.8535 106.507 46.8535C105.088 46.8535 103.806 46.6257 102.66 46.1699C101.514 45.7012 100.537 45.0371 99.73 44.1777C98.9097 43.3184 98.2717 42.2832 97.8159 41.0723C97.3732 39.8613 97.1454 38.5202 97.1323 37.0488L97.1714 18.0254H101.8L101.839 37.0488C101.852 37.9473 101.963 38.7741 102.171 39.5293C102.38 40.2715 102.686 40.903 103.089 41.4238C103.48 41.9186 103.955 42.3092 104.515 42.5957C105.088 42.8691 105.752 43.0059 106.507 43.0059C107.276 43.0059 107.953 42.8691 108.539 42.5957C109.138 42.3092 109.639 41.9056 110.043 41.3848C110.446 40.8509 110.752 40.2194 110.96 39.4902C111.169 38.748 111.286 37.9342 111.312 37.0488L111.351 18.0254H115.98ZM139.827 37.7129C139.696 39.0931 139.371 40.3496 138.85 41.4824C138.329 42.6022 137.646 43.5592 136.799 44.3535C135.94 45.1608 134.918 45.7858 133.733 46.2285C132.561 46.6582 131.259 46.873 129.827 46.873C128.655 46.873 127.574 46.7168 126.584 46.4043C125.608 46.0788 124.735 45.623 123.967 45.0371C123.225 44.4902 122.574 43.8327 122.014 43.0645C121.467 42.2832 121.005 41.4303 120.627 40.5059C120.25 39.5944 119.963 38.6048 119.768 37.5371C119.586 36.4694 119.495 35.3561 119.495 34.1973V30.3105C119.495 29.2038 119.586 28.1361 119.768 27.1074C119.95 26.0788 120.224 25.1087 120.588 24.1973C120.979 23.1816 121.48 22.2637 122.092 21.4434C122.717 20.61 123.433 19.9004 124.241 19.3145C125.009 18.7806 125.855 18.3639 126.78 18.0645C127.717 17.765 128.739 17.6152 129.846 17.6152C131.343 17.6152 132.678 17.8366 133.85 18.2793C135.035 18.722 136.044 19.347 136.877 20.1543C137.724 20.9746 138.388 21.9642 138.87 23.123C139.364 24.2819 139.683 25.571 139.827 26.9902H135.139C135.061 26.1439 134.898 25.3822 134.651 24.7051C134.416 24.015 134.091 23.429 133.674 22.9473C133.245 22.4655 132.717 22.1009 132.092 21.8535C131.467 21.5931 130.718 21.4629 129.846 21.4629C129.234 21.4629 128.681 21.5475 128.186 21.7168C127.704 21.8861 127.274 22.127 126.897 22.4395C126.376 22.8171 125.94 23.3118 125.588 23.9238C125.25 24.5228 124.97 25.1934 124.748 25.9355C124.579 26.5866 124.449 27.2832 124.358 28.0254C124.28 28.7546 124.241 29.5033 124.241 30.2715V34.1973C124.241 35.1478 124.293 36.0397 124.397 36.873C124.514 37.7064 124.69 38.4681 124.924 39.1582C125.107 39.7311 125.334 40.252 125.608 40.7207C125.894 41.1895 126.233 41.5931 126.623 41.9316C127.027 42.2962 127.489 42.5762 128.01 42.7715C128.544 42.9538 129.149 43.0449 129.827 43.0449C130.634 43.0449 131.35 42.9277 131.975 42.6934C132.6 42.459 133.134 42.1139 133.577 41.6582C134.006 41.2155 134.351 40.6621 134.612 39.998C134.872 39.334 135.041 38.5723 135.12 37.7129H139.827ZM163.947 21.9121H155.177V46.4629H150.509V21.9121H141.798V18.0254H163.947V21.9121ZM167.617 18.0254H184.375V21.9121H178.301V42.5957H184.375V46.4629H167.617V42.5957H173.555V21.9121H167.617V18.0254ZM209.335 34.1387C209.335 35.2845 209.231 36.3913 209.023 37.459C208.827 38.5267 208.541 39.5358 208.163 40.4863C207.759 41.4368 207.258 42.3158 206.659 43.123C206.06 43.9173 205.37 44.6009 204.589 45.1738C203.834 45.6947 202.994 46.1048 202.069 46.4043C201.158 46.7038 200.155 46.8535 199.062 46.8535C197.929 46.8535 196.887 46.6973 195.937 46.3848C194.999 46.0592 194.159 45.6165 193.417 45.0566C192.662 44.4837 191.998 43.7936 191.425 42.9863C190.865 42.179 190.396 41.2936 190.019 40.3301C189.654 39.4056 189.381 38.4225 189.198 37.3809C189.016 36.3262 188.925 35.2454 188.925 34.1387V30.3887C188.925 29.2298 189.023 28.11 189.218 27.0293C189.413 25.9486 189.706 24.9264 190.097 23.9629C190.474 23.0384 190.937 22.1921 191.483 21.4238C192.043 20.6426 192.701 19.9655 193.456 19.3926C194.185 18.8327 195.012 18.403 195.937 18.1035C196.874 17.791 197.903 17.6348 199.023 17.6348C200.155 17.6348 201.197 17.791 202.148 18.1035C203.098 18.416 203.951 18.8522 204.706 19.4121C205.461 19.972 206.119 20.6296 206.679 21.3848C207.239 22.14 207.707 22.9668 208.085 23.8652C208.502 24.8288 208.814 25.8639 209.023 26.9707C209.231 28.0645 209.335 29.2038 209.335 30.3887V34.1387ZM204.608 30.3496C204.595 29.6335 204.55 28.9303 204.472 28.2402C204.407 27.5501 204.289 26.8926 204.12 26.2676C203.925 25.5514 203.664 24.9004 203.339 24.3145C203.026 23.7155 202.642 23.2077 202.187 22.791C201.783 22.4264 201.321 22.14 200.8 21.9316C200.279 21.7233 199.687 21.6191 199.023 21.6191C198.384 21.6191 197.812 21.7233 197.304 21.9316C196.796 22.127 196.353 22.4004 195.976 22.752C195.52 23.1816 195.136 23.696 194.823 24.2949C194.511 24.8809 194.27 25.5384 194.101 26.2676C193.944 26.8926 193.827 27.5566 193.749 28.2598C193.684 28.9499 193.651 29.6465 193.651 30.3496V34.1387C193.651 34.8288 193.684 35.5124 193.749 36.1895C193.814 36.8665 193.925 37.5176 194.081 38.1426C194.25 38.8457 194.478 39.5033 194.765 40.1152C195.064 40.7142 195.422 41.222 195.839 41.6387C196.243 42.0293 196.705 42.3418 197.226 42.5762C197.759 42.7975 198.371 42.9082 199.062 42.9082C199.726 42.9082 200.325 42.7975 200.858 42.5762C201.405 42.3548 201.874 42.0553 202.265 41.6777C202.72 41.248 203.098 40.7402 203.398 40.1543C203.71 39.5553 203.957 38.8978 204.14 38.1816C204.296 37.5566 204.407 36.9056 204.472 36.2285C204.55 35.5384 204.595 34.8418 204.608 34.1387V30.3496ZM231.56 46.4629H226.853L217.615 26.8926L217.596 46.4629H212.85V18.0254H217.615L226.795 37.5176L226.834 18.0254H231.56V46.4629Z" fill="#1E1E1E"/>
<defs>
<clipPath id="clip0_151545_757">
<rect width="89" height="89" fill="white" transform="translate(228 857.537)"/>
</clipPath>
<clipPath id="clip1_151545_757">
<rect width="89" height="89" fill="white" transform="translate(548 857.074)"/>
</clipPath>
</defs>
</svg>
